<svg width="193" height="50" viewBox="0 0 193 50" fill="none" xmlns="http://www.w3.org/2000/svg">
<g clip-path="url(#clip0_3002_167)">
<path d="M21.2633 0H0V50L21.2633 0Z" fill="#8896AB"/>
<path d="M36.2239 0H57.4595V50L36.2239 0Z" fill="#8896AB"/>
<path d="M28.7437 18.4282L42.2774 50H33.398L29.3532 39.9482H19.4487L28.7437 18.4282Z" fill="#8896AB"/>
<path d="M92.1491 31.7968L94.6564 38.8657C94.7395 39.0428 94.8642 39.1245 95.0858 39.1245H99.9064C100.17 39.1245 100.211 39.0019 100.17 38.7431L90.2098 11.5435C90.1682 11.3255 90.1267 11.2847 89.905 11.2847H83.9208C83.7546 11.2847 83.6576 11.4072 83.6576 11.5843C83.5745 13.0144 83.4499 13.4503 83.2698 13.8725L74.3904 38.7023C74.3488 39.0019 74.4458 39.1245 74.6952 39.1245H79.0032C79.2664 39.1245 79.3911 39.0428 79.4881 38.784L81.8568 31.7968H92.1491ZM83.2282 27.1795C84.5303 23.3114 86.248 18.3536 86.9406 15.5206H86.9822C87.841 18.4898 89.8635 24.3737 90.7777 27.1795H83.2282Z" fill="#8896AB"/>
<path d="M112.974 39.5467C115.564 39.5467 118.321 39.0836 121.119 37.8986C121.341 37.8169 121.382 37.7216 121.382 37.5173C121.299 36.7545 121.202 35.6513 121.202 34.8068V9.20073C121.202 9.03729 121.202 8.95557 120.994 8.95557H116.298C116.118 8.95557 116.035 9.03729 116.035 9.25521V17.9313C115.301 17.8496 114.788 17.8087 114.179 17.8087C106.602 17.8087 101.947 22.7257 101.947 28.8684C101.947 35.9918 106.726 39.5467 112.974 39.5467ZM116.035 34.8068C115.259 35.052 114.401 35.1473 113.528 35.1473C110.092 35.1473 107.28 33.2405 107.28 28.6096C107.28 24.5099 110.176 22.0855 114.013 22.0855C114.788 22.0855 115.467 22.1672 116.035 22.3852V34.8068Z" fill="#8896AB"/>
<path d="M136.363 17.8087C129.894 17.8087 125.891 22.6848 125.891 28.7049C125.891 34.0849 129.077 39.5467 136.266 39.5467C142.347 39.5467 146.614 35.1473 146.614 28.5687C146.614 22.7665 142.998 17.8087 136.363 17.8087ZM136.1 22.0855C139.757 22.0855 141.308 25.1773 141.308 28.7049C141.308 33.0634 139.023 35.229 136.363 35.229C133.08 35.229 131.141 32.5186 131.141 28.6096C131.141 24.5916 133.205 22.0855 136.1 22.0855Z" fill="#8896AB"/>
<path d="M151.469 8.95557C151.289 8.95557 151.164 9.03729 151.164 9.25521V38.2391C151.164 38.3617 151.289 38.5797 151.469 38.6205C153.533 39.247 155.694 39.5467 157.924 39.5467C164.31 39.5467 170.516 35.6513 170.516 27.806C170.516 22.1264 166.554 17.8087 160.348 17.8087C158.921 17.8087 157.592 18.0267 156.428 18.408L156.373 9.29607C156.373 8.99643 156.289 8.95557 155.985 8.95557H151.469ZM165.21 28.3236C165.21 33.0226 161.941 35.2291 158.409 35.2291C157.675 35.2291 157.024 35.1882 156.428 35.0111V22.6439C157.107 22.3852 157.924 22.1672 159.434 22.1672C162.842 22.1672 165.21 24.292 165.21 28.3236Z" fill="#8896AB"/>
<path d="M188.041 29.849C190.146 29.849 191.878 29.8082 192.474 29.672C192.695 29.6311 192.778 29.5494 192.82 29.3723C192.945 28.9092 193 27.9422 193 26.7572C193 22.7256 190.534 17.8087 184.162 17.8087C177.652 17.8087 174.036 23.0253 174.036 28.9092C174.036 34.1258 176.834 39.5467 184.675 39.5467C187.611 39.5467 189.509 39.0836 191.144 38.3208C191.31 38.2391 191.393 38.1029 191.393 37.8577V34.3301C191.393 34.1258 191.268 34.0849 191.144 34.1667C189.509 34.8477 187.736 35.1882 185.797 35.1882C181.406 35.1882 179.411 32.8046 179.286 29.849H188.041ZM179.286 26.1988C179.632 24.1285 180.962 21.8812 183.941 21.8812C187.224 21.8812 188.082 24.5916 188.082 25.8174C188.082 25.8583 188.082 26.0354 188.082 26.1579C187.902 26.1988 187.348 26.1988 185.714 26.1988H179.286Z" fill="#8896AB"/>
</g>
<defs>
<clipPath id="clip0_3002_167">
<rect width="193" height="50" fill="white"/>
</clipPath>
</defs>
</svg>
