<?xml version="1.0" encoding="utf-8"?>
<!-- Generator: Adobe Illustrator 27.6.1, SVG Export Plug-In . SVG Version: 6.00 Build 0)  -->
<svg version="1.1" id="Layer_1" xmlns="http://www.w3.org/2000/svg" xmlns:xlink="http://www.w3.org/1999/xlink" x="0px" y="0px"
	 viewBox="0 0 1140 568" style="enable-background:new 0 0 1140 568;" xml:space="preserve">
<style type="text/css">
	.st0{clip-path:url(#SVGID_00000176035259176818877600000005841064663042062256_);}
	.st1{fill:#2A3342;}
	.st2{opacity:0.4;}
	.st3{fill:none;stroke:#333F51;}
	.st4{fill:url(#SVGID_00000042719970741773295990000009156114254188683910_);}
	.st5{filter:url(#Adobe_OpacityMaskFilter);}
	.st6{clip-path:url(#SVGID_00000103225884945002264880000017371872260877730707_);}
	
		.st7{clip-path:url(#SVGID_00000170257558517461432440000001204423915289780357_);fill:#C4C4C4;stroke:#F8BB54;stroke-width:3.8483;}
	
		.st8{clip-path:url(#SVGID_00000103225884945002264880000017371872260877730707_);mask:url(#mask0_2708_295_00000057122026220125110960000008688542398560487812_);}
	.st9{fill:none;stroke:#FFC904;stroke-width:4.3256;stroke-miterlimit:10;}
	
		.st10{clip-path:url(#SVGID_00000103225884945002264880000017371872260877730707_);fill:#C4C4C4;filter:url(#Adobe_OpacityMaskFilter_00000071553495146642706880000011242609718656144536_);stroke:#F8BB54;stroke-width:3.8483;}
	
		.st11{clip-path:url(#SVGID_00000103225884945002264880000017371872260877730707_);mask:url(#mask0_2451_13820_00000117656861799770816790000007711626618748840075_);}
	.st12{fill:none;stroke:#D33A02;stroke-width:4.3256;stroke-miterlimit:10;}
	.st13{clip-path:url(#SVGID_00000097478891029148984740000000042485398155230344_);}
	.st14{fill:#72A9BE;}
	.st15{clip-path:url(#SVGID_00000051370773909662455090000004941929467896953997_);}
	.st16{fill:#0070C0;}
</style>
<g>
	<g>
		<defs>
			<path id="SVGID_1_" d="M24,0h1092c13.3,0,24,10.7,24,24v520c0,13.3-10.7,24-24,24H24c-13.3,0-24-10.7-24-24V24
				C0,10.7,10.7,0,24,0z"/>
		</defs>
		<clipPath id="SVGID_00000109018022181586099990000007636224664970355079_">
			<use xlink:href="#SVGID_1_"  style="overflow:visible;"/>
		</clipPath>
		<g style="clip-path:url(#SVGID_00000109018022181586099990000007636224664970355079_);">
			<path class="st1" d="M24,0h1092c13.3,0,24,10.7,24,24v520c0,13.3-10.7,24-24,24H24c-13.3,0-24-10.7-24-24V24C0,10.7,10.7,0,24,0z
				"/>
			<g class="st2">
				<rect y="-356" class="st1" width="1440" height="1320"/>
				<line class="st3" x1="1464" y1="316.5" x2="-24" y2="316.5"/>
				<line class="st3" x1="1464" y1="340.5" x2="-24" y2="340.5"/>
				<line class="st3" x1="1464" y1="364.5" x2="-24" y2="364.5"/>
				<line class="st3" x1="1464" y1="388.5" x2="-24" y2="388.5"/>
				<line class="st3" x1="1464" y1="412.5" x2="-24" y2="412.5"/>
				<line class="st3" x1="1464" y1="436.5" x2="-24" y2="436.5"/>
				<line class="st3" x1="1464" y1="460.5" x2="-24" y2="460.5"/>
				<line class="st3" x1="1464" y1="484.5" x2="-24" y2="484.5"/>
				<line class="st3" x1="1464" y1="508.5" x2="-24" y2="508.5"/>
				<line class="st3" x1="1464" y1="532.5" x2="-24" y2="532.5"/>
				<line class="st3" x1="1464" y1="556.5" x2="-24" y2="556.5"/>
				<line class="st3" x1="24.5" y1="292" x2="24.5" y2="1012"/>
				<line class="st3" x1="24.5" y1="292" x2="24.5" y2="1012"/>
				<line class="st3" x1="48.5" y1="292" x2="48.5" y2="1012"/>
				<line class="st3" x1="72.5" y1="292" x2="72.5" y2="1012"/>
				<line class="st3" x1="96.5" y1="292" x2="96.5" y2="1012"/>
				<line class="st3" x1="120.5" y1="292" x2="120.5" y2="1012"/>
				<line class="st3" x1="144.5" y1="292" x2="144.5" y2="1012"/>
				<line class="st3" x1="168.5" y1="292" x2="168.5" y2="1012"/>
				<line class="st3" x1="192.5" y1="292" x2="192.5" y2="1012"/>
				<line class="st3" x1="216.5" y1="292" x2="216.5" y2="1012"/>
				<line class="st3" x1="240.5" y1="292" x2="240.5" y2="1012"/>
				<line class="st3" x1="264.5" y1="292" x2="264.5" y2="1012"/>
				<line class="st3" x1="288.5" y1="292" x2="288.5" y2="1012"/>
				<line class="st3" x1="312.5" y1="292" x2="312.5" y2="1012"/>
				<line class="st3" x1="336.5" y1="292" x2="336.5" y2="1012"/>
				<line class="st3" x1="360.5" y1="292" x2="360.5" y2="1012"/>
				<line class="st3" x1="384.5" y1="292" x2="384.5" y2="1012"/>
				<line class="st3" x1="408.5" y1="292" x2="408.5" y2="1012"/>
				<line class="st3" x1="432.5" y1="292" x2="432.5" y2="1012"/>
				<line class="st3" x1="456.5" y1="292" x2="456.5" y2="1012"/>
				<line class="st3" x1="480.5" y1="292" x2="480.5" y2="1012"/>
				<line class="st3" x1="504.5" y1="292" x2="504.5" y2="1012"/>
				<line class="st3" x1="528.5" y1="292" x2="528.5" y2="1012"/>
				<line class="st3" x1="552.5" y1="292" x2="552.5" y2="1012"/>
				<line class="st3" x1="576.5" y1="292" x2="576.5" y2="1012"/>
				<line class="st3" x1="600.5" y1="292" x2="600.5" y2="1012"/>
				<line class="st3" x1="624.5" y1="292" x2="624.5" y2="1012"/>
				<line class="st3" x1="648.5" y1="292" x2="648.5" y2="1012"/>
				<line class="st3" x1="672.5" y1="292" x2="672.5" y2="1012"/>
				<line class="st3" x1="696.5" y1="292" x2="696.5" y2="1012"/>
				<line class="st3" x1="720.5" y1="292" x2="720.5" y2="1012"/>
				<line class="st3" x1="744.5" y1="292" x2="744.5" y2="1012"/>
				<line class="st3" x1="768.5" y1="292" x2="768.5" y2="1012"/>
				<line class="st3" x1="792.5" y1="292" x2="792.5" y2="1012"/>
				<line class="st3" x1="816.5" y1="292" x2="816.5" y2="1012"/>
				<line class="st3" x1="840.5" y1="292" x2="840.5" y2="1012"/>
				<line class="st3" x1="864.5" y1="292" x2="864.5" y2="1012"/>
				<line class="st3" x1="888.5" y1="292" x2="888.5" y2="1012"/>
				<line class="st3" x1="912.5" y1="292" x2="912.5" y2="1012"/>
				<line class="st3" x1="936.5" y1="292" x2="936.5" y2="1012"/>
				<line class="st3" x1="960.5" y1="292" x2="960.5" y2="1012"/>
				<line class="st3" x1="984.5" y1="292" x2="984.5" y2="1012"/>
				<line class="st3" x1="1008.5" y1="292" x2="1008.5" y2="1012"/>
				<line class="st3" x1="1032.5" y1="292" x2="1032.5" y2="1012"/>
				<line class="st3" x1="1056.5" y1="292" x2="1056.5" y2="1012"/>
				<line class="st3" x1="1080.5" y1="292" x2="1080.5" y2="1012"/>
				<line class="st3" x1="1104.5" y1="292" x2="1104.5" y2="1012"/>
				<line class="st3" x1="1128.5" y1="292" x2="1128.5" y2="1012"/>
				<line class="st3" x1="0.5" y1="-404" x2="0.5" y2="316"/>
				<line class="st3" x1="1464" y1="4.5" x2="-24" y2="4.5"/>
				<line class="st3" x1="1464" y1="28.5" x2="-24" y2="28.5"/>
				<line class="st3" x1="1464" y1="52.5" x2="-24" y2="52.5"/>
				<line class="st3" x1="1464" y1="76.5" x2="-24" y2="76.5"/>
				<line class="st3" x1="1464" y1="100.5" x2="-24" y2="100.5"/>
				<line class="st3" x1="1464" y1="124.5" x2="-24" y2="124.5"/>
				<line class="st3" x1="1464" y1="148.5" x2="-24" y2="148.5"/>
				<line class="st3" x1="1464" y1="172.5" x2="-24" y2="172.5"/>
				<line class="st3" x1="1464" y1="196.5" x2="-24" y2="196.5"/>
				<line class="st3" x1="1464" y1="220.5" x2="-24" y2="220.5"/>
				<line class="st3" x1="1464" y1="244.5" x2="-24" y2="244.5"/>
				<line class="st3" x1="1464" y1="268.5" x2="-24" y2="268.5"/>
				<line class="st3" x1="1464" y1="292.5" x2="-24" y2="292.5"/>
				<line class="st3" x1="24.5" y1="-404" x2="24.5" y2="316"/>
				<line class="st3" x1="24.5" y1="-404" x2="24.5" y2="316"/>
				<line class="st3" x1="48.5" y1="-404" x2="48.5" y2="316"/>
				<line class="st3" x1="72.5" y1="-404" x2="72.5" y2="316"/>
				<line class="st3" x1="96.5" y1="-404" x2="96.5" y2="316"/>
				<line class="st3" x1="120.5" y1="-404" x2="120.5" y2="316"/>
				<line class="st3" x1="144.5" y1="-404" x2="144.5" y2="316"/>
				<line class="st3" x1="168.5" y1="-404" x2="168.5" y2="316"/>
				<line class="st3" x1="192.5" y1="-404" x2="192.5" y2="316"/>
				<line class="st3" x1="216.5" y1="-404" x2="216.5" y2="316"/>
				<line class="st3" x1="240.5" y1="-404" x2="240.5" y2="316"/>
				<line class="st3" x1="264.5" y1="-404" x2="264.5" y2="316"/>
				<line class="st3" x1="288.5" y1="-404" x2="288.5" y2="316"/>
				<line class="st3" x1="312.5" y1="-404" x2="312.5" y2="316"/>
				<line class="st3" x1="336.5" y1="-404" x2="336.5" y2="316"/>
				<line class="st3" x1="360.5" y1="-404" x2="360.5" y2="316"/>
				<line class="st3" x1="384.5" y1="-404" x2="384.5" y2="316"/>
				<line class="st3" x1="408.5" y1="-404" x2="408.5" y2="316"/>
				<line class="st3" x1="432.5" y1="-404" x2="432.5" y2="316"/>
				<line class="st3" x1="456.5" y1="-404" x2="456.5" y2="316"/>
				<line class="st3" x1="480.5" y1="-404" x2="480.5" y2="316"/>
				<line class="st3" x1="504.5" y1="-404" x2="504.5" y2="316"/>
				<line class="st3" x1="528.5" y1="-404" x2="528.5" y2="316"/>
				<line class="st3" x1="552.5" y1="-404" x2="552.5" y2="316"/>
				<line class="st3" x1="576.5" y1="-404" x2="576.5" y2="316"/>
				<line class="st3" x1="600.5" y1="-404" x2="600.5" y2="316"/>
				<line class="st3" x1="624.5" y1="-404" x2="624.5" y2="316"/>
				<line class="st3" x1="648.5" y1="-404" x2="648.5" y2="316"/>
				<line class="st3" x1="672.5" y1="-404" x2="672.5" y2="316"/>
				<line class="st3" x1="696.5" y1="-404" x2="696.5" y2="316"/>
				<line class="st3" x1="720.5" y1="-404" x2="720.5" y2="316"/>
				<line class="st3" x1="744.5" y1="-404" x2="744.5" y2="316"/>
				<line class="st3" x1="768.5" y1="-404" x2="768.5" y2="316"/>
				<line class="st3" x1="792.5" y1="-404" x2="792.5" y2="316"/>
				<line class="st3" x1="816.5" y1="-404" x2="816.5" y2="316"/>
				<line class="st3" x1="840.5" y1="-404" x2="840.5" y2="316"/>
				<line class="st3" x1="864.5" y1="-404" x2="864.5" y2="316"/>
				<line class="st3" x1="888.5" y1="-404" x2="888.5" y2="316"/>
				<line class="st3" x1="912.5" y1="-404" x2="912.5" y2="316"/>
				<line class="st3" x1="936.5" y1="-404" x2="936.5" y2="316"/>
				<line class="st3" x1="960.5" y1="-404" x2="960.5" y2="316"/>
				<line class="st3" x1="984.5" y1="-404" x2="984.5" y2="316"/>
				<line class="st3" x1="1008.5" y1="-404" x2="1008.5" y2="316"/>
				<line class="st3" x1="1032.5" y1="-404" x2="1032.5" y2="316"/>
				<line class="st3" x1="1056.5" y1="-404" x2="1056.5" y2="316"/>
				<line class="st3" x1="1080.5" y1="-404" x2="1080.5" y2="316"/>
				<line class="st3" x1="1104.5" y1="-404" x2="1104.5" y2="316"/>
				<line class="st3" x1="1128.5" y1="-404" x2="1128.5" y2="316"/>
			</g>
			
				<radialGradient id="SVGID_00000159434183433129472090000013895405251051589295_" cx="-223.3028" cy="-0.393" r="1" gradientTransform="matrix(1.738998e-14 284 -570 3.490244e-14 346 63702)" gradientUnits="userSpaceOnUse">
				<stop  offset="0" style="stop-color:#2A3342;stop-opacity:0"/>
				<stop  offset="1" style="stop-color:#2A3342"/>
			</radialGradient>
			<rect style="fill:url(#SVGID_00000159434183433129472090000013895405251051589295_);" width="1140" height="568"/>
		</g>
	</g>
	<g>
		<defs>
			<path id="SVGID_00000061438285623811804320000007643283959792488375_" d="M24,0h1092c13.3,0,24,10.7,24,24v520
				c0,13.3-10.7,24-24,24H24c-13.3,0-24-10.7-24-24V24C0,10.7,10.7,0,24,0z"/>
		</defs>
		<clipPath id="SVGID_00000029045584764802209230000006649394591279615109_">
			<use xlink:href="#SVGID_00000061438285623811804320000007643283959792488375_"  style="overflow:visible;"/>
		</clipPath>
		<defs>
			<filter id="Adobe_OpacityMaskFilter" filterUnits="userSpaceOnUse" x="-189.9" y="-143" width="792.4" height="454.2">
				<feColorMatrix  type="matrix" values="1 0 0 0 0  0 1 0 0 0  0 0 1 0 0  0 0 0 1 0"/>
			</filter>
		</defs>
		
			<mask maskUnits="userSpaceOnUse" x="-189.9" y="-143" width="792.4" height="454.2" id="mask0_2708_295_00000057122026220125110960000008688542398560487812_">
			<g class="st5">
				<defs>
					<path id="SVGID_00000137104144801367551070000017108297003501857722_" d="M24,0h1092c13.3,0,24,10.7,24,24v520
						c0,13.3-10.7,24-24,24H24c-13.3,0-24-10.7-24-24V24C0,10.7,10.7,0,24,0z"/>
				</defs>
				
					<clipPath id="SVGID_00000132796710275865261110000011140051160681662599_" style="clip-path:url(#SVGID_00000029045584764802209230000006649394591279615109_);">
					<use xlink:href="#SVGID_00000137104144801367551070000017108297003501857722_"  style="overflow:visible;"/>
				</clipPath>
				
					<circle style="clip-path:url(#SVGID_00000132796710275865261110000011140051160681662599_);fill:#C4C4C4;stroke:#F8BB54;stroke-width:3.8483;" cx="31" cy="45.5" r="137.6"/>
			</g>
		</mask>
		
			<g style="clip-path:url(#SVGID_00000029045584764802209230000006649394591279615109_);mask:url(#mask0_2708_295_00000057122026220125110960000008688542398560487812_);">
			<path class="st9" d="M-189.6,25.3c0,0,109.1-17.7,137.2-85.8c26.7-65,137.5-80.4,137.5-80.4"/>
			<path class="st9" d="M-189.6,45.6c0,0,123.8-19.5,155.7-96.3C-3.6-124,122-140.8,122-140.8"/>
			<path class="st9" d="M-189.6,65.9c0,0,138.5-21.4,174.1-106.9c33.9-81.5,174.4-99.8,174.4-99.8"/>
			<path class="st9" d="M-189.6,86.1c0,0,153.3-23.3,192.6-117.4C40.5-121,195.9-140.8,195.9-140.8"/>
			<path class="st9" d="M-189.6,106.4c0,0,168-25.1,211.1-128c41.1-97.8,211.3-119.2,211.3-119.2"/>
			<path class="st9" d="M-189.6,126.7c0,0,182.7-27,229.6-138.5c44.6-106.2,229.7-129,229.7-129"/>
			<path class="st9" d="M-189.6,146.9c0,0,197.4-28.8,248-149c48.2-114.4,248.2-138.7,248.2-138.7"/>
			<path class="st9" d="M-189.6,167.2c0,0,212.1-30.8,266.5-159.6C128.7-115,343.6-140.8,343.6-140.8"/>
			<path class="st9" d="M-189.6,187.4c0,0,226.8-32.6,285-170.1c55.3-130.8,285.1-158.2,285.1-158.2"/>
			<path class="st9" d="M-189.6,207.7c0,0,241.6-34.5,303.5-180.7c58.9-139,303.6-167.8,303.6-167.8"/>
			<path class="st9" d="M-189.6,228c0,0,256.3-36.4,322-191.2c62.4-147.3,322-177.6,322-177.6"/>
			<path class="st9" d="M-189.6,248.2c0,0,271-38.2,340.4-201.8c66-155.5,340.5-187.3,340.5-187.3"/>
			<path class="st9" d="M-189.6,268.5c0,0,285.7-40.1,358.9-212.3c69.6-163.7,358.9-197,358.9-197"/>
			<path class="st9" d="M-189.6,288.8c0,0,300.4-41.9,377.4-222.8C261-106,565.3-140.8,565.3-140.8"/>
			<path class="st9" d="M-189.6,309c0,0,315.1-43.9,395.9-233.4C283-104.5,602.2-140.8,602.2-140.8"/>
		</g>
		<defs>
			
				<filter id="Adobe_OpacityMaskFilter_00000181070506244500310410000012394210775734122907_" filterUnits="userSpaceOnUse" x="886.8" y="344.9" width="792.4" height="454.1">
				<feColorMatrix  type="matrix" values="1 0 0 0 0  0 1 0 0 0  0 0 1 0 0  0 0 0 1 0"/>
			</filter>
		</defs>
		
			<mask maskUnits="userSpaceOnUse" x="886.8" y="344.9" width="792.4" height="454.1" id="mask0_2451_13820_00000117656861799770816790000007711626618748840075_">
			
				<circle style="clip-path:url(#SVGID_00000029045584764802209230000006649394591279615109_);fill:#C4C4C4;filter:url(#Adobe_OpacityMaskFilter_00000181070506244500310410000012394210775734122907_);stroke:#F8BB54;stroke-width:3.8483;" cx="1107.8" cy="533.5" r="137.6"/>
		</mask>
		
			<g style="clip-path:url(#SVGID_00000029045584764802209230000006649394591279615109_);mask:url(#mask0_2451_13820_00000117656861799770816790000007711626618748840075_);">
			<path class="st12" d="M887.2,452.5c0,0,65-12,81.7-54.1c16-40.4,82.1-51.2,82.1-51.2"/>
			<path class="st12" d="M887.2,472.7c0,0,79.7-13.9,100.2-64.7c19.6-48.5,100.5-60.9,100.5-60.9"/>
			<path class="st12" d="M887.2,493c0,0,94.4-15.8,118.7-75.2c23.2-56.8,119-70.7,119-70.7"/>
			<path class="st12" d="M887.2,513.2c0,0,109.1-17.7,137.2-85.8c26.7-65,137.5-80.4,137.5-80.4"/>
			<path class="st12" d="M887.2,533.5c0,0,123.8-19.5,155.7-96.3c30.3-73.2,155.8-90.1,155.8-90.1"/>
			<path class="st12" d="M887.2,553.8c0,0,138.5-21.4,174.1-106.9c33.9-81.5,174.4-99.8,174.4-99.8"/>
			<path class="st12" d="M887.2,574c0,0,153.3-23.3,192.6-117.4c37.5-89.7,192.8-109.5,192.8-109.5"/>
			<path class="st12" d="M887.2,594.3c0,0,168-25.1,211.1-128c41.1-97.8,211.3-119.2,211.3-119.2"/>
			<path class="st12" d="M887.2,614.6c0,0,182.7-27,229.6-138.5c44.6-106.2,229.7-129,229.7-129"/>
			<path class="st12" d="M887.2,634.8c0,0,197.4-28.8,248-149c48.2-114.4,248.2-138.7,248.2-138.7"/>
			<path class="st12" d="M887.2,655.1c0,0,212.1-30.8,266.5-159.6c51.7-122.6,266.6-148.4,266.6-148.4"/>
			<path class="st12" d="M887.2,675.3c0,0,226.8-32.6,285-170.1c55.3-130.8,285.1-158.2,285.1-158.2"/>
			<path class="st12" d="M887.2,695.6c0,0,241.6-34.5,303.5-180.7c58.9-139,303.6-167.8,303.6-167.8"/>
			<path class="st12" d="M887.2,715.9c0,0,256.3-36.4,322-191.2c62.4-147.3,322-177.6,322-177.6"/>
			<path class="st12" d="M887.2,736.1c0,0,271-38.2,340.4-201.8c66-155.5,340.5-187.3,340.5-187.3"/>
			<path class="st12" d="M887.2,756.4c0,0,285.7-40.1,358.9-212.3c69.6-163.7,358.9-197,358.9-197"/>
			<path class="st12" d="M887.2,776.7c0,0,300.4-41.9,377.4-222.8c73.2-171.9,377.4-206.8,377.4-206.8"/>
			<path class="st12" d="M887.2,796.9c0,0,315.1-43.9,395.9-233.3c76.7-180.2,395.8-216.5,395.8-216.5"/>
		</g>
	</g>
</g>
<g>
	<g>
		<defs>
			<rect id="SVGID_00000153689095900696724580000013910757111068282033_" x="24" y="453" width="148.9" height="90.9"/>
		</defs>
		<clipPath id="SVGID_00000019660178096890134040000009807758532167885247_">
			<use xlink:href="#SVGID_00000153689095900696724580000013910757111068282033_"  style="overflow:visible;"/>
		</clipPath>
		<g style="clip-path:url(#SVGID_00000019660178096890134040000009807758532167885247_);">
			<path class="st14" d="M170.2,543.9c1.5,0,2.6-1.2,2.6-2.6s-1.2-2.6-2.6-2.6s-2.6,1.2-2.6,2.6S168.8,543.9,170.2,543.9z"/>
			<path class="st14" d="M146.3,543.9c1.5,0,2.6-1.2,2.6-2.6s-1.2-2.6-2.6-2.6c-1.5,0-2.6,1.2-2.6,2.6S144.9,543.9,146.3,543.9z"/>
			<path class="st14" d="M122.4,543.9c0.5,0,1-0.2,1.5-0.4c0.4-0.3,0.8-0.7,1-1.2s0.3-1,0.2-1.5c-0.1-0.5-0.4-1-0.7-1.4
				c-0.4-0.4-0.8-0.6-1.4-0.7c-0.5-0.1-1-0.1-1.5,0.1c-0.5,0.2-0.9,0.5-1.2,1c-0.3,0.4-0.4,0.9-0.4,1.5c0,0.7,0.3,1.4,0.8,1.9
				C121,543.6,121.7,543.9,122.4,543.9z"/>
			<path class="st14" d="M98.5,543.9c0.5,0,1-0.2,1.5-0.4c0.4-0.3,0.8-0.7,1-1.2s0.3-1,0.2-1.5c-0.1-0.5-0.4-1-0.7-1.4
				c-0.4-0.4-0.8-0.6-1.4-0.7c-0.5-0.1-1,0-1.5,0.2s-0.9,0.5-1.2,1c-0.3,0.4-0.4,0.9-0.4,1.5c0,0.3,0.1,0.7,0.2,1s0.3,0.6,0.6,0.9
				c0.2,0.2,0.5,0.4,0.9,0.6C97.8,543.8,98.1,543.9,98.5,543.9z"/>
			<path class="st14" d="M74.5,543.9c1.5,0,2.6-1.2,2.6-2.6s-1.2-2.6-2.6-2.6s-2.6,1.2-2.6,2.6S73.1,543.9,74.5,543.9z"/>
			<path class="st14" d="M51.6,543.6c1.3-0.6,2-2.1,1.4-3.4c-0.6-1.3-2.1-2-3.4-1.4c-1.3,0.6-2,2.1-1.4,3.4
				C48.7,543.5,50.2,544.2,51.6,543.6z"/>
			<path class="st14" d="M26.6,538.7c-0.5,0-1,0.2-1.5,0.4c-0.4,0.3-0.8,0.7-1,1.2s-0.3,1-0.2,1.5s0.4,1,0.7,1.4
				c0.4,0.4,0.8,0.6,1.4,0.7c0.5,0.1,1,0,1.5-0.2s0.9-0.5,1.2-1c0.3-0.4,0.4-1,0.4-1.5c0-0.7-0.3-1.4-0.8-1.9
				C28,538.9,27.3,538.7,26.6,538.7z"/>
			<path class="st14" d="M170.2,522.5c1.5,0,2.6-1.2,2.6-2.6s-1.2-2.6-2.6-2.6s-2.6,1.2-2.6,2.6S168.8,522.5,170.2,522.5z"/>
			<path class="st14" d="M146.3,522.5c1.5,0,2.6-1.2,2.6-2.6s-1.2-2.6-2.6-2.6c-1.5,0-2.6,1.2-2.6,2.6S144.9,522.5,146.3,522.5z"/>
			<path class="st14" d="M122.4,522.5c0.5,0,1-0.2,1.5-0.4c0.4-0.3,0.8-0.7,1-1.2s0.3-1,0.2-1.5c-0.1-0.5-0.4-1-0.7-1.4
				c-0.4-0.4-0.8-0.6-1.4-0.7c-0.5-0.1-1,0-1.5,0.2s-0.9,0.5-1.2,1c-0.3,0.4-0.4,1-0.4,1.5c0,0.7,0.3,1.4,0.8,1.9
				C121,522.2,121.7,522.5,122.4,522.5z"/>
			<path class="st14" d="M98.5,522.5c0.5,0,1-0.2,1.5-0.4c0.4-0.3,0.8-0.7,1-1.2s0.3-1,0.1-1.5c-0.1-0.5-0.4-1-0.7-1.4
				c-0.4-0.4-0.8-0.6-1.4-0.7s-1,0-1.5,0.2s-0.9,0.5-1.2,1c-0.3,0.4-0.4,1-0.4,1.5c0,0.3,0.1,0.7,0.2,1s0.3,0.6,0.6,0.9
				c0.2,0.2,0.5,0.4,0.9,0.6C97.8,522.4,98.1,522.5,98.5,522.5z"/>
			<path class="st14" d="M74.5,522.5c1.5,0,2.6-1.2,2.6-2.6s-1.2-2.6-2.6-2.6s-2.6,1.2-2.6,2.6S73.1,522.5,74.5,522.5z"/>
			<path class="st14" d="M51.6,522.2c1.3-0.6,2-2.1,1.4-3.4c-0.6-1.3-2.1-2-3.4-1.4c-1.3,0.6-2,2.1-1.4,3.4
				C48.7,522.1,50.2,522.7,51.6,522.2z"/>
			<path class="st14" d="M26.6,522.5c0.5,0,1-0.2,1.5-0.4c0.4-0.3,0.8-0.7,1-1.2s0.3-1,0.1-1.5c-0.1-0.5-0.4-1-0.7-1.4
				c-0.4-0.4-0.8-0.6-1.4-0.7c-0.5-0.1-1,0-1.5,0.2s-0.9,0.5-1.2,1c-0.3,0.4-0.4,1-0.4,1.5c0,0.3,0.1,0.7,0.2,1s0.3,0.6,0.6,0.9
				c0.2,0.2,0.5,0.4,0.9,0.6C26,522.4,26.3,522.5,26.6,522.5z"/>
			<path class="st14" d="M170.2,501.1c1.5,0,2.6-1.2,2.6-2.6c0-1.5-1.2-2.6-2.6-2.6s-2.6,1.2-2.6,2.6
				C167.6,499.9,168.8,501.1,170.2,501.1z"/>
			<path class="st14" d="M146.3,501.1c1.5,0,2.6-1.2,2.6-2.6c0-1.5-1.2-2.6-2.6-2.6c-1.5,0-2.6,1.2-2.6,2.6S144.9,501.1,146.3,501.1
				z"/>
			<path class="st14" d="M122.4,501.1c0.5,0,1-0.2,1.5-0.4c0.4-0.3,0.8-0.7,1-1.2s0.3-1,0.2-1.5c-0.1-0.5-0.4-1-0.7-1.4
				c-0.4-0.4-0.8-0.6-1.4-0.7c-0.5-0.1-1-0.1-1.5,0.1s-0.9,0.5-1.2,1c-0.3,0.4-0.4,0.9-0.4,1.5c0,0.7,0.3,1.4,0.8,1.9
				C121,500.8,121.7,501.1,122.4,501.1z"/>
			<path class="st14" d="M98.5,501.1c0.5,0,1-0.2,1.5-0.4c0.4-0.3,0.8-0.7,1-1.2s0.3-1,0.2-1.5c-0.1-0.5-0.4-1-0.7-1.4
				c-0.4-0.4-0.8-0.6-1.4-0.7c-0.5-0.1-1-0.1-1.5,0.2c-0.5,0.2-0.9,0.5-1.2,1c-0.3,0.4-0.4,0.9-0.4,1.5c0,0.3,0.1,0.7,0.2,1
				s0.3,0.6,0.6,0.9c0.2,0.2,0.5,0.4,0.9,0.6C97.8,501,98.1,501.1,98.5,501.1z"/>
			<path class="st14" d="M74.5,501.1c1.5,0,2.6-1.2,2.6-2.6c0-1.5-1.2-2.6-2.6-2.6s-2.6,1.2-2.6,2.6S73.1,501.1,74.5,501.1z"/>
			<path class="st14" d="M51.6,500.8c1.3-0.6,2-2.1,1.4-3.4s-2.1-2-3.4-1.4c-1.3,0.6-2,2.1-1.4,3.4
				C48.7,500.7,50.2,501.3,51.6,500.8z"/>
			<path class="st14" d="M26.6,501.1c0.5,0,1-0.2,1.5-0.4c0.4-0.3,0.8-0.7,1-1.2s0.3-1,0.2-1.5c-0.1-0.5-0.4-1-0.7-1.4
				c-0.4-0.4-0.8-0.6-1.4-0.7c-0.5-0.1-1-0.1-1.5,0.2c-0.5,0.2-0.9,0.5-1.2,1s-0.4,0.9-0.4,1.5c0,0.7,0.3,1.4,0.8,1.9
				S25.9,501.1,26.6,501.1z"/>
			<path class="st14" d="M170.2,479.7c1.5,0,2.6-1.2,2.6-2.6c0-1.5-1.2-2.6-2.6-2.6s-2.6,1.2-2.6,2.6
				C167.6,478.5,168.8,479.7,170.2,479.7z"/>
			<path class="st14" d="M146.3,479.7c1.5,0,2.6-1.2,2.6-2.6c0-1.5-1.2-2.6-2.6-2.6c-1.5,0-2.6,1.2-2.6,2.6S144.9,479.7,146.3,479.7
				z"/>
			<path class="st14" d="M122.4,479.7c0.5,0,1-0.2,1.5-0.4c0.4-0.3,0.8-0.7,1-1.2s0.3-1,0.2-1.5c-0.1-0.5-0.4-1-0.7-1.4
				c-0.4-0.4-0.8-0.6-1.4-0.7c-0.5-0.1-1,0-1.5,0.2s-0.9,0.5-1.2,1c-0.3,0.4-0.4,1-0.4,1.5c0,0.7,0.3,1.4,0.8,1.9
				C121,479.4,121.7,479.7,122.4,479.7z"/>
			<path class="st14" d="M98.5,479.7c0.5,0,1-0.2,1.5-0.4c0.4-0.3,0.8-0.7,1-1.2s0.3-1,0.1-1.5c-0.1-0.5-0.4-1-0.7-1.4
				c-0.4-0.4-0.8-0.6-1.4-0.7c-0.5-0.1-1,0-1.5,0.2s-0.9,0.5-1.2,1c-0.3,0.4-0.4,0.9-0.4,1.5c0,0.3,0.1,0.7,0.2,1s0.3,0.6,0.6,0.9
				c0.2,0.2,0.5,0.4,0.9,0.6C97.8,479.6,98.1,479.7,98.5,479.7z"/>
			<path class="st14" d="M74.5,479.7c1.5,0,2.6-1.2,2.6-2.6c0-1.5-1.2-2.6-2.6-2.6s-2.6,1.2-2.6,2.6S73.1,479.7,74.5,479.7z"/>
			<path class="st14" d="M51.6,479.4c1.3-0.6,2-2.1,1.4-3.4s-2.1-2-3.4-1.4c-1.3,0.6-2,2.1-1.4,3.4
				C48.7,479.3,50.2,479.9,51.6,479.4z"/>
			<path class="st14" d="M26.6,479.7c0.5,0,1-0.2,1.5-0.4c0.4-0.3,0.8-0.7,1-1.2s0.3-1,0.1-1.5c-0.1-0.5-0.4-1-0.7-1.4
				c-0.4-0.4-0.8-0.6-1.4-0.7c-0.5-0.1-1,0-1.5,0.2s-0.9,0.5-1.2,1c-0.3,0.4-0.4,0.9-0.4,1.5c0,0.3,0.1,0.7,0.2,1s0.3,0.6,0.6,0.9
				c0.2,0.2,0.5,0.4,0.9,0.6C26,479.6,26.3,479.7,26.6,479.7z"/>
			<path class="st14" d="M170.2,458.3c1.5,0,2.6-1.2,2.6-2.6c0-1.5-1.2-2.6-2.6-2.6s-2.6,1.2-2.6,2.6
				C167.6,457.1,168.8,458.3,170.2,458.3z"/>
			<path class="st14" d="M146.3,458.3c1.5,0,2.6-1.2,2.6-2.6c0-1.5-1.2-2.6-2.6-2.6c-1.5,0-2.6,1.2-2.6,2.6
				C143.7,457.1,144.9,458.3,146.3,458.3z"/>
			<path class="st14" d="M122.4,458.3c0.5,0,1-0.2,1.5-0.4c0.4-0.3,0.8-0.7,1-1.2s0.3-1,0.2-1.5c-0.1-0.5-0.4-1-0.7-1.4
				c-0.4-0.4-0.8-0.6-1.4-0.7c-0.5-0.1-1-0.1-1.5,0.1s-0.9,0.5-1.2,1c-0.3,0.4-0.4,0.9-0.4,1.5c0,0.7,0.3,1.4,0.8,1.9
				C121,458,121.7,458.3,122.4,458.3z"/>
			<path class="st14" d="M98.5,458.3c0.5,0,1-0.2,1.5-0.4c0.4-0.3,0.8-0.7,1-1.2s0.3-1,0.2-1.5c-0.1-0.5-0.4-1-0.7-1.4
				c-0.4-0.4-0.8-0.6-1.4-0.7c-0.5-0.1-1,0-1.5,0.2s-0.9,0.5-1.2,1c-0.3,0.4-0.4,0.9-0.4,1.5c0,0.3,0.1,0.7,0.2,1s0.3,0.6,0.6,0.9
				c0.2,0.2,0.5,0.4,0.9,0.6C97.8,458.2,98.1,458.3,98.5,458.3z"/>
			<path class="st14" d="M74.5,458.3c1.5,0,2.6-1.2,2.6-2.6c0-1.5-1.2-2.6-2.6-2.6s-2.6,1.2-2.6,2.6
				C71.9,457.1,73.1,458.3,74.5,458.3z"/>
			<path class="st14" d="M51.6,458c1.3-0.6,2-2.1,1.4-3.4s-2.1-2-3.4-1.4c-1.3,0.6-2,2.1-1.4,3.4C48.7,457.9,50.2,458.5,51.6,458z"
				/>
			<path class="st14" d="M26.6,458.3c0.5,0,1-0.2,1.5-0.4c0.4-0.3,0.8-0.7,1-1.2s0.3-1,0.2-1.5c-0.1-0.5-0.4-1-0.7-1.4
				c-0.4-0.4-0.8-0.6-1.4-0.7c-0.5-0.1-1,0-1.5,0.2s-0.9,0.5-1.2,1s-0.4,0.9-0.4,1.5c0,0.7,0.3,1.4,0.8,1.9
				C25.3,458,25.9,458.3,26.6,458.3z"/>
		</g>
	</g>
</g>
<g>
	<g>
		<defs>
			<rect id="SVGID_00000122702693818521090720000000998227216751551139_" x="967" y="24" width="148.9" height="90.9"/>
		</defs>
		<clipPath id="SVGID_00000110428361086118525960000015284825832074928274_">
			<use xlink:href="#SVGID_00000122702693818521090720000000998227216751551139_"  style="overflow:visible;"/>
		</clipPath>
		<g style="clip-path:url(#SVGID_00000110428361086118525960000015284825832074928274_);">
			<path class="st16" d="M1113.2,114.9c1.5,0,2.6-1.2,2.6-2.6s-1.2-2.6-2.6-2.6s-2.6,1.2-2.6,2.6S1111.8,114.9,1113.2,114.9z"/>
			<path class="st16" d="M1089.3,114.9c1.5,0,2.6-1.2,2.6-2.6s-1.2-2.6-2.6-2.6c-1.5,0-2.6,1.2-2.6,2.6S1087.8,114.9,1089.3,114.9z"
				/>
			<path class="st16" d="M1065.4,114.9c0.5,0,1-0.2,1.5-0.4c0.4-0.3,0.8-0.7,1-1.2s0.2-1,0.2-1.5s-0.3-1-0.7-1.4
				c-0.4-0.4-0.8-0.6-1.4-0.7c-0.5-0.1-1.1-0.1-1.5,0.1c-0.5,0.2-0.9,0.5-1.2,1c-0.3,0.4-0.4,0.9-0.4,1.5c0,0.7,0.3,1.4,0.8,1.9
				C1064,114.6,1064.7,114.9,1065.4,114.9z"/>
			<path class="st16" d="M1041.4,114.9c0.5,0,1-0.2,1.5-0.4c0.4-0.3,0.8-0.7,1-1.2s0.2-1,0.2-1.5c-0.1-0.5-0.4-1-0.7-1.4
				c-0.4-0.4-0.8-0.6-1.3-0.7s-1-0.1-1.5,0.2c-0.5,0.2-0.9,0.5-1.2,1c-0.3,0.4-0.4,0.9-0.4,1.5c0,0.3,0.1,0.7,0.2,1s0.3,0.6,0.6,0.9
				c0.2,0.2,0.5,0.4,0.9,0.6C1040.8,114.8,1041.1,114.9,1041.4,114.9z"/>
			<path class="st16" d="M1017.5,114.9c1.5,0,2.6-1.2,2.6-2.6s-1.2-2.6-2.6-2.6c-1.5,0-2.6,1.2-2.6,2.6S1016,114.9,1017.5,114.9z"/>
			<path class="st16" d="M994.6,114.6c1.3-0.6,2-2.1,1.4-3.4s-2.1-2-3.4-1.4c-1.3,0.6-2,2.1-1.4,3.4
				C991.7,114.5,993.2,115.2,994.6,114.6z"/>
			<path class="st16" d="M969.7,109.7c-0.5,0-1,0.2-1.5,0.4c-0.4,0.3-0.8,0.7-1,1.2s-0.3,1-0.2,1.5s0.4,1,0.7,1.4
				c0.4,0.4,0.8,0.6,1.4,0.7c0.5,0.1,1,0,1.5-0.2s0.9-0.5,1.2-1c0.3-0.4,0.4-1,0.4-1.5c0-0.7-0.3-1.4-0.8-1.9
				C971,109.9,970.3,109.7,969.7,109.7z"/>
			<path class="st16" d="M1113.2,93.5c1.5,0,2.6-1.2,2.6-2.6s-1.2-2.6-2.6-2.6s-2.6,1.2-2.6,2.6S1111.8,93.5,1113.2,93.5z"/>
			<path class="st16" d="M1089.3,93.5c1.5,0,2.6-1.2,2.6-2.6s-1.2-2.6-2.6-2.6c-1.5,0-2.6,1.2-2.6,2.6S1087.8,93.5,1089.3,93.5z"/>
			<path class="st16" d="M1065.4,93.5c0.5,0,1-0.2,1.5-0.4c0.4-0.3,0.8-0.7,1-1.2s0.2-1,0.2-1.5s-0.3-1-0.7-1.4
				c-0.4-0.4-0.8-0.6-1.4-0.7c-0.5-0.1-1,0-1.5,0.2s-0.9,0.5-1.2,1c-0.3,0.4-0.4,1-0.4,1.5c0,0.7,0.3,1.4,0.8,1.9
				C1064,93.2,1064.7,93.5,1065.4,93.5z"/>
			<path class="st16" d="M1041.4,93.5c0.5,0,1-0.2,1.5-0.4c0.4-0.3,0.8-0.7,1-1.2s0.2-1,0.2-1.5c-0.1-0.5-0.4-1-0.7-1.4
				c-0.4-0.4-0.8-0.6-1.4-0.7c-0.5-0.1-1,0-1.5,0.2s-0.9,0.5-1.2,1c-0.3,0.4-0.4,1-0.4,1.5c0,0.3,0.1,0.7,0.2,1s0.3,0.6,0.6,0.9
				c0.2,0.2,0.5,0.4,0.9,0.6C1040.8,93.4,1041.1,93.5,1041.4,93.5z"/>
			<path class="st16" d="M1017.5,93.5c1.5,0,2.6-1.2,2.6-2.6s-1.2-2.6-2.6-2.6c-1.5,0-2.6,1.2-2.6,2.6S1016,93.5,1017.5,93.5z"/>
			<path class="st16" d="M994.6,93.2c1.3-0.6,2-2.1,1.4-3.4s-2.1-2-3.4-1.4c-1.3,0.6-2,2.1-1.4,3.4
				C991.7,93.1,993.2,93.7,994.6,93.2z"/>
			<path class="st16" d="M969.7,93.5c0.5,0,1-0.2,1.5-0.4c0.4-0.3,0.8-0.7,1-1.2s0.3-1,0.1-1.5c-0.1-0.5-0.4-1-0.7-1.4
				c-0.4-0.4-0.8-0.6-1.4-0.7c-0.5-0.1-1,0-1.5,0.2s-0.9,0.5-1.2,1c-0.3,0.4-0.4,1-0.4,1.5c0,0.3,0.1,0.7,0.2,1
				c0.1,0.3,0.3,0.6,0.6,0.9c0.2,0.2,0.5,0.4,0.9,0.6C969,93.4,969.3,93.5,969.7,93.5z"/>
			<path class="st16" d="M1113.2,72.1c1.5,0,2.6-1.2,2.6-2.6s-1.2-2.6-2.6-2.6s-2.6,1.2-2.6,2.6S1111.8,72.1,1113.2,72.1z"/>
			<path class="st16" d="M1089.3,72.1c1.5,0,2.6-1.2,2.6-2.6s-1.2-2.6-2.6-2.6c-1.5,0-2.6,1.2-2.6,2.6S1087.8,72.1,1089.3,72.1z"/>
			<path class="st16" d="M1065.4,72.1c0.5,0,1-0.2,1.5-0.4c0.4-0.3,0.8-0.7,1-1.2s0.2-1,0.2-1.5s-0.3-1-0.7-1.4
				c-0.4-0.4-0.8-0.6-1.4-0.7c-0.5-0.1-1.1-0.1-1.5,0.1c-0.5,0.2-0.9,0.5-1.2,1c-0.3,0.4-0.4,0.9-0.4,1.5c0,0.7,0.3,1.4,0.8,1.9
				C1064,71.8,1064.7,72.1,1065.4,72.1z"/>
			<path class="st16" d="M1041.4,72.1c0.5,0,1-0.2,1.5-0.4c0.4-0.3,0.8-0.7,1-1.2s0.2-1,0.2-1.5c-0.1-0.5-0.4-1-0.7-1.4
				c-0.4-0.4-0.8-0.6-1.3-0.7s-1,0-1.5,0.2s-0.9,0.5-1.2,1s-0.4,0.9-0.4,1.5c0,0.3,0.1,0.7,0.2,1s0.3,0.6,0.6,0.9
				c0.2,0.2,0.5,0.4,0.9,0.6C1040.8,72,1041.1,72.1,1041.4,72.1z"/>
			<path class="st16" d="M1017.5,72.1c1.5,0,2.6-1.2,2.6-2.6s-1.2-2.6-2.6-2.6c-1.5,0-2.6,1.2-2.6,2.6S1016,72.1,1017.5,72.1z"/>
			<path class="st16" d="M994.6,71.8c1.3-0.6,2-2.1,1.4-3.4s-2.1-2-3.4-1.4c-1.3,0.6-2,2.1-1.4,3.4
				C991.7,71.7,993.2,72.3,994.6,71.8z"/>
			<path class="st16" d="M969.7,72.1c0.5,0,1-0.2,1.5-0.4c0.4-0.3,0.8-0.7,1-1.2s0.3-1,0.2-1.5s-0.4-1-0.7-1.4
				c-0.4-0.4-0.8-0.6-1.4-0.7c-0.5-0.1-1,0-1.5,0.2s-0.9,0.5-1.2,1c-0.3,0.4-0.4,0.9-0.4,1.5c0,0.7,0.3,1.4,0.8,1.9
				C968.3,71.8,968.9,72.1,969.7,72.1z"/>
			<path class="st16" d="M1113.2,50.7c1.5,0,2.6-1.2,2.6-2.6s-1.2-2.6-2.6-2.6s-2.6,1.2-2.6,2.6S1111.8,50.7,1113.2,50.7z"/>
			<path class="st16" d="M1089.3,50.7c1.5,0,2.6-1.2,2.6-2.6s-1.2-2.6-2.6-2.6c-1.5,0-2.6,1.2-2.6,2.6S1087.8,50.7,1089.3,50.7z"/>
			<path class="st16" d="M1065.4,50.7c0.5,0,1-0.2,1.5-0.4c0.4-0.3,0.8-0.7,1-1.2s0.2-1,0.2-1.5c-0.1-0.5-0.3-1-0.7-1.4
				c-0.4-0.4-0.8-0.6-1.4-0.7c-0.5-0.1-1,0-1.5,0.2s-0.9,0.5-1.2,1c-0.3,0.4-0.4,1-0.4,1.5c0,0.7,0.3,1.4,0.8,1.9
				C1064,50.4,1064.7,50.7,1065.4,50.7z"/>
			<path class="st16" d="M1041.4,50.7c0.5,0,1-0.2,1.5-0.4c0.4-0.3,0.8-0.7,1-1.2s0.2-1,0.2-1.5c-0.1-0.5-0.4-1-0.7-1.4
				c-0.4-0.4-0.8-0.6-1.4-0.7c-0.5-0.1-1,0-1.5,0.2s-0.9,0.5-1.2,1c-0.3,0.4-0.4,1-0.4,1.5c0,0.3,0.1,0.7,0.2,1s0.3,0.6,0.6,0.9
				c0.2,0.2,0.5,0.4,0.9,0.6C1040.8,50.6,1041.1,50.7,1041.4,50.7z"/>
			<path class="st16" d="M1017.5,50.7c1.5,0,2.6-1.2,2.6-2.6s-1.2-2.6-2.6-2.6c-1.5,0-2.6,1.2-2.6,2.6S1016,50.7,1017.5,50.7z"/>
			<path class="st16" d="M994.6,50.4c1.3-0.6,2-2.1,1.4-3.4c-0.6-1.3-2.1-2-3.4-1.4c-1.3,0.6-2,2.1-1.4,3.4
				C991.7,50.3,993.2,50.9,994.6,50.4z"/>
			<path class="st16" d="M969.7,50.7c0.5,0,1-0.2,1.5-0.4c0.4-0.3,0.8-0.7,1-1.2s0.3-1,0.1-1.5c-0.1-0.5-0.4-1-0.7-1.4
				c-0.4-0.4-0.8-0.6-1.4-0.7c-0.5-0.1-1,0-1.5,0.2s-0.9,0.5-1.2,1c-0.3,0.4-0.4,1-0.4,1.5c0,0.3,0.1,0.7,0.2,1
				c0.1,0.3,0.3,0.6,0.6,0.9c0.2,0.2,0.5,0.4,0.9,0.6C969,50.6,969.3,50.7,969.7,50.7z"/>
			<path class="st16" d="M1113.2,29.3c1.5,0,2.6-1.2,2.6-2.6s-1.2-2.6-2.6-2.6s-2.6,1.2-2.6,2.6S1111.8,29.3,1113.2,29.3z"/>
			<path class="st16" d="M1089.3,29.3c1.5,0,2.6-1.2,2.6-2.6s-1.2-2.6-2.6-2.6c-1.5,0-2.6,1.2-2.6,2.6S1087.8,29.3,1089.3,29.3z"/>
			<path class="st16" d="M1065.4,29.3c0.5,0,1-0.2,1.5-0.4c0.4-0.3,0.8-0.7,1-1.2s0.2-1,0.2-1.5s-0.3-1-0.7-1.4
				c-0.4-0.4-0.8-0.6-1.4-0.7c-0.5-0.1-1.1-0.1-1.5,0.1c-0.5,0.2-0.9,0.5-1.2,1c-0.3,0.4-0.4,0.9-0.4,1.5c0,0.7,0.3,1.4,0.8,1.9
				C1064,29,1064.7,29.3,1065.4,29.3z"/>
			<path class="st16" d="M1041.4,29.3c0.5,0,1-0.2,1.5-0.4c0.4-0.3,0.8-0.7,1-1.2s0.2-1,0.2-1.5c-0.1-0.5-0.4-1-0.7-1.4
				c-0.4-0.4-0.8-0.6-1.3-0.7s-1,0-1.5,0.2s-0.9,0.5-1.2,1c-0.3,0.4-0.4,0.9-0.4,1.5c0,0.3,0.1,0.7,0.2,1s0.3,0.6,0.6,0.9
				c0.2,0.2,0.5,0.4,0.9,0.6C1040.8,29.2,1041.1,29.3,1041.4,29.3z"/>
			<path class="st16" d="M1017.5,29.3c1.5,0,2.6-1.2,2.6-2.6s-1.2-2.6-2.6-2.6c-1.5,0-2.6,1.2-2.6,2.6S1016,29.3,1017.5,29.3z"/>
			<path class="st16" d="M994.6,29c1.3-0.6,2-2.1,1.4-3.4s-2.1-2-3.4-1.4c-1.3,0.6-2,2.1-1.4,3.4C991.7,28.9,993.2,29.5,994.6,29z"
				/>
			<path class="st16" d="M969.7,29.3c0.5,0,1-0.2,1.5-0.4c0.4-0.3,0.8-0.7,1-1.2s0.3-1,0.2-1.5s-0.4-1-0.7-1.4
				c-0.4-0.4-0.8-0.6-1.4-0.7c-0.5-0.1-1,0-1.5,0.2s-0.9,0.5-1.2,1c-0.3,0.4-0.4,0.9-0.4,1.5c0,0.7,0.3,1.4,0.8,1.9
				C968.3,29,968.9,29.3,969.7,29.3z"/>
		</g>
	</g>
</g>
</svg>
