<svg width="516" height="568" viewBox="0 0 516 568" fill="none" xmlns="http://www.w3.org/2000/svg">
<g clip-path="url(#clip0_2763_3254)">
<rect width="516" height="568" rx="24" fill="#2A3342"/>
<g opacity="0.4">
<rect width="527" height="588" transform="translate(0 -20)" fill="#2A3342"/>
<line x1="0.5" y1="-68" x2="0.499969" y2="652" stroke="#333F51"/>
<line x1="1464" y1="4.5" x2="-24" y2="4.5" stroke="#333F51"/>
<line x1="1464" y1="28.5" x2="-24" y2="28.5" stroke="#333F51"/>
<line x1="1464" y1="52.5" x2="-24" y2="52.5" stroke="#333F51"/>
<line x1="1464" y1="76.5" x2="-24" y2="76.5" stroke="#333F51"/>
<line x1="1464" y1="100.5" x2="-24" y2="100.5" stroke="#333F51"/>
<line x1="1464" y1="124.5" x2="-24" y2="124.5" stroke="#333F51"/>
<line x1="1464" y1="148.5" x2="-24" y2="148.5" stroke="#333F51"/>
<line x1="1464" y1="172.5" x2="-24" y2="172.5" stroke="#333F51"/>
<line x1="1464" y1="196.5" x2="-24" y2="196.5" stroke="#333F51"/>
<line x1="1464" y1="220.5" x2="-24" y2="220.5" stroke="#333F51"/>
<line x1="1464" y1="244.5" x2="-24" y2="244.5" stroke="#333F51"/>
<line x1="1464" y1="268.5" x2="-24" y2="268.5" stroke="#333F51"/>
<line x1="1464" y1="292.5" x2="-24" y2="292.5" stroke="#333F51"/>
<line x1="1464" y1="316.5" x2="-24" y2="316.5" stroke="#333F51"/>
<line x1="1464" y1="340.5" x2="-24" y2="340.5" stroke="#333F51"/>
<line x1="1464" y1="364.5" x2="-24" y2="364.5" stroke="#333F51"/>
<line x1="1464" y1="388.5" x2="-24" y2="388.5" stroke="#333F51"/>
<line x1="1464" y1="412.5" x2="-24" y2="412.5" stroke="#333F51"/>
<line x1="1464" y1="436.5" x2="-24" y2="436.5" stroke="#333F51"/>
<line x1="1464" y1="460.5" x2="-24" y2="460.5" stroke="#333F51"/>
<line x1="1464" y1="484.5" x2="-24" y2="484.5" stroke="#333F51"/>
<line x1="1464" y1="508.5" x2="-24" y2="508.5" stroke="#333F51"/>
<line x1="1464" y1="532.5" x2="-24" y2="532.5" stroke="#333F51"/>
<line x1="1464" y1="556.5" x2="-24" y2="556.5" stroke="#333F51"/>
<line x1="24.5" y1="-68" x2="24.5" y2="652" stroke="#333F51"/>
<line x1="24.5" y1="-68" x2="24.5" y2="652" stroke="#333F51"/>
<line x1="48.5" y1="-68" x2="48.5" y2="652" stroke="#333F51"/>
<line x1="72.5" y1="-68" x2="72.5" y2="652" stroke="#333F51"/>
<line x1="96.5" y1="-68" x2="96.5" y2="652" stroke="#333F51"/>
<line x1="120.5" y1="-68" x2="120.5" y2="652" stroke="#333F51"/>
<line x1="144.5" y1="-68" x2="144.5" y2="652" stroke="#333F51"/>
<line x1="168.5" y1="-68" x2="168.5" y2="652" stroke="#333F51"/>
<line x1="192.5" y1="-68" x2="192.5" y2="652" stroke="#333F51"/>
<line x1="216.5" y1="-68" x2="216.5" y2="652" stroke="#333F51"/>
<line x1="240.5" y1="-68" x2="240.5" y2="652" stroke="#333F51"/>
<line x1="264.5" y1="-68" x2="264.5" y2="652" stroke="#333F51"/>
<line x1="288.5" y1="-68" x2="288.5" y2="652" stroke="#333F51"/>
<line x1="312.5" y1="-68" x2="312.5" y2="652" stroke="#333F51"/>
<line x1="336.5" y1="-68" x2="336.5" y2="652" stroke="#333F51"/>
<line x1="360.5" y1="-68" x2="360.5" y2="652" stroke="#333F51"/>
<line x1="384.5" y1="-68" x2="384.5" y2="652" stroke="#333F51"/>
<line x1="408.5" y1="-68" x2="408.5" y2="652" stroke="#333F51"/>
<line x1="432.5" y1="-68" x2="432.5" y2="652" stroke="#333F51"/>
<line x1="456.5" y1="-68" x2="456.5" y2="652" stroke="#333F51"/>
<line x1="480.5" y1="-68" x2="480.5" y2="652" stroke="#333F51"/>
<line x1="504.5" y1="-68" x2="504.5" y2="652" stroke="#333F51"/>
</g>
<rect x="-0.382812" width="552" height="568" fill="url(#paint0_radial_2763_3254)"/>
<mask id="mask0_2763_3254" style="mask-type:alpha" maskUnits="userSpaceOnUse" x="432" y="440" width="279" height="279">
<circle cx="571.5" cy="579.5" r="137.576" fill="#C4C4C4" stroke="#F8BB54" stroke-width="3.84828"/>
</mask>
<g mask="url(#mask0_2763_3254)">
<path d="M395.387 473.131C395.387 473.131 424.724 466.317 432.293 442.466C439.532 419.603 469.351 413.457 469.351 413.457" stroke="#D33A02" stroke-width="4.32558" stroke-miterlimit="10"/>
<path d="M395.387 484.594C395.387 484.594 431.378 476.729 440.649 447.943C449.488 420.463 486.038 413.457 486.038 413.457" stroke="#D33A02" stroke-width="4.32558" stroke-miterlimit="10"/>
<path d="M395.387 496.09C395.387 496.09 438.008 487.142 448.98 453.484C459.445 421.291 502.726 413.457 502.726 413.457" stroke="#D33A02" stroke-width="4.32558" stroke-miterlimit="10"/>
<path d="M395.387 507.553C395.387 507.553 444.662 497.555 457.337 458.961C469.402 422.15 519.414 413.457 519.414 413.457" stroke="#D33A02" stroke-width="4.32558" stroke-miterlimit="10"/>
<path d="M395.387 519.017C395.387 519.017 451.317 507.967 465.693 464.47C479.358 423.01 536.076 413.457 536.076 413.457" stroke="#D33A02" stroke-width="4.32558" stroke-miterlimit="10"/>
<path d="M395.387 530.512C395.387 530.512 457.946 518.412 474.024 469.978C489.34 423.838 552.763 413.457 552.763 413.457" stroke="#D33A02" stroke-width="4.32558" stroke-miterlimit="10"/>
<path d="M395.387 541.975C395.387 541.975 464.601 528.792 482.381 475.487C499.297 424.698 569.451 413.457 569.451 413.457" stroke="#D33A02" stroke-width="4.32558" stroke-miterlimit="10"/>
<path d="M395.387 553.439C395.387 553.439 471.256 539.205 490.712 480.964C509.254 425.558 586.138 413.457 586.138 413.457" stroke="#D33A02" stroke-width="4.32558" stroke-miterlimit="10"/>
<path d="M395.387 564.934C395.387 564.934 477.885 549.65 499.068 486.505C519.21 426.385 602.801 413.457 602.801 413.457" stroke="#D33A02" stroke-width="4.32558" stroke-miterlimit="10"/>
<path d="M395.387 576.397C395.387 576.397 484.54 560.062 507.4 492.014C529.167 427.245 619.488 413.457 619.488 413.457" stroke="#D33A02" stroke-width="4.32558" stroke-miterlimit="10"/>
<path d="M395.387 587.892C395.387 587.892 491.195 570.475 515.756 497.523C539.124 428.105 636.176 413.457 636.176 413.457" stroke="#D33A02" stroke-width="4.32558" stroke-miterlimit="10"/>
<path d="M395.387 599.357C395.387 599.357 497.824 580.888 524.087 503.032C549.08 428.933 652.863 413.457 652.863 413.457" stroke="#D33A02" stroke-width="4.32558" stroke-miterlimit="10"/>
<path d="M395.387 610.819C395.387 610.819 504.479 591.3 532.444 508.508C559.037 429.793 669.55 413.457 669.55 413.457" stroke="#D33A02" stroke-width="4.32558" stroke-miterlimit="10"/>
<path d="M395.387 622.314C395.387 622.314 511.133 601.713 540.8 514.049C568.994 430.653 686.213 413.457 686.213 413.457" stroke="#D33A02" stroke-width="4.32558" stroke-miterlimit="10"/>
<path d="M395.387 633.779C395.387 633.779 517.763 612.126 549.131 519.526C578.95 431.48 702.901 413.457 702.901 413.457" stroke="#D33A02" stroke-width="4.32558" stroke-miterlimit="10"/>
<path d="M395.387 645.243C395.387 645.243 524.417 622.538 557.488 525.035C588.907 432.34 719.588 413.457 719.588 413.457" stroke="#D33A02" stroke-width="4.32558" stroke-miterlimit="10"/>
<path d="M395.387 656.739C395.387 656.739 531.072 632.982 565.819 530.544C598.864 433.2 736.276 413.457 736.276 413.457" stroke="#D33A02" stroke-width="4.32558" stroke-miterlimit="10"/>
<path d="M395.387 668.201C395.387 668.201 537.701 643.364 574.175 536.053C608.82 434.028 752.938 413.457 752.938 413.457" stroke="#D33A02" stroke-width="4.32558" stroke-miterlimit="10"/>
</g>
<g clip-path="url(#clip1_2763_3254)">
<path d="M509.631 87C510.591 87 511.369 86.1679 511.369 85.1415C511.369 84.115 510.591 83.2829 509.631 83.2829C508.672 83.2829 507.894 84.115 507.894 85.1415C507.894 86.1679 508.672 87 509.631 87Z" fill="#0070C0"/>
<path d="M493.781 87C494.126 87.0014 494.464 86.8932 494.752 86.6891C495.04 86.4849 495.264 86.194 495.397 85.8532C495.53 85.5125 495.566 85.1372 495.499 84.7748C495.433 84.4125 495.267 84.0794 495.023 83.8178C494.78 83.5562 494.469 83.3778 494.13 83.3052C493.792 83.2327 493.441 83.2692 493.122 83.4102C492.803 83.5512 492.53 83.7903 492.338 84.0972C492.146 84.4042 492.043 84.7651 492.043 85.1344C492.043 85.628 492.226 86.1014 492.552 86.4511C492.878 86.8008 493.32 86.9981 493.781 87V87Z" fill="#0070C0"/>
<path d="M477.938 87C478.283 87 478.62 86.8906 478.907 86.6856C479.194 86.4806 479.418 86.1893 479.55 85.8484C479.682 85.5075 479.716 85.1324 479.649 84.7705C479.581 84.4086 479.415 84.0762 479.171 83.8153C478.927 83.5544 478.617 83.3767 478.278 83.3047C477.94 83.2327 477.589 83.2697 477.271 83.4109C476.952 83.5521 476.679 83.7912 476.488 84.098C476.296 84.4048 476.194 84.7654 476.194 85.1344C476.194 85.3794 476.239 85.622 476.327 85.8484C476.414 86.0747 476.543 86.2803 476.705 86.4536C476.867 86.6268 477.059 86.7643 477.271 86.858C477.482 86.9518 477.709 87 477.938 87V87Z" fill="#0070C0"/>
<path d="M462.095 87C463.055 87 463.833 86.1679 463.833 85.1415C463.833 84.115 463.055 83.2829 462.095 83.2829C461.135 83.2829 460.357 84.115 460.357 85.1415C460.357 86.1679 461.135 87 462.095 87Z" fill="#0070C0"/>
<path d="M446.389 86.7786C447.277 86.3883 447.7 85.3023 447.335 84.3529C446.971 83.4036 445.955 82.9505 445.068 83.3408C444.18 83.7311 443.756 84.8171 444.121 85.7664C444.486 86.7157 445.502 87.1689 446.389 86.7786Z" fill="#0070C0"/>
<path d="M429.362 83.304C429.016 83.3027 428.678 83.4111 428.39 83.6155C428.102 83.82 427.878 84.1113 427.745 84.4525C427.612 84.7936 427.577 85.1693 427.644 85.5319C427.711 85.8944 427.877 86.2274 428.122 86.4888C428.366 86.7501 428.677 86.9279 429.016 86.9997C429.355 87.0714 429.707 87.0339 430.026 86.8918C430.345 86.7497 430.617 86.5096 430.808 86.2017C430.999 85.8938 431.101 85.5322 431.099 85.1626C431.098 84.6703 430.914 84.1986 430.588 83.8504C430.263 83.5023 429.822 83.3059 429.362 83.304V83.304Z" fill="#0070C0"/>
<path d="M509.638 71.9275C510.598 71.9275 511.376 71.0954 511.376 70.069C511.376 69.0425 510.598 68.2104 509.638 68.2104C508.678 68.2104 507.9 69.0425 507.9 70.069C507.9 71.0954 508.678 71.9275 509.638 71.9275Z" fill="#0070C0"/>
<path d="M493.788 71.9275C494.134 71.9289 494.472 71.8205 494.76 71.6161C495.047 71.4116 495.272 71.1203 495.405 70.7791C495.538 70.438 495.573 70.0623 495.506 69.6997C495.439 69.3372 495.272 69.0041 495.028 68.7428C494.784 68.4815 494.472 68.3036 494.133 68.2319C493.794 68.1601 493.443 68.1977 493.124 68.3397C492.805 68.4818 492.533 68.722 492.342 69.0299C492.15 69.3378 492.049 69.6994 492.05 70.069C492.052 70.5613 492.236 71.033 492.561 71.3811C492.887 71.7293 493.328 71.9257 493.788 71.9275V71.9275Z" fill="#0070C0"/>
<path d="M477.945 71.9275C478.29 71.9275 478.628 71.8179 478.915 71.6126C479.202 71.4073 479.425 71.1155 479.557 70.7742C479.689 70.4329 479.723 70.0575 479.655 69.6954C479.587 69.3333 479.421 69.0009 479.176 68.7403C478.931 68.4797 478.62 68.3026 478.281 68.2314C477.942 68.1602 477.591 68.1981 477.273 68.3404C476.954 68.4827 476.682 68.7229 476.491 69.0306C476.301 69.3383 476.199 69.6997 476.201 70.069C476.201 70.3137 476.246 70.5559 476.334 70.7818C476.421 71.0078 476.55 71.213 476.712 71.3857C476.874 71.5583 477.066 71.6951 477.278 71.7881C477.489 71.8811 477.716 71.9285 477.945 71.9275V71.9275Z" fill="#0070C0"/>
<path d="M462.102 71.9275C463.062 71.9275 463.84 71.0954 463.84 70.069C463.84 69.0425 463.062 68.2104 462.102 68.2104C461.142 68.2104 460.364 69.0425 460.364 70.069C460.364 71.0954 461.142 71.9275 462.102 71.9275Z" fill="#0070C0"/>
<path d="M446.396 71.7115C447.284 71.3212 447.707 70.2352 447.342 69.2858C446.977 68.3365 445.962 67.8833 445.074 68.2736C444.187 68.664 443.763 69.75 444.128 70.6993C444.493 71.6486 445.508 72.1018 446.396 71.7115Z" fill="#0070C0"/>
<path d="M429.361 71.9275C429.707 71.9275 430.044 71.8179 430.331 71.6126C430.618 71.4073 430.842 71.1155 430.974 70.7742C431.105 70.4329 431.14 70.0575 431.072 69.6954C431.004 69.3333 430.837 69.0009 430.592 68.7403C430.348 68.4797 430.036 68.3026 429.698 68.2314C429.359 68.1602 429.008 68.1981 428.689 68.3404C428.371 68.4827 428.099 68.7229 427.908 69.0306C427.717 69.3383 427.616 69.6997 427.617 70.069C427.617 70.3137 427.662 70.5559 427.75 70.7818C427.838 71.0078 427.966 71.213 428.129 71.3857C428.291 71.5583 428.483 71.6951 428.694 71.7881C428.906 71.8811 429.133 71.9285 429.361 71.9275Z" fill="#0070C0"/>
<path d="M509.638 56.855C510.598 56.855 511.376 56.0229 511.376 54.9965C511.376 53.97 510.598 53.1379 509.638 53.1379C508.678 53.1379 507.9 53.97 507.9 54.9965C507.9 56.0229 508.678 56.855 509.638 56.855Z" fill="#0070C0"/>
<path d="M493.788 56.8621C494.133 56.8635 494.471 56.7553 494.759 56.5511C495.047 56.347 495.271 56.0561 495.404 55.7153C495.537 55.3745 495.573 54.9992 495.506 54.6369C495.44 54.2745 495.274 53.9414 495.03 53.6798C494.787 53.4182 494.476 53.2398 494.137 53.1673C493.799 53.0947 493.448 53.1312 493.129 53.2722C492.81 53.4132 492.537 53.6524 492.345 53.9593C492.153 54.2662 492.05 54.6272 492.05 54.9965C492.05 55.49 492.233 55.9635 492.559 56.3132C492.885 56.6628 493.327 56.8602 493.788 56.8621V56.8621Z" fill="#0070C0"/>
<path d="M477.945 56.8621C478.29 56.8621 478.627 56.7527 478.914 56.5477C479.201 56.3427 479.424 56.0513 479.556 55.7104C479.688 55.3695 479.723 54.9944 479.656 54.6325C479.588 54.2706 479.422 53.9382 479.178 53.6773C478.934 53.4164 478.624 53.2387 478.285 53.1667C477.947 53.0948 477.596 53.1317 477.277 53.2729C476.959 53.4141 476.686 53.6532 476.495 53.96C476.303 54.2668 476.201 54.6275 476.201 54.9965C476.201 55.2415 476.246 55.4841 476.333 55.7104C476.421 55.9368 476.55 56.1424 476.712 56.3156C476.873 56.4889 477.066 56.6263 477.277 56.7201C477.489 56.8138 477.716 56.8621 477.945 56.8621V56.8621Z" fill="#0070C0"/>
<path d="M462.102 56.855C463.062 56.855 463.84 56.0229 463.84 54.9965C463.84 53.97 463.062 53.1379 462.102 53.1379C461.142 53.1379 460.364 53.97 460.364 54.9965C460.364 56.0229 461.142 56.855 462.102 56.855Z" fill="#0070C0"/>
<path d="M446.396 56.6449C447.284 56.2545 447.707 55.1685 447.342 54.2192C446.977 53.2699 445.962 52.8167 445.074 53.207C444.187 53.5974 443.763 54.6833 444.128 55.6327C444.493 56.582 445.508 57.0352 446.396 56.6449Z" fill="#0070C0"/>
<path d="M429.361 56.8621C429.706 56.8621 430.044 56.7527 430.331 56.5477C430.617 56.3427 430.841 56.0513 430.973 55.7104C431.105 55.3695 431.139 54.9944 431.072 54.6325C431.005 54.2706 430.839 53.9382 430.595 53.6773C430.351 53.4164 430.04 53.2387 429.702 53.1667C429.363 53.0948 429.013 53.1317 428.694 53.2729C428.375 53.4141 428.103 53.6532 427.911 53.96C427.72 54.2668 427.617 54.6275 427.617 54.9965C427.617 55.4913 427.801 55.9658 428.128 56.3156C428.455 56.6655 428.899 56.8621 429.361 56.8621V56.8621Z" fill="#0070C0"/>
<path d="M509.638 41.7896C510.598 41.7896 511.376 40.9575 511.376 39.931C511.376 38.9046 510.598 38.0725 509.638 38.0725C508.678 38.0725 507.9 38.9046 507.9 39.931C507.9 40.9575 508.678 41.7896 509.638 41.7896Z" fill="#0070C0"/>
<path d="M493.788 41.7685C494.134 41.7699 494.472 41.6614 494.76 41.457C495.047 41.2525 495.272 40.9612 495.405 40.62C495.538 40.2789 495.573 39.9032 495.506 39.5406C495.439 39.1781 495.272 38.8451 495.028 38.5837C494.784 38.3224 494.472 38.1446 494.133 38.0728C493.794 38.001 493.443 38.0386 493.124 38.1806C492.805 38.3227 492.533 38.5629 492.342 38.8708C492.15 39.1787 492.049 39.5403 492.05 39.9099C492.052 40.4023 492.236 40.8739 492.561 41.2221C492.887 41.5702 493.328 41.7666 493.788 41.7685V41.7685Z" fill="#0070C0"/>
<path d="M477.945 41.7685C478.29 41.7685 478.628 41.6589 478.915 41.4535C479.202 41.2482 479.425 40.9565 479.557 40.6152C479.689 40.2739 479.723 39.8984 479.655 39.5363C479.587 39.1743 479.421 38.8419 479.176 38.5812C478.931 38.3206 478.62 38.1435 478.281 38.0723C477.942 38.0011 477.591 38.0391 477.273 38.1813C476.954 38.3236 476.682 38.5638 476.491 38.8715C476.301 39.1793 476.199 39.5406 476.201 39.9099C476.201 40.1546 476.246 40.3968 476.334 40.6228C476.421 40.8487 476.55 41.0539 476.712 41.2266C476.874 41.3993 477.066 41.536 477.278 41.629C477.489 41.722 477.716 41.7694 477.945 41.7685V41.7685Z" fill="#0070C0"/>
<path d="M462.102 41.7896C463.062 41.7896 463.84 40.9575 463.84 39.931C463.84 38.9046 463.062 38.0725 462.102 38.0725C461.142 38.0725 460.364 38.9046 460.364 39.931C460.364 40.9575 461.142 41.7896 462.102 41.7896Z" fill="#0070C0"/>
<path d="M446.396 41.5778C447.284 41.1874 447.707 40.1014 447.342 39.1521C446.977 38.2028 445.962 37.7496 445.074 38.1399C444.187 38.5302 443.763 39.6162 444.128 40.5656C444.493 41.5149 445.508 41.9681 446.396 41.5778Z" fill="#0070C0"/>
<path d="M429.361 41.7685C429.707 41.7685 430.044 41.6589 430.331 41.4535C430.618 41.2482 430.842 40.9565 430.974 40.6152C431.105 40.2739 431.14 39.8984 431.072 39.5363C431.004 39.1743 430.837 38.8419 430.592 38.5812C430.348 38.3206 430.036 38.1435 429.698 38.0723C429.359 38.0011 429.008 38.0391 428.689 38.1813C428.371 38.3236 428.099 38.5638 427.908 38.8715C427.717 39.1793 427.616 39.5406 427.617 39.9099C427.617 40.1546 427.662 40.3968 427.75 40.6228C427.838 40.8487 427.966 41.0539 428.129 41.2266C428.291 41.3993 428.483 41.536 428.694 41.629C428.906 41.722 429.133 41.7694 429.361 41.7685V41.7685Z" fill="#0070C0"/>
<path d="M509.638 26.7171C510.598 26.7171 511.376 25.885 511.376 24.8585C511.376 23.8321 510.598 23 509.638 23C508.678 23 507.9 23.8321 507.9 24.8585C507.9 25.885 508.678 26.7171 509.638 26.7171Z" fill="#0070C0"/>
<path d="M493.788 26.7241C494.133 26.7255 494.471 26.6173 494.759 26.4132C495.047 26.209 495.271 25.9181 495.404 25.5774C495.537 25.2366 495.573 24.8613 495.506 24.4989C495.44 24.1366 495.274 23.8035 495.03 23.5419C494.787 23.2803 494.476 23.1019 494.137 23.0293C493.799 22.9568 493.448 22.9933 493.129 23.1343C492.81 23.2753 492.537 23.5144 492.345 23.8214C492.153 24.1283 492.05 24.4893 492.05 24.8585C492.05 25.3521 492.233 25.8256 492.559 26.1752C492.885 26.5249 493.327 26.7223 493.788 26.7241V26.7241Z" fill="#0070C0"/>
<path d="M477.945 26.7241C478.29 26.7241 478.627 26.6147 478.914 26.4097C479.201 26.2048 479.424 25.9134 479.556 25.5725C479.688 25.2316 479.723 24.8565 479.656 24.4946C479.588 24.1327 479.422 23.8003 479.178 23.5394C478.934 23.2785 478.624 23.1008 478.285 23.0288C477.947 22.9568 477.596 22.9938 477.277 23.135C476.959 23.2762 476.686 23.5153 476.495 23.8221C476.303 24.1289 476.201 24.4896 476.201 24.8585C476.201 25.1035 476.246 25.3462 476.333 25.5725C476.421 25.7988 476.55 26.0045 476.712 26.1777C476.873 26.351 477.066 26.4884 477.277 26.5821C477.489 26.6759 477.716 26.7241 477.945 26.7241V26.7241Z" fill="#0070C0"/>
<path d="M462.102 26.7171C463.062 26.7171 463.84 25.885 463.84 24.8585C463.84 23.8321 463.062 23 462.102 23C461.142 23 460.364 23.8321 460.364 24.8585C460.364 25.885 461.142 26.7171 462.102 26.7171Z" fill="#0070C0"/>
<path d="M446.396 26.5041C447.284 26.1138 447.707 25.0277 447.342 24.0784C446.977 23.1291 445.962 22.6759 445.074 23.0663C444.187 23.4566 443.763 24.5426 444.128 25.4919C444.493 26.4412 445.508 26.8944 446.396 26.5041Z" fill="#0070C0"/>
<path d="M429.361 26.7241C429.706 26.7241 430.044 26.6147 430.331 26.4097C430.617 26.2047 430.841 25.9134 430.973 25.5725C431.105 25.2316 431.139 24.8565 431.072 24.4946C431.005 24.1327 430.839 23.8003 430.595 23.5394C430.351 23.2785 430.04 23.1008 429.702 23.0288C429.363 22.9568 429.013 22.9938 428.694 23.135C428.375 23.2762 428.103 23.5153 427.911 23.8221C427.72 24.1289 427.617 24.4896 427.617 24.8585C427.617 25.3533 427.801 25.8278 428.128 26.1777C428.455 26.5276 428.899 26.7241 429.361 26.7241V26.7241Z" fill="#0070C0"/>
</g>
<g clip-path="url(#clip2_2763_3254)">
<path d="M105.351 541C106.262 541 107 540.129 107 539.054C107 537.98 106.262 537.109 105.351 537.109C104.44 537.109 103.702 537.98 103.702 539.054C103.702 540.129 104.44 541 105.351 541Z" fill="#72A9BE"/>
<path d="M90.3975 541C91.3083 541 92.0465 540.129 92.0465 539.054C92.0465 537.98 91.3083 537.109 90.3975 537.109C89.4868 537.109 88.7485 537.98 88.7485 539.054C88.7485 540.129 89.4868 541 90.3975 541Z" fill="#72A9BE"/>
<path d="M75.4503 541C75.7779 541.001 76.0986 540.888 76.3716 540.674C76.6446 540.461 76.8578 540.156 76.984 539.799C77.1102 539.443 77.1439 539.05 77.0808 538.67C77.0176 538.291 76.8605 537.942 76.6292 537.669C76.398 537.395 76.1031 537.208 75.7818 537.132C75.4606 537.056 75.1274 537.094 74.8246 537.242C74.5218 537.389 74.2629 537.64 74.0807 537.961C73.8986 538.282 73.8013 538.66 73.8013 539.047C73.8013 539.564 73.9748 540.059 74.2839 540.425C74.593 540.791 75.0124 540.998 75.4503 541V541Z" fill="#72A9BE"/>
<path d="M60.5029 541C60.8303 541 61.1503 540.885 61.4225 540.671C61.6947 540.456 61.9069 540.151 62.0321 539.794C62.1574 539.438 62.1902 539.045 62.1263 538.666C62.0624 538.287 61.9048 537.939 61.6733 537.666C61.4418 537.393 61.1469 537.207 60.8258 537.131C60.5047 537.056 60.1719 537.095 59.8695 537.243C59.567 537.39 59.3085 537.641 59.1266 537.962C58.9448 538.283 58.8477 538.661 58.8477 539.047C58.8477 539.303 58.8904 539.557 58.9736 539.794C59.0568 540.031 59.1787 540.247 59.3324 540.428C59.4861 540.609 59.6686 540.753 59.8695 540.851C60.0703 540.95 60.2855 541 60.5029 541V541Z" fill="#72A9BE"/>
<path d="M45.5499 541C46.4606 541 47.1989 540.129 47.1989 539.054C47.1989 537.98 46.4606 537.109 45.5499 537.109C44.6392 537.109 43.9009 537.98 43.9009 539.054C43.9009 540.129 44.6392 541 45.5499 541Z" fill="#72A9BE"/>
<path d="M31.2333 540.768C32.0756 540.36 32.4777 539.223 32.1314 538.229C31.7851 537.235 30.8215 536.761 29.9792 537.169C29.1369 537.578 28.7348 538.715 29.0811 539.709C29.4275 540.702 30.391 541.177 31.2333 540.768Z" fill="#72A9BE"/>
<path d="M15.6551 537.131C15.3272 537.129 15.0064 537.243 14.7332 537.457C14.46 537.671 14.2469 537.976 14.1208 538.333C13.9948 538.69 13.9615 539.084 14.0252 539.463C14.0888 539.843 14.2466 540.191 14.4784 540.465C14.7103 540.738 15.0058 540.925 15.3275 541C15.6491 541.075 15.9825 541.035 16.2852 540.887C16.5879 540.738 16.8464 540.487 17.0278 540.164C17.2092 539.842 17.3054 539.463 17.3041 539.076C17.3025 538.561 17.1282 538.067 16.8193 537.703C16.5104 537.338 16.0919 537.133 15.6551 537.131V537.131Z" fill="#72A9BE"/>
<path d="M105.351 525.221C106.262 525.221 107 524.35 107 523.275C107 522.201 106.262 521.33 105.351 521.33C104.44 521.33 103.702 522.201 103.702 523.275C103.702 524.35 104.44 525.221 105.351 525.221Z" fill="#72A9BE"/>
<path d="M90.3975 525.221C91.3083 525.221 92.0465 524.35 92.0465 523.275C92.0465 522.201 91.3083 521.33 90.3975 521.33C89.4868 521.33 88.7485 522.201 88.7485 523.275C88.7485 524.35 89.4868 525.221 90.3975 525.221Z" fill="#72A9BE"/>
<path d="M75.4503 525.221C75.7782 525.222 76.0991 525.109 76.3723 524.895C76.6454 524.681 76.8586 524.376 76.9846 524.019C77.1107 523.662 77.144 523.268 77.0803 522.889C77.0167 522.509 76.8589 522.161 76.627 521.887C76.3952 521.613 76.0996 521.427 75.7779 521.352C75.4563 521.277 75.123 521.316 74.8203 521.465C74.5175 521.614 74.2591 521.865 74.0777 522.188C73.8963 522.51 73.8 522.888 73.8013 523.275C73.8029 523.791 73.9772 524.285 74.2861 524.649C74.595 525.013 75.0135 525.219 75.4503 525.221V525.221Z" fill="#72A9BE"/>
<path d="M60.5029 525.221C60.8306 525.221 61.1508 525.106 61.4232 524.891C61.6955 524.676 61.9077 524.371 62.0328 524.014C62.1579 523.656 62.1902 523.263 62.1259 522.884C62.0615 522.505 61.9032 522.157 61.6711 521.884C61.439 521.612 61.1435 521.426 60.822 521.352C60.5005 521.277 60.1675 521.317 59.8651 521.466C59.5628 521.615 59.3047 521.866 59.1236 522.188C58.9425 522.51 58.8464 522.889 58.8477 523.275C58.8477 523.531 58.8905 523.785 58.9738 524.022C59.057 524.258 59.179 524.473 59.3328 524.654C59.4866 524.835 59.6691 524.978 59.8699 525.075C60.0707 525.172 60.2859 525.222 60.5029 525.221V525.221Z" fill="#72A9BE"/>
<path d="M45.5499 525.221C46.4606 525.221 47.1989 524.35 47.1989 523.275C47.1989 522.201 46.4606 521.33 45.5499 521.33C44.6392 521.33 43.9009 522.201 43.9009 523.275C43.9009 524.35 44.6392 525.221 45.5499 525.221Z" fill="#72A9BE"/>
<path d="M31.2348 524.995C32.0771 524.586 32.4792 523.449 32.1329 522.455C31.7866 521.462 30.823 520.987 29.9807 521.396C29.1384 521.804 28.7363 522.941 29.0826 523.935C29.4289 524.929 30.3925 525.403 31.2348 524.995Z" fill="#72A9BE"/>
<path d="M15.6553 525.221C15.9829 525.221 16.3032 525.106 16.5755 524.891C16.8478 524.676 17.06 524.371 17.1851 524.014C17.3102 523.656 17.3427 523.263 17.2783 522.884C17.2139 522.505 17.0556 522.157 16.8235 521.884C16.5914 521.612 16.2959 521.426 15.9744 521.352C15.6529 521.277 15.3199 521.317 15.0175 521.466C14.7152 521.615 14.4571 521.866 14.276 522.188C14.0948 522.51 13.9988 522.889 14 523.275C14 523.531 14.0429 523.785 14.1261 524.022C14.2094 524.258 14.3315 524.473 14.4853 524.654C14.639 524.835 14.8216 524.978 15.0223 525.075C15.2231 525.172 15.4382 525.222 15.6553 525.221Z" fill="#72A9BE"/>
<path d="M105.351 509.442C106.262 509.442 107 508.571 107 507.496C107 506.422 106.262 505.551 105.351 505.551C104.44 505.551 103.702 506.422 103.702 507.496C103.702 508.571 104.44 509.442 105.351 509.442Z" fill="#72A9BE"/>
<path d="M90.3975 509.442C91.3083 509.442 92.0465 508.571 92.0465 507.496C92.0465 506.422 91.3083 505.551 90.3975 505.551C89.4868 505.551 88.7485 506.422 88.7485 507.496C88.7485 508.571 89.4868 509.442 90.3975 509.442Z" fill="#72A9BE"/>
<path d="M75.4503 509.449C75.7779 509.451 76.0986 509.338 76.3716 509.124C76.6446 508.91 76.8578 508.606 76.984 508.249C77.1102 507.892 77.1439 507.499 77.0808 507.12C77.0176 506.741 76.8605 506.392 76.6292 506.118C76.398 505.844 76.1031 505.657 75.7818 505.581C75.4606 505.505 75.1274 505.544 74.8246 505.691C74.5218 505.839 74.2629 506.089 74.0807 506.411C73.8986 506.732 73.8013 507.11 73.8013 507.496C73.8013 508.013 73.9748 508.509 74.2839 508.875C74.593 509.241 75.0124 509.447 75.4503 509.449V509.449Z" fill="#72A9BE"/>
<path d="M60.5029 509.449C60.8303 509.449 61.1503 509.335 61.4225 509.12C61.6947 508.906 61.9069 508.601 62.0321 508.244C62.1574 507.887 62.1902 507.494 62.1263 507.115C62.0624 506.736 61.9048 506.388 61.6733 506.115C61.4418 505.842 61.1469 505.656 60.8258 505.581C60.5047 505.505 60.1719 505.544 59.8695 505.692C59.567 505.84 59.3085 506.09 59.1266 506.411C58.9448 506.732 58.8477 507.11 58.8477 507.496C58.8477 507.753 58.8904 508.007 58.9736 508.244C59.0568 508.481 59.1787 508.696 59.3324 508.877C59.4861 509.059 59.6686 509.203 59.8695 509.301C60.0703 509.399 60.2855 509.449 60.5029 509.449V509.449Z" fill="#72A9BE"/>
<path d="M45.5499 509.442C46.4606 509.442 47.1989 508.571 47.1989 507.496C47.1989 506.422 46.4606 505.551 45.5499 505.551C44.6392 505.551 43.9009 506.422 43.9009 507.496C43.9009 508.571 44.6392 509.442 45.5499 509.442Z" fill="#72A9BE"/>
<path d="M31.2343 509.222C32.0766 508.813 32.4787 507.676 32.1324 506.683C31.7861 505.689 30.8225 505.214 29.9802 505.623C29.1379 506.032 28.7358 507.169 29.0821 508.162C29.4284 509.156 30.392 509.631 31.2343 509.222Z" fill="#72A9BE"/>
<path d="M15.6553 509.449C15.9826 509.449 16.3027 509.335 16.5749 509.12C16.8471 508.906 17.0592 508.601 17.1845 508.244C17.3098 507.887 17.3426 507.494 17.2787 507.115C17.2149 506.736 17.0572 506.388 16.8257 506.115C16.5943 505.842 16.2993 505.656 15.9782 505.581C15.6571 505.505 15.3243 505.544 15.0219 505.692C14.7194 505.84 14.4609 506.09 14.279 506.411C14.0971 506.732 14 507.11 14 507.496C14 508.014 14.1744 508.511 14.4849 508.877C14.7953 509.244 15.2163 509.449 15.6553 509.449V509.449Z" fill="#72A9BE"/>
<path d="M105.351 493.67C106.262 493.67 107 492.799 107 491.725C107 490.65 106.262 489.779 105.351 489.779C104.44 489.779 103.702 490.65 103.702 491.725C103.702 492.799 104.44 493.67 105.351 493.67Z" fill="#72A9BE"/>
<path d="M90.3975 493.67C91.3083 493.67 92.0465 492.799 92.0465 491.725C92.0465 490.65 91.3083 489.779 90.3975 489.779C89.4868 489.779 88.7485 490.65 88.7485 491.725C88.7485 492.799 89.4868 493.67 90.3975 493.67Z" fill="#72A9BE"/>
<path d="M75.4503 493.648C75.7782 493.65 76.0991 493.536 76.3723 493.322C76.6454 493.108 76.8586 492.803 76.9846 492.446C77.1107 492.089 77.144 491.696 77.0803 491.316C77.0167 490.936 76.8589 490.588 76.627 490.314C76.3952 490.041 76.0996 489.854 75.7779 489.779C75.4563 489.704 75.123 489.744 74.8203 489.892C74.5175 490.041 74.2591 490.292 74.0777 490.615C73.8963 490.937 73.8 491.316 73.8013 491.703C73.8029 492.218 73.9772 492.712 74.2861 493.076C74.595 493.441 75.0135 493.646 75.4503 493.648V493.648Z" fill="#72A9BE"/>
<path d="M60.5029 493.648C60.8306 493.648 61.1508 493.533 61.4232 493.319C61.6955 493.104 61.9077 492.798 62.0328 492.441C62.1579 492.084 62.1902 491.691 62.1259 491.311C62.0615 490.932 61.9032 490.584 61.6711 490.312C61.439 490.039 61.1435 489.853 60.822 489.779C60.5005 489.704 60.1675 489.744 59.8651 489.893C59.5628 490.042 59.3047 490.293 59.1236 490.616C58.9425 490.938 58.8464 491.316 58.8477 491.703C58.8477 491.959 58.8905 492.212 58.9738 492.449C59.057 492.685 59.179 492.9 59.3328 493.081C59.4866 493.262 59.6691 493.405 59.8699 493.502C60.0707 493.6 60.2859 493.649 60.5029 493.648V493.648Z" fill="#72A9BE"/>
<path d="M45.5499 493.67C46.4606 493.67 47.1989 492.799 47.1989 491.725C47.1989 490.65 46.4606 489.779 45.5499 489.779C44.6392 489.779 43.9009 490.65 43.9009 491.725C43.9009 492.799 44.6392 493.67 45.5499 493.67Z" fill="#72A9BE"/>
<path d="M31.2358 493.449C32.0781 493.04 32.4802 491.903 32.1339 490.909C31.7876 489.915 30.824 489.441 29.9817 489.85C29.1394 490.258 28.7373 491.395 29.0836 492.389C29.4299 493.383 30.3935 493.857 31.2358 493.449Z" fill="#72A9BE"/>
<path d="M15.6553 493.648C15.9829 493.648 16.3032 493.533 16.5755 493.319C16.8478 493.104 17.06 492.798 17.1851 492.441C17.3102 492.084 17.3427 491.691 17.2783 491.311C17.2139 490.932 17.0556 490.584 16.8235 490.312C16.5914 490.039 16.2959 489.853 15.9744 489.779C15.6529 489.704 15.3199 489.744 15.0175 489.893C14.7152 490.042 14.4571 490.293 14.276 490.616C14.0948 490.938 13.9988 491.316 14 491.703C14 491.959 14.0429 492.212 14.1261 492.449C14.2094 492.685 14.3315 492.9 14.4853 493.081C14.639 493.262 14.8216 493.405 15.0223 493.502C15.2231 493.6 15.4382 493.649 15.6553 493.648V493.648Z" fill="#72A9BE"/>
<path d="M105.351 477.891C106.262 477.891 107 477.02 107 475.946C107 474.871 106.262 474 105.351 474C104.44 474 103.702 474.871 103.702 475.946C103.702 477.02 104.44 477.891 105.351 477.891Z" fill="#72A9BE"/>
<path d="M90.3975 477.891C91.3083 477.891 92.0465 477.02 92.0465 475.946C92.0465 474.871 91.3083 474 90.3975 474C89.4868 474 88.7485 474.871 88.7485 475.946C88.7485 477.02 89.4868 477.891 90.3975 477.891Z" fill="#72A9BE"/>
<path d="M75.4503 477.899C75.7779 477.9 76.0986 477.787 76.3716 477.573C76.6446 477.359 76.8578 477.055 76.984 476.698C77.1102 476.341 77.1439 475.949 77.0808 475.569C77.0176 475.19 76.8605 474.841 76.6292 474.567C76.398 474.293 76.1031 474.107 75.7818 474.031C75.4606 473.955 75.1274 473.993 74.8246 474.141C74.5218 474.288 74.2629 474.539 74.0807 474.86C73.8986 475.181 73.8013 475.559 73.8013 475.946C73.8013 476.462 73.9748 476.958 74.2839 477.324C74.593 477.69 75.0124 477.897 75.4503 477.899V477.899Z" fill="#72A9BE"/>
<path d="M60.5029 477.899C60.8303 477.899 61.1503 477.784 61.4225 477.57C61.6947 477.355 61.9069 477.05 62.0321 476.693C62.1574 476.336 62.1902 475.944 62.1263 475.565C62.0624 475.186 61.9048 474.838 61.6733 474.565C61.4418 474.292 61.1469 474.106 60.8258 474.03C60.5047 473.955 60.1719 473.994 59.8695 474.141C59.567 474.289 59.3085 474.539 59.1266 474.861C58.9448 475.182 58.8477 475.559 58.8477 475.946C58.8477 476.202 58.8904 476.456 58.9736 476.693C59.0568 476.93 59.1787 477.145 59.3324 477.327C59.4861 477.508 59.6686 477.652 59.8695 477.75C60.0703 477.848 60.2855 477.899 60.5029 477.899V477.899Z" fill="#72A9BE"/>
<path d="M45.5499 477.891C46.4606 477.891 47.1989 477.02 47.1989 475.946C47.1989 474.871 46.4606 474 45.5499 474C44.6392 474 43.9009 474.871 43.9009 475.946C43.9009 477.02 44.6392 477.891 45.5499 477.891Z" fill="#72A9BE"/>
<path d="M31.2348 477.668C32.0771 477.26 32.4792 476.123 32.1329 475.129C31.7866 474.135 30.823 473.661 29.9807 474.069C29.1384 474.478 28.7363 475.615 29.0826 476.609C29.4289 477.603 30.3925 478.077 31.2348 477.668Z" fill="#72A9BE"/>
<path d="M15.6553 477.899C15.9826 477.899 16.3027 477.784 16.5749 477.57C16.8471 477.355 17.0592 477.05 17.1845 476.693C17.3098 476.336 17.3426 475.944 17.2787 475.565C17.2149 475.186 17.0572 474.838 16.8257 474.565C16.5943 474.292 16.2993 474.106 15.9782 474.03C15.6571 473.955 15.3243 473.994 15.0219 474.141C14.7194 474.289 14.4609 474.539 14.279 474.861C14.0971 475.182 14 475.559 14 475.946C14 476.464 14.1744 476.96 14.4849 477.327C14.7953 477.693 15.2163 477.899 15.6553 477.899V477.899Z" fill="#72A9BE"/>
</g>
<mask id="mask1_2763_3254" style="mask-type:alpha" maskUnits="userSpaceOnUse" x="-57" y="-70" width="279" height="279">
<circle cx="82.5" cy="69.5" r="137.576" fill="#C4C4C4" stroke="#F8BB54" stroke-width="3.84828"/>
</mask>
<g mask="url(#mask1_2763_3254)">
<path d="M-123.438 -0.79876C-123.438 -0.79876 -40.0251 -15.1965 -18.5878 -72.826C1.83338 -127.727 86.3973 -140.079 86.3973 -140.079" stroke="#FFC904" stroke-width="4.32558" stroke-miterlimit="10"/>
<path d="M-123.438 12.8413C-123.438 12.8413 -31.1522 -2.84482 -7.44582 -66.271C15.1091 -126.704 108.647 -140.079 108.647 -140.079" stroke="#FFC904" stroke-width="4.32558" stroke-miterlimit="10"/>
<path d="M-123.438 26.4814C-123.438 26.4814 -22.2792 9.54494 3.66217 -59.754C28.3845 -125.681 130.898 -140.079 130.898 -140.079" stroke="#FFC904" stroke-width="4.32558" stroke-miterlimit="10"/>
<path d="M-123.438 40.1596C-123.438 40.1596 -13.4403 21.9728 14.8042 -53.1615C41.6602 -124.696 153.114 -140.079 153.114 -140.079" stroke="#FFC904" stroke-width="4.32558" stroke-miterlimit="10"/>
<path d="M-123.438 53.7985C-123.438 53.7985 -4.56717 34.3625 25.9124 -46.6065C54.9356 -123.673 175.364 -140.079 175.364 -140.079" stroke="#FFC904" stroke-width="4.32558" stroke-miterlimit="10"/>
<path d="M-123.438 67.4766C-123.438 67.4766 4.30568 46.752 37.0544 -40.0518C68.2113 -122.65 197.614 -140.079 197.614 -140.079" stroke="#FFC904" stroke-width="4.32558" stroke-miterlimit="10"/>
<path d="M-123.438 81.1178C-123.438 81.1178 13.1448 59.142 48.1624 -33.4968C81.4867 -121.665 219.863 -140.079 219.863 -140.079" stroke="#FFC904" stroke-width="4.32558" stroke-miterlimit="10"/>
<path d="M-123.438 94.7562C-123.438 94.7562 22.0177 71.5318 59.3044 -26.9802C94.7624 -120.642 242.113 -140.079 242.113 -140.079" stroke="#FFC904" stroke-width="4.32558" stroke-miterlimit="10"/>
<path d="M-123.438 108.434C-123.438 108.434 30.8907 83.9216 70.4464 -20.3874C108.038 -119.619 264.33 -140.079 264.33 -140.079" stroke="#FFC904" stroke-width="4.32558" stroke-miterlimit="10"/>
<path d="M-123.438 122.076C-123.438 122.076 39.7297 96.3113 81.5544 -13.8705C121.314 -118.634 286.58 -140.079 286.58 -140.079" stroke="#FFC904" stroke-width="4.32558" stroke-miterlimit="10"/>
<path d="M-123.438 135.717C-123.438 135.717 48.6028 108.701 92.6964 -7.31572C134.589 -117.611 308.83 -140.079 308.83 -140.079" stroke="#FFC904" stroke-width="4.32558" stroke-miterlimit="10"/>
<path d="M-123.438 149.395C-123.438 149.395 57.4756 121.128 103.804 -0.76071C147.864 -116.588 331.08 -140.079 331.08 -140.079" stroke="#FFC904" stroke-width="4.32558" stroke-miterlimit="10"/>
<path d="M-123.438 163.033C-123.438 163.033 66.3148 133.481 114.946 5.794C161.14 -115.603 353.297 -140.079 353.297 -140.079" stroke="#FFC904" stroke-width="4.32558" stroke-miterlimit="10"/>
</g>
</g>
<defs>
<radialGradient id="paint0_radial_2763_3254" cx="0" cy="0" r="1" gradientUnits="userSpaceOnUse" gradientTransform="translate(275.617 284) rotate(90) scale(284 276)">
<stop stop-color="#2A3342" stop-opacity="0"/>
<stop offset="1" stop-color="#2A3342"/>
</radialGradient>
<clipPath id="clip0_2763_3254">
<rect width="516" height="568" rx="24" fill="white"/>
</clipPath>
<clipPath id="clip1_2763_3254">
<rect width="98" height="64" fill="white" transform="translate(427.617 23)"/>
</clipPath>
<clipPath id="clip2_2763_3254">
<rect width="93" height="67" fill="white" transform="translate(14 474)"/>
</clipPath>
</defs>
</svg>
