<svg width="64" height="64" viewBox="0 0 64 64" fill="none" xmlns="http://www.w3.org/2000/svg">
<rect width="64" height="64" rx="6" fill="#0070C0"/>
<path d="M32 44.75L31.8583 44.5374C30.8742 43.0613 30.3821 42.3232 29.7321 41.7889C29.1566 41.3159 28.4934 40.961 27.7806 40.7445C26.9754 40.5 26.0884 40.5 24.3143 40.5H22.3667C20.7799 40.5 19.9864 40.5 19.3804 40.1912C18.8472 39.9195 18.4138 39.4861 18.1422 38.953C17.8333 38.3469 17.8333 37.5535 17.8333 35.9667V23.7833C17.8333 22.1965 17.8333 21.4031 18.1422 20.797C18.4138 20.2639 18.8472 19.8305 19.3804 19.5588C19.9864 19.25 20.7799 19.25 22.3667 19.25H22.9333C26.107 19.25 27.6938 19.25 28.9059 19.8676C29.9722 20.4109 30.8391 21.2778 31.3824 22.3441C32 23.5562 32 25.143 32 28.3167M32 44.75V28.3167M32 44.75L32.1417 44.5374C33.1258 43.0613 33.6179 42.3232 34.2679 41.7889C34.8435 41.3159 35.5066 40.961 36.2194 40.7445C37.0246 40.5 37.9116 40.5 39.6857 40.5H41.6333C43.2201 40.5 44.0136 40.5 44.6196 40.1912C45.1528 39.9195 45.5862 39.4861 45.8579 38.953C46.1667 38.3469 46.1667 37.5535 46.1667 35.9667V23.7833C46.1667 22.1965 46.1667 21.4031 45.8579 20.797C45.5862 20.2639 45.1528 19.8305 44.6196 19.5588C44.0136 19.25 43.2201 19.25 41.6333 19.25H41.0667C37.893 19.25 36.3062 19.25 35.0941 19.8676C34.0278 20.4109 33.1609 21.2778 32.6176 22.3441C32 23.5562 32 25.143 32 28.3167" stroke="white" stroke-width="2" stroke-linecap="round" stroke-linejoin="round"/>
</svg>
