<svg width="191" height="66" viewBox="0 0 191 66" fill="none" xmlns="http://www.w3.org/2000/svg">
<g clip-path="url(#clip0_3002_147)">
<mask id="mask0_3002_147" style="mask-type:luminance" maskUnits="userSpaceOnUse" x="-10" y="-12" width="210" height="111">
<path d="M-9.13062 98.3239H199.077V-11.167H-9.13062V98.3239Z" fill="white"/>
</mask>
<g mask="url(#mask0_3002_147)">
<path d="M47.5835 18.9674L25.0669 10.1766C20.2276 12.8201 16.2728 15.8799 13.0625 18.9674C16.2728 22.0487 20.2276 25.107 25.0669 27.7582L47.5835 18.9674Z" fill="#BBC3CF"/>
<path d="M0.636719 0.635858C0.636719 0.635858 3.02098 8.37445 10.8444 16.7106C14.3131 14.0486 18.494 11.6232 23.461 9.54338L0.636719 0.635858Z" fill="#556987"/>
<path d="M0.636719 37.2952C0.636719 37.2952 3.02098 29.5612 10.8444 21.222C14.3131 23.884 18.494 26.3032 23.461 28.3861L0.636719 37.2952Z" fill="#8896AB"/>
<path d="M115.198 63.2631H108.828V56.2971H113.636V58.3907H115.248V52.6521H113.636V54.7181H108.828V48.0808H114.949V50.4064H116.534V45.7076H114.922V46.4772H103.707V47.835H105.751V63.4689H103.707V64.8421H116.81V60.8546H115.198V63.2631ZM184.514 46.4772V47.835H186.589V59.4798L177.078 46.4772H172.308V47.835H174.283L174.936 48.7551V63.4689H172.864V64.8421H178.736V63.4689H176.658V51.0976L186.879 65.1478H188.314V47.835H190.363V46.4772H184.514ZM160.825 46.1454C155.776 46.1454 151.663 50.4248 151.663 55.6873C151.663 60.9298 155.776 65.1954 160.825 65.1954C165.838 65.1954 169.911 60.916 169.911 55.6566C169.911 50.411 165.838 46.1454 160.825 46.1454ZM160.825 63.4182C157.413 63.4182 155.038 60.2248 155.038 55.6566C155.038 51.0991 157.434 47.9226 160.856 47.9226C164.201 47.9226 166.539 51.0991 166.539 55.6566C166.539 60.2248 164.192 63.4182 160.825 63.4182ZM88.8232 59.6795L82.6303 46.4772H77.4957V47.835H79.5692V63.4689H77.4957V64.8421H83.3702V63.4689H81.2967V50.7289L88.1556 65.3644L94.6685 51.0515V63.4689H92.6227V64.8421H99.7954V63.4689H97.7388V47.835H99.7954V46.4772H94.9162L88.8232 59.6795ZM132.447 63.2631H126.399V47.835H128.454V46.4772H121.268V47.835H123.321V63.4689H121.268V64.8421H134.063V60.8546H132.447V63.2631ZM148.21 63.2631H142.146V47.835H144.195V46.4772H137.018V47.835H139.076V63.4689H137.018V64.8421H149.813V60.8546H148.21V63.2631ZM61.1135 47.835H63.467L59.5153 54.3448L55.2682 47.835H57.4002V46.4772H49.9737V47.835H51.6319L57.2249 56.4215V63.4689H55.176V64.8421H62.3487V63.4689H60.2721V56.2602L65.4436 47.835H66.9342V46.4772H61.1135V47.835ZM23.4807 55.1466C25.2266 54.6505 26.8556 53.2926 26.8556 51.1206C26.8556 48.2989 24.759 46.4772 21.5056 46.4772H13.0623V47.835H15.1112V63.4689H13.0623V64.8421H21.9886C25.4327 64.8421 27.7324 62.8867 27.7324 59.9698C27.7324 57.0851 25.6588 55.6197 23.4807 55.1466ZM18.1892 48.0808H20.4442C21.641 48.0808 23.6468 48.4925 23.6468 51.2282C23.6468 53.5015 21.9625 54.523 20.295 54.523H18.1892V48.0808ZM20.5458 63.2631H18.1892V56.1097H20.5458C22.9977 56.1097 24.5805 57.5705 24.5805 59.83C24.5805 62.3599 22.4132 63.2631 20.5458 63.2631ZM42.7178 47.835H44.8021V59.4798L35.2805 46.4772H30.5258V47.835H32.4917L33.1408 48.7551V63.475H31.0626V64.8421H36.9371V63.475H34.8682V51.0976L45.0913 65.1478H46.5203V47.835H48.5708V46.4772H42.7178V47.835Z" fill="#BBC3CF"/>
</g>
</g>
<defs>
<clipPath id="clip0_3002_147">
<rect width="191" height="66" fill="white"/>
</clipPath>
</defs>
</svg>
