<svg width="226" height="53" viewBox="0 0 226 53" fill="none" xmlns="http://www.w3.org/2000/svg">
<path d="M109.332 9.11119C108.115 8.5221 106.78 7.97229 105.759 7.50102C102.656 9.03264 98.611 11.3497 93.5056 15.002C94.6052 15.5911 95.7834 16.298 97.0401 17.0049C100.967 14.0988 104.934 11.3497 109.332 9.11119Z" fill="#404F65"/>
<path d="M99.1216 5.22322C94.5267 7.34393 89.6962 10.2501 87.0649 11.9388C88.0075 12.3708 88.95 12.7242 90.246 13.3526C96.0583 9.42536 100.614 7.02975 102.42 6.2443C101.124 5.77303 99.907 5.45886 99.1216 5.22322Z" fill="#404F65"/>
<path d="M113.103 28.3154C121.35 21.2464 132.935 14.3737 139.297 11.8995C138.315 11.2712 136.784 10.3679 135.056 9.38611C126.848 12.0959 117.265 18.1046 108.704 24.8987C110.157 25.9983 111.689 27.1372 113.103 28.3154Z" fill="#8896AB"/>
<path d="M116.676 5.73377C115.184 4.90905 110 2.98471 106.426 2.15999C105.366 2.55271 103.874 3.1418 102.853 3.57379C104.149 3.92725 108.979 5.22323 113.103 7.30467C114.163 6.79413 115.655 6.16577 116.676 5.73377Z" fill="#8896AB"/>
<path d="M120.132 4.51632C121.193 4.16287 122.41 3.84869 123.47 3.53451C120.407 2.23853 116.558 0.863992 113.103 0C112.553 0.157089 110.903 0.589086 109.764 0.942537C110.943 1.29599 114.831 2.19925 120.132 4.51632ZM100.771 19.2827C102.028 20.0289 103.363 21.05 104.659 21.914C113.26 15.2377 121.742 10.093 131.05 7.18684C129.754 6.51921 128.615 5.93013 127.162 5.22323C121.585 6.63703 112.042 10.4465 100.771 19.2827Z" fill="#8896AB"/>
<path d="M0.665771 52.193H6.94935C10.1304 52.193 11.6228 50.5436 11.6228 48.2265C11.6228 46.3414 10.641 45.0847 8.59879 44.692C10.4053 44.26 11.23 43.1603 11.23 41.5502C11.23 39.508 9.73769 37.8586 6.55663 37.8586H0.705044V52.193H0.665771ZM6.12463 46.1058C7.3028 46.1058 8.12752 46.6949 8.12752 47.873C8.12752 49.1297 7.34207 49.6403 6.12463 49.6403H4.08247V46.0665H6.12463V46.1058ZM5.73191 40.372C6.91008 40.372 7.7348 40.8825 7.7348 42.0607C7.7348 43.2389 6.94935 43.7494 5.73191 43.7494H4.08247V40.372H5.73191ZM24.3077 37.8193H20.7732L15.3929 52.193H18.9667L19.9485 49.2083H25.1325L26.1143 52.193H29.7273L24.3077 37.8193ZM22.5405 41.2753L24.2292 46.577H20.7732L22.5405 41.2753ZM47.6355 37.8193H44.3759V47.441L38.2494 37.8193H34.5971V52.193H37.8567V42.6105L43.9832 52.193H47.6355V37.8193ZM62.6768 52.193L57.9642 44.8883V52.193H54.4689V37.8193H57.9642V44.7312L62.4412 37.8193H66.3292L61.6165 44.7312L66.7612 52.193H62.6768ZM79.132 45.0061C79.132 47.873 80.86 49.6403 83.0985 49.6403C85.337 49.6403 87.065 47.873 87.065 45.0061C87.065 42.1393 85.337 40.372 83.0985 40.372C80.86 40.372 79.132 42.1393 79.132 45.0061ZM75.4404 45.0061C75.4796 40.804 78.4251 37.5051 83.0985 37.5051C87.7719 37.5051 90.7173 40.804 90.7566 45.0061C90.7173 49.2083 87.7719 52.5072 83.0985 52.5072C78.4251 52.5072 75.4796 49.2083 75.4404 45.0061ZM95.5478 52.193H99.0431V46.5378H103.599V43.7887H99.0431V40.5684H104.541L105.17 37.8193H95.5478V52.193ZM121.468 37.8193H117.933L112.553 52.193H116.127L117.108 49.2083H122.292L123.274 52.193H126.887L121.468 37.8193ZM119.7 41.2753L121.389 46.577H117.933L119.7 41.2753ZM147.623 37.8193H143.539L139.808 45.5952L136.077 37.8193H131.993V52.193H135.134V42.5713L139.769 52.193L144.403 42.5713V52.193H147.662L147.623 37.8193ZM154.417 52.193H164.235V49.4439H157.912V46.2236H162.9V43.5531H157.912V40.5684H163.685L164.314 37.8193H154.417V52.193ZM177.549 52.193H181.358L177.784 46.1058C179.748 45.556 180.69 44.1814 180.69 42.1785C180.69 39.5866 179.119 37.8586 175.585 37.8586H170.048V52.2323H173.464V46.577H174.407L177.549 52.193ZM174.917 40.4898C176.37 40.4898 177.117 41.1182 177.117 42.3356C177.117 43.5531 176.37 44.1814 174.917 44.1814H173.425V40.4898H174.917ZM186.581 52.193H190.076V37.8586H186.581V52.193ZM207.278 48.3443C205.942 49.2868 204.764 49.601 203.547 49.601C200.876 49.601 198.991 47.7552 198.991 45.0061C198.991 42.2571 200.837 40.4113 203.429 40.4113C204.607 40.4113 205.785 40.7255 207.081 41.668V38.4084C205.903 37.7408 204.529 37.4659 202.997 37.4659C198.245 37.4659 195.26 40.7647 195.221 44.9669C195.26 49.2083 198.167 52.4679 202.997 52.4679C204.607 52.4679 205.982 52.193 207.238 51.5254V48.3443H207.278ZM220.081 37.8193H216.546L211.166 52.193H214.739L215.721 49.2083H220.905L221.887 52.193H225.5L220.081 37.8193ZM218.313 41.2753L220.002 46.577H216.546L218.313 41.2753Z" fill="#556987"/>
</svg>
