<svg width="600" height="1887" viewBox="0 0 600 1887" fill="none" xmlns="http://www.w3.org/2000/svg">
<rect width="600" height="1887" fill="white"/>
<g clip-path="url(#clip0_2774_4953)">
<rect width="600" height="854" fill="#F7F8F9"/>
<g opacity="0.4">
<rect width="600" height="1401" fill="white"/>
<line x1="1464" y1="672.5" x2="-24" y2="672.5" stroke="#EEF0F3"/>
<line x1="1464" y1="696.5" x2="-24" y2="696.5" stroke="#EEF0F3"/>
<line x1="1464" y1="720.5" x2="-24" y2="720.5" stroke="#EEF0F3"/>
<line x1="1464" y1="744.5" x2="-24" y2="744.5" stroke="#EEF0F3"/>
<line x1="1464" y1="768.5" x2="-24" y2="768.5" stroke="#EEF0F3"/>
<line x1="1464" y1="792.5" x2="-24" y2="792.5" stroke="#EEF0F3"/>
<line x1="1464" y1="816.5" x2="-24" y2="816.5" stroke="#EEF0F3"/>
<line x1="1464" y1="840.5" x2="-24" y2="840.5" stroke="#EEF0F3"/>
<line x1="24.5" y1="648" x2="24.5" y2="1368" stroke="#EEF0F3"/>
<line x1="24.5" y1="648" x2="24.5" y2="1368" stroke="#EEF0F3"/>
<line x1="48.5" y1="648" x2="48.5" y2="1368" stroke="#EEF0F3"/>
<line x1="72.5" y1="648" x2="72.5" y2="1368" stroke="#EEF0F3"/>
<line x1="96.5" y1="648" x2="96.5" y2="1368" stroke="#EEF0F3"/>
<line x1="120.5" y1="648" x2="120.5" y2="1368" stroke="#EEF0F3"/>
<line x1="144.5" y1="648" x2="144.5" y2="1368" stroke="#EEF0F3"/>
<line x1="168.5" y1="648" x2="168.5" y2="1368" stroke="#EEF0F3"/>
<line x1="192.5" y1="648" x2="192.5" y2="1368" stroke="#EEF0F3"/>
<line x1="216.5" y1="648" x2="216.5" y2="1368" stroke="#EEF0F3"/>
<line x1="240.5" y1="648" x2="240.5" y2="1368" stroke="#EEF0F3"/>
<line x1="264.5" y1="648" x2="264.5" y2="1368" stroke="#EEF0F3"/>
<line x1="288.5" y1="648" x2="288.5" y2="1368" stroke="#EEF0F3"/>
<line x1="312.5" y1="648" x2="312.5" y2="1368" stroke="#EEF0F3"/>
<line x1="336.5" y1="648" x2="336.5" y2="1368" stroke="#EEF0F3"/>
<line x1="360.5" y1="648" x2="360.5" y2="1368" stroke="#EEF0F3"/>
<line x1="384.5" y1="648" x2="384.5" y2="1368" stroke="#EEF0F3"/>
<line x1="408.5" y1="648" x2="408.5" y2="1368" stroke="#EEF0F3"/>
<line x1="432.5" y1="648" x2="432.5" y2="1368" stroke="#EEF0F3"/>
<line x1="456.5" y1="648" x2="456.5" y2="1368" stroke="#EEF0F3"/>
<line x1="480.5" y1="648" x2="480.5" y2="1368" stroke="#EEF0F3"/>
<line x1="504.5" y1="648" x2="504.5" y2="1368" stroke="#EEF0F3"/>
<line x1="528.5" y1="648" x2="528.5" y2="1368" stroke="#EEF0F3"/>
<line x1="552.5" y1="648" x2="552.5" y2="1368" stroke="#EEF0F3"/>
<line x1="576.5" y1="648" x2="576.5" y2="1368" stroke="#EEF0F3"/>
<line x1="0.5" y1="-48" x2="0.499969" y2="672" stroke="#EEF0F3"/>
<line x1="1464" y1="0.5" x2="-24" y2="0.5" stroke="#EEF0F3"/>
<line x1="1464" y1="24.5" x2="-24" y2="24.5" stroke="#EEF0F3"/>
<line x1="1464" y1="48.5" x2="-24" y2="48.5" stroke="#EEF0F3"/>
<line x1="1464" y1="72.5" x2="-24" y2="72.5" stroke="#EEF0F3"/>
<line x1="1464" y1="96.5" x2="-24" y2="96.5" stroke="#EEF0F3"/>
<line x1="1464" y1="120.5" x2="-24" y2="120.5" stroke="#EEF0F3"/>
<line x1="1464" y1="144.5" x2="-24" y2="144.5" stroke="#EEF0F3"/>
<line x1="1464" y1="168.5" x2="-24" y2="168.5" stroke="#EEF0F3"/>
<line x1="1464" y1="192.5" x2="-24" y2="192.5" stroke="#EEF0F3"/>
<line x1="1464" y1="216.5" x2="-24" y2="216.5" stroke="#EEF0F3"/>
<line x1="1464" y1="240.5" x2="-24" y2="240.5" stroke="#EEF0F3"/>
<line x1="1464" y1="264.5" x2="-24" y2="264.5" stroke="#EEF0F3"/>
<line x1="1464" y1="288.5" x2="-24" y2="288.5" stroke="#EEF0F3"/>
<line x1="1464" y1="312.5" x2="-24" y2="312.5" stroke="#EEF0F3"/>
<line x1="1464" y1="336.5" x2="-24" y2="336.5" stroke="#EEF0F3"/>
<line x1="1464" y1="360.5" x2="-24" y2="360.5" stroke="#EEF0F3"/>
<line x1="1464" y1="384.5" x2="-24" y2="384.5" stroke="#EEF0F3"/>
<line x1="1464" y1="408.5" x2="-24" y2="408.5" stroke="#EEF0F3"/>
<line x1="1464" y1="432.5" x2="-24" y2="432.5" stroke="#EEF0F3"/>
<line x1="1464" y1="456.5" x2="-24" y2="456.5" stroke="#EEF0F3"/>
<line x1="1464" y1="480.5" x2="-24" y2="480.5" stroke="#EEF0F3"/>
<line x1="1464" y1="504.5" x2="-24" y2="504.5" stroke="#EEF0F3"/>
<line x1="1464" y1="528.5" x2="-24" y2="528.5" stroke="#EEF0F3"/>
<line x1="1464" y1="552.5" x2="-24" y2="552.5" stroke="#EEF0F3"/>
<line x1="1464" y1="576.5" x2="-24" y2="576.5" stroke="#EEF0F3"/>
<line x1="1464" y1="600.5" x2="-24" y2="600.5" stroke="#EEF0F3"/>
<line x1="1464" y1="624.5" x2="-24" y2="624.5" stroke="#EEF0F3"/>
<line x1="1464" y1="648.5" x2="-24" y2="648.5" stroke="#EEF0F3"/>
<line x1="24.5" y1="-48" x2="24.5" y2="672" stroke="#EEF0F3"/>
<line x1="24.5" y1="-48" x2="24.5" y2="672" stroke="#EEF0F3"/>
<line x1="48.5" y1="-48" x2="48.5" y2="672" stroke="#EEF0F3"/>
<line x1="72.5" y1="-48" x2="72.5" y2="672" stroke="#EEF0F3"/>
<line x1="96.5" y1="-48" x2="96.5" y2="672" stroke="#EEF0F3"/>
<line x1="120.5" y1="-48" x2="120.5" y2="672" stroke="#EEF0F3"/>
<line x1="144.5" y1="-48" x2="144.5" y2="672" stroke="#EEF0F3"/>
<line x1="168.5" y1="-48" x2="168.5" y2="672" stroke="#EEF0F3"/>
<line x1="192.5" y1="-48" x2="192.5" y2="672" stroke="#EEF0F3"/>
<line x1="216.5" y1="-48" x2="216.5" y2="672" stroke="#EEF0F3"/>
<line x1="240.5" y1="-48" x2="240.5" y2="672" stroke="#EEF0F3"/>
<line x1="264.5" y1="-48" x2="264.5" y2="672" stroke="#EEF0F3"/>
<line x1="288.5" y1="-48" x2="288.5" y2="672" stroke="#EEF0F3"/>
<line x1="312.5" y1="-48" x2="312.5" y2="672" stroke="#EEF0F3"/>
<line x1="336.5" y1="-48" x2="336.5" y2="672" stroke="#EEF0F3"/>
<line x1="360.5" y1="-48" x2="360.5" y2="672" stroke="#EEF0F3"/>
<line x1="384.5" y1="-48" x2="384.5" y2="672" stroke="#EEF0F3"/>
<line x1="408.5" y1="-48" x2="408.5" y2="672" stroke="#EEF0F3"/>
<line x1="432.5" y1="-48" x2="432.5" y2="672" stroke="#EEF0F3"/>
<line x1="456.5" y1="-48" x2="456.5" y2="672" stroke="#EEF0F3"/>
<line x1="480.5" y1="-48" x2="480.5" y2="672" stroke="#EEF0F3"/>
<line x1="504.5" y1="-48" x2="504.5" y2="672" stroke="#EEF0F3"/>
<line x1="528.5" y1="-48" x2="528.5" y2="672" stroke="#EEF0F3"/>
<line x1="552.5" y1="-48" x2="552.5" y2="672" stroke="#EEF0F3"/>
<line x1="576.5" y1="-48" x2="576.5" y2="672" stroke="#EEF0F3"/>
</g>
<rect width="600" height="1401" fill="url(#paint0_radial_2774_4953)"/>
</g>
<rect y="1391" width="600" height="496" fill="#2A3342"/>
<rect y="1385" width="600" height="6" fill="#D33A02"/>
<defs>
<radialGradient id="paint0_radial_2774_4953" cx="0" cy="0" r="1" gradientUnits="userSpaceOnUse" gradientTransform="translate(300 700.5) rotate(90) scale(700.5 300)">
<stop stop-color="white" stop-opacity="0"/>
<stop offset="1" stop-color="white"/>
</radialGradient>
<clipPath id="clip0_2774_4953">
<rect width="600" height="854" fill="white"/>
</clipPath>
</defs>
</svg>
