<svg width="64" height="64" viewBox="0 0 64 64" fill="none" xmlns="http://www.w3.org/2000/svg">
<rect width="64" height="64" rx="6" fill="#D33A02"/>
<path d="M33.4162 30.5832L19.9578 44.0415M34.8589 20.0127C36.5844 21.1577 38.243 22.5075 39.7928 24.0573C41.356 25.6205 42.7157 27.2943 43.867 29.0359M28.1107 26.1861L24.038 24.8285C23.5689 24.6721 23.0523 24.7716 22.6749 25.091L18.6272 28.5159C17.7986 29.2171 18.034 30.5514 19.0526 30.9267L22.8878 32.3397M31.5476 40.9993L32.9606 44.8345C33.3359 45.853 34.6702 46.0885 35.3714 45.2598L38.7963 41.2122C39.1157 40.8347 39.2152 40.3181 39.0588 39.8491L37.7012 35.7764M42.41 18.2167L35.4591 19.3752C34.7086 19.5003 34.0202 19.8692 33.5003 20.4249L24.1318 30.4395C21.7034 33.0354 21.771 37.0893 24.2845 39.6028C26.798 42.1163 30.8519 42.1838 33.4478 39.7555L43.4624 30.3869C44.0181 29.8671 44.387 29.1787 44.5121 28.4281L45.6706 21.4773C45.9902 19.5597 44.3276 17.8971 42.41 18.2167Z" stroke="white" stroke-width="2" stroke-linecap="round" stroke-linejoin="round"/>
</svg>
