<svg width="64" height="64" viewBox="0 0 64 64" fill="none" xmlns="http://www.w3.org/2000/svg">
<rect width="64" height="64" rx="6" fill="#001F5B"/>
<path d="M36.25 18.4819C34.9084 18.0605 33.4807 17.8334 32 17.8334C24.176 17.8334 17.8333 24.176 17.8333 32C17.8333 39.8241 24.176 46.1667 32 46.1667C39.824 46.1667 46.1667 39.8241 46.1667 32C46.1667 29.57 45.5548 27.2829 44.4768 25.2843M39.0833 23.1459H39.0904M29.8751 46.0084L29.8752 42.887C29.8752 42.7179 29.9357 42.5545 30.0458 42.4261L33.5673 38.3175C33.8567 37.9799 33.767 37.4622 33.3809 37.2416L29.3346 34.9293C29.2247 34.8665 29.1336 34.7754 29.0708 34.6654L26.4332 30.0431C26.2959 29.8025 26.031 29.6641 25.7551 29.6886L17.9243 30.3861M44.75 23.5C44.75 26.6297 41.9167 29.1667 39.0833 32C36.25 29.1667 33.4167 26.6297 33.4167 23.5C33.4167 20.3704 35.9537 17.8334 39.0833 17.8334C42.213 17.8334 44.75 20.3704 44.75 23.5ZM39.4375 23.1459C39.4375 23.3415 39.2789 23.5 39.0833 23.5C38.8877 23.5 38.7292 23.3415 38.7292 23.1459C38.7292 22.9503 38.8877 22.7917 39.0833 22.7917C39.2789 22.7917 39.4375 22.9503 39.4375 23.1459Z" stroke="white" stroke-width="2" stroke-linecap="round" stroke-linejoin="round"/>
</svg>
