<svg width="178" height="74" viewBox="0 0 178 74" fill="none" xmlns="http://www.w3.org/2000/svg">
<g id="disney">
<path id="Vector" d="M153.126 32.3222C150.151 33.0009 142.294 33.3779 142.294 33.3779L141.328 36.4442C141.328 36.4442 145.218 36.1175 148.066 36.3939C148.066 36.3939 148.981 36.3185 149.083 37.3993C149.134 38.5052 149.007 39.6614 149.007 39.6614C149.007 39.6614 148.931 40.34 147.99 40.5159C146.896 40.6918 139.523 41.0186 139.523 41.0186L138.328 44.9897C138.328 44.9897 137.895 45.8946 138.887 45.6432C139.802 45.3919 147.532 43.9341 148.549 44.1352C149.617 44.3865 150.838 45.8443 150.482 47.1513C150.075 48.7347 142.345 53.6107 137.667 53.2839C137.667 53.2839 135.2 53.4347 133.141 50.1422C131.157 47.0005 133.827 41.094 133.827 41.094C133.827 41.094 132.632 38.3293 133.522 37.3239C133.522 37.3239 134.031 36.8966 135.556 36.7709L137.463 32.9003C137.463 32.9003 135.302 33.026 134.031 31.4677C132.861 29.9596 132.759 29.3062 133.675 28.904C134.641 28.4013 143.591 26.8179 149.744 27.019C149.744 27.019 151.905 26.7676 153.812 30.4623C153.812 30.4623 154.677 31.9704 153.151 32.3222M129.937 47.2015C129.174 49.0363 127.064 50.9716 124.521 49.7903C121.927 48.5839 117.834 40.34 117.834 40.34C117.834 40.34 116.308 37.2736 116.003 37.3742C116.003 37.3742 115.672 36.7709 115.495 40.1389C115.24 43.4817 115.545 49.9914 114.147 51.0219C112.876 52.0272 111.35 51.6 110.485 50.4187C109.774 49.2374 109.468 46.3972 109.875 41.4459C110.333 36.4945 111.477 31.2163 112.926 29.5826C114.452 27.9238 115.672 29.1302 116.13 29.5826C116.13 29.5826 118.088 31.342 121.393 36.5447L121.953 37.4998C121.953 37.4998 124.953 42.4512 125.258 42.4261C125.258 42.4261 125.513 42.6774 125.716 42.4763C126.021 42.4009 125.919 40.7924 125.919 40.7924C125.919 40.7924 125.36 35.4388 122.563 26.3906C122.563 26.3906 122.156 25.2345 122.436 24.1286C122.69 23.1232 123.784 23.6259 123.784 23.6259C123.784 23.6259 128.004 25.6366 130.064 32.4228C132.098 39.2089 130.725 45.3668 129.962 47.2015M109.24 29.7837C108.833 30.4875 108.655 31.4677 106.9 31.7442C106.9 31.7442 89.8645 32.9255 89.0254 34.1067C89.0254 34.1067 88.466 34.8105 89.3814 34.9864C90.3476 35.1875 94.2124 35.6902 96.0431 35.7907C98.0264 35.7907 104.688 35.841 107.129 38.8068C107.129 38.8068 108.528 40.2143 108.477 43.4063C108.426 46.6737 107.841 47.8299 106.544 49.0112C105.197 50.1171 93.653 55.2444 86.203 47.4026C86.203 47.4026 82.7959 43.6325 87.3981 40.7672C87.3981 40.7672 90.7036 38.7565 99.1706 41.094C99.1706 41.094 101.713 41.9988 101.612 42.9288C101.459 43.9341 99.5012 44.9395 96.6534 44.8892C93.9073 44.8138 91.8732 43.5068 92.28 43.733C92.6614 43.8587 89.3051 42.1245 88.2626 43.3058C87.2455 44.4117 87.4998 45.0651 88.5169 45.7438C91.0595 47.2015 101.052 46.6737 104.027 43.3812C104.027 43.3812 105.222 42.0491 103.417 40.9683C101.637 39.963 96.45 39.3346 94.4413 39.2592C92.5343 39.1587 85.3894 39.2592 84.3215 37.4244C84.3215 37.4244 83.3044 36.1175 84.4232 32.5484C85.5928 28.7784 93.9073 27.3206 97.5179 27.019C97.5179 27.019 107.434 26.6168 109.29 28.6275C109.29 28.6275 109.545 29.08 109.24 29.7586M81.1177 51.8764C79.9227 52.7561 77.38 52.3791 76.6426 51.3738C75.9307 50.4941 75.6764 47.0256 75.8036 41.5715C75.9815 35.9918 76.0578 29.1554 77.3291 28.0495C78.6005 26.9687 79.3633 27.9238 79.8718 28.6527C80.3803 29.4067 81.0414 30.2361 81.1431 31.9704C81.2957 33.7297 81.728 42.778 81.728 42.778C81.728 42.778 82.2873 51.0219 81.1431 51.8764M83.6604 22.4697C80.1515 23.651 77.7614 23.274 75.7273 22.3943C74.8373 23.9778 74.3034 24.4553 73.6423 24.5558C72.6252 24.6564 71.7353 23.0478 71.6082 22.5451C71.4047 22.1681 70.9216 21.4895 71.5065 19.9563C69.5232 18.197 69.3706 15.8344 69.7266 14.2509C70.1843 12.391 73.5406 5.40379 83.7112 4.57437C83.7112 4.57437 88.6949 4.22249 89.5594 6.83642H89.7119C89.7119 6.83642 94.543 6.83642 94.4413 11.1092C94.4413 15.382 89.1017 20.7104 83.6604 22.5451M88.1863 10.3049C84.9826 10.8076 80.0498 15.0301 77.6851 18.5237C81.3211 19.1772 87.6778 18.9258 90.5256 13.2456C90.5256 13.2456 91.8732 9.67656 88.1863 10.3049ZM74.1254 13.0696C73.1083 14.7033 73.0575 15.6836 73.5406 16.3371C74.7356 14.5777 76.846 11.8129 80.0244 9.65142C77.5834 9.90276 75.5239 10.9081 74.1254 13.0696ZM160.754 51.7005C158.415 57.3808 156.431 63.1365 155.287 71.7574C155.287 71.7574 155.033 73.4414 153.634 72.8884C152.236 72.3857 149.948 70.1237 149.439 66.9317C148.931 62.7594 150.812 55.7219 154.652 47.6288C153.533 45.8694 152.745 43.2555 153.38 39.5859C153.38 39.5859 154.397 32.7998 161.262 26.6671C161.262 26.6671 162.076 25.9885 162.534 26.2147C163.093 26.466 162.864 28.6275 162.407 29.7334C162 30.7891 158.949 36.0169 158.949 36.0169C158.949 36.0169 157.042 39.5859 157.576 42.3758C161.186 36.8966 169.399 25.7874 174.484 29.3062C177.713 31.5682 177.713 38.8571 175.298 43.0796C173.391 46.4224 168 53.3342 160.805 51.7256M171.382 34.6346C169.501 36.6453 166.144 40.4656 163.5 45.6432C166.297 45.3416 169.018 43.8084 169.857 43.0293C171.204 41.848 174.306 38.656 173.823 34.4335C173.823 34.4335 173.518 32.2217 171.382 34.6346ZM57.471 54.6663C48.4699 57.3808 39.9774 56.1241 35.3498 54.9176C35.2227 56.7776 35.0193 57.5567 34.7141 57.8583C34.3582 58.2605 31.4087 59.9193 29.7814 57.5567C29.0694 56.4257 28.7135 54.3898 28.51 52.5299C18.0851 47.855 13.2541 40.9683 13.1015 40.717C12.8472 40.4656 10.4826 38.0276 12.8472 35.0116C15.0594 32.2971 22.3822 29.5575 28.9423 28.4767C29.1966 22.9473 29.8068 18.6745 30.595 16.7895C31.5358 14.5274 32.7309 16.5381 33.7988 18.0462C34.6633 19.1772 35.1972 24.028 35.2481 27.8987C39.5198 27.6976 42.1133 27.9992 46.8681 28.904C53.123 29.9596 57.293 33.1265 56.9624 36.6955C56.6573 40.2143 53.4027 41.6721 52.1314 41.7726C50.86 41.8731 48.8259 40.9432 48.8259 40.9432C47.402 40.2897 48.6988 39.6865 50.3515 38.9827C52.1822 38.103 51.7754 37.2234 51.7754 37.2234C51.1143 35.2126 43.0032 33.8805 34.943 33.8805C34.943 38.279 35.121 45.5678 35.2481 49.8155C40.8928 50.8711 45.1136 50.6449 45.1136 50.6449C45.1136 50.6449 65.7092 50.0668 66.294 37.0726C66.9297 24.0532 45.6984 11.5867 30.0611 7.66584C14.4491 3.61928 5.60065 6.48455 4.83785 6.86156C3.99878 7.2637 4.76157 7.4145 4.76157 7.4145C4.76157 7.4145 5.60065 7.54017 7.12625 8.04285C8.65185 8.54553 7.43137 9.29955 7.43137 9.29955C4.76157 10.2044 1.78666 9.67656 1.20185 8.47013C0.617035 7.28883 1.58325 6.20807 2.72744 4.62464C3.79536 2.99093 5.01584 3.0412 5.01584 3.0412C24.3401 -3.6193 47.936 8.31932 47.936 8.31932C70.0063 19.328 73.7694 32.272 73.3626 37.2988C73.0066 42.2501 71.0742 50.6197 57.471 54.6914M15.0085 36.6955C12.8218 37.7009 14.3474 39.3095 14.3474 39.3095C18.4665 43.6576 23.501 46.3972 28.3321 48.1063C28.8914 40.5662 28.8406 37.8768 28.8406 34.0816C21.3652 34.5843 17.0426 35.7907 15.0085 36.6955Z" fill="#8896AB"/>
</g>
</svg>
