<svg width="207" height="97" viewBox="0 0 207 97" fill="none" xmlns="http://www.w3.org/2000/svg">
<g clip-path="url(#clip0_2795_143)">
<path d="M88.3554 97.1057C88.2573 97.0662 88.2142 97.003 88.1597 96.9908C86.2044 96.5545 84.8572 95.3294 83.857 93.669C82.7876 91.8937 82.2206 89.9485 81.9567 87.9061C81.9346 87.7348 81.9123 87.5635 81.8882 87.3776C79.9465 87.3776 78.0453 87.3776 76.0773 87.3776C76.0773 90.4856 76.0773 93.5881 76.0773 96.7186C75.1543 96.7186 74.2977 96.7186 73.4116 96.7186C73.4116 88.6959 73.4116 80.6938 73.4116 72.6584C73.5173 72.6458 73.6343 72.6197 73.7512 72.6196C76.9264 72.618 80.1017 72.6026 83.2767 72.625C85.5763 72.6413 87.4895 73.4844 88.8923 75.3654C91.2224 78.4897 90.6689 83.5706 87.7358 85.8947C86.9043 86.5535 85.9546 86.9501 84.922 87.1647C84.7873 87.1927 84.6528 87.2223 84.4215 87.2718C84.5844 88.0489 84.6568 88.8308 84.9188 89.5432C85.3284 90.6566 85.7417 91.8023 86.3748 92.7935C87.8437 95.0928 90.0231 95.4414 92.3109 93.842C92.6367 94.4572 92.9597 95.0669 93.2928 95.6957C92.4457 96.4698 91.4758 96.9118 90.3367 97.0678C89.68 97.1057 89.0425 97.1057 88.3554 97.1057ZM87.5763 79.94C87.5367 79.5384 87.5252 79.1316 87.4529 78.736C87.0312 76.4301 85.2679 74.907 82.9178 74.8706C80.7494 74.8371 78.5801 74.8622 76.4111 74.8633C76.3091 74.8634 76.207 74.8814 76.0875 74.8927C76.0875 78.3025 76.0875 81.6853 76.0875 85.0807C76.1886 85.0941 76.2565 85.1108 76.3245 85.1109C78.5463 85.1121 80.7687 85.1402 82.9895 85.0934C83.6075 85.0804 84.2666 84.9464 84.828 84.6937C86.8157 83.7987 87.5386 82.1093 87.5763 79.94Z" fill="#8896AB"/>
<path d="M125.838 97.1057C125.201 96.9625 124.608 96.8391 124.027 96.6727C121.289 95.8878 119.296 94.0386 118.473 91.4911C119.299 91.2744 120.122 91.0585 120.982 90.8329C121.528 92.3173 122.541 93.3581 123.946 93.9835C126.12 94.9515 128.334 94.9953 130.488 93.9575C133.342 92.5825 133.605 89.1896 131.052 87.3166C129.993 86.5397 128.741 86.2218 127.535 85.7877C126.014 85.2404 124.46 84.7584 122.998 84.0812C121.262 83.2769 120.02 81.9533 119.657 79.9903C119.147 77.2379 120.231 74.7895 122.709 73.4379C125.706 71.8033 128.781 71.7483 131.77 73.4765C133.34 74.3844 134.219 75.8577 134.662 77.6657C133.869 77.9077 133.087 78.1465 132.271 78.3955C132.226 78.2968 132.175 78.2103 132.147 78.1169C131.515 76.0509 130.027 74.8532 127.87 74.7064C126.545 74.6162 125.274 74.7993 124.106 75.4945C121.893 76.8113 121.415 80.2522 124.102 81.6824C125.595 82.4772 127.258 82.9494 128.829 83.6051C130.073 84.1243 131.379 84.5669 132.505 85.282C134.625 86.6285 135.849 88.5669 135.493 91.1872C135.14 93.7891 133.556 95.4631 131.176 96.3997C130.384 96.7112 129.512 96.8218 128.662 97.0649C127.727 97.1057 126.807 97.1057 125.838 97.1057Z" fill="#8896AB"/>
<path d="M197.308 97.1057C196.59 96.927 195.908 96.785 195.254 96.563C192.827 95.7389 191.025 94.2315 190.12 91.7742C190.091 91.696 190.072 91.6142 190.035 91.4871C190.879 91.2677 191.69 91.0569 192.544 90.8347C193.026 92.158 193.896 93.1515 195.121 93.7871C197.386 94.9626 199.735 95.0585 202.032 93.9586C204.994 92.5403 205.222 88.9734 202.437 87.2342C201.325 86.539 200.004 86.1659 198.763 85.6859C197.469 85.1856 196.123 84.8089 194.86 84.2418C193.035 83.4212 191.651 82.1337 191.235 80.0703C190.678 77.3082 191.793 74.7627 194.287 73.4194C197.25 71.8234 200.295 71.7544 203.26 73.4318C204.873 74.3437 205.779 75.829 206.218 77.672C205.405 77.9176 204.623 78.1536 203.815 78.3973C203.718 78.1309 203.631 77.8885 203.54 77.6474C202.993 76.1893 201.964 75.2588 200.448 74.8977C198.68 74.4767 196.981 74.6213 195.435 75.6568C193.453 76.9843 193.105 80.2251 195.504 81.5785C196.838 82.331 198.329 82.8125 199.767 83.3726C201.237 83.9456 202.787 84.3283 204.102 85.2591C205.558 86.2892 206.655 87.568 207.068 89.3775C207.106 90.0284 207.106 90.6646 207.069 91.3679C206.898 91.8873 206.808 92.3587 206.622 92.7886C205.667 94.9969 203.866 96.1693 201.622 96.7739C201.127 96.9074 200.62 96.9963 200.118 97.1057C199.198 97.1057 198.278 97.1057 197.308 97.1057Z" fill="#8896AB"/>
<path d="M0.105957 72.641C0.966741 72.5915 1.82752 72.5915 2.72787 72.5915C2.72787 80.6622 2.72787 88.6767 2.72787 96.7504C1.8846 96.7504 1.04165 96.7504 0.152327 96.7696C0.105957 88.756 0.105957 80.7233 0.105957 72.641Z" fill="#8896AB"/>
<path d="M200.167 97.1057C200.619 96.9963 201.127 96.9074 201.622 96.7739C203.865 96.1693 205.667 94.9969 206.622 92.7886C206.808 92.3587 206.898 91.8873 207.069 91.4174C207.106 93.2948 207.106 95.1898 207.106 97.1057C204.81 97.1057 202.513 97.1057 200.167 97.1057Z" fill="#FBFBFB"/>
<path d="M40.0235 26.3979C44.1973 26.4861 48.1976 27.2281 52.0624 28.6545C53.6786 29.251 55.0648 30.2075 56.1227 31.5855C58.3366 34.4694 56.7371 38.6024 53.1464 39.3014C52.0508 39.5147 51.0095 39.2754 49.995 38.9017C49.8054 38.8319 49.5737 38.5785 49.5653 38.4003C49.5571 38.2231 49.77 37.9831 49.9479 37.8591C50.5936 37.4089 51.323 37.0623 51.9132 36.5525C52.7126 35.8619 52.6155 35.071 51.6348 34.6499C50.4792 34.1539 49.2641 33.7655 48.0424 33.4589C44.7021 32.6206 41.3052 32.1305 37.8584 32.0177C37.6154 32.0097 37.3718 32.0167 37.0831 32.0167C37.19 37.1253 37.2964 42.2023 37.4028 47.287C40.1595 47.8707 42.91 48.0939 45.6835 48.0441C49.1134 47.9824 52.5102 47.6532 55.7925 46.5875C58.4291 45.7315 60.9247 44.5687 62.916 42.5956C66.123 39.4178 66.9769 35.5975 65.5715 31.3501C64.3042 27.5201 61.9729 24.3317 59.1313 21.5033C55.568 17.9564 51.4587 15.1554 47.0372 12.8021C40.5311 9.33932 33.6376 6.9692 26.3687 5.73006C21.5165 4.90289 16.6299 4.60396 11.7244 5.19001C10.6134 5.32274 9.52581 5.65513 8.4306 5.9092C8.25037 5.95101 8.08656 6.06332 7.91517 6.14305C7.9145 6.19729 7.91383 6.25153 7.91316 6.30578C8.45221 6.39001 8.99819 6.44457 9.52811 6.56791C9.9476 6.66555 10.3971 6.77716 10.7382 7.01721C10.9612 7.17417 11.129 7.58109 11.106 7.85824C11.0885 8.06871 10.7618 8.36181 10.5204 8.42792C9.02339 8.83785 7.5513 8.68023 6.14026 8.05467C5.53735 7.78739 5.37192 7.22528 5.48615 6.63219C5.86232 4.67906 6.94443 3.22574 8.73444 2.34086C10.2826 1.57552 11.9822 1.30945 13.6549 0.985198C17.3664 0.265733 21.1134 0.120474 24.8737 0.463039C28.9736 0.836537 32.9672 1.74187 36.8938 2.96154C43.332 4.96131 49.4482 7.6752 55.0758 11.3893C60.4046 14.9063 65.2303 19.0018 68.8376 24.3489C70.3358 26.5696 71.5954 28.9274 72.238 31.5552C73.0859 35.0225 72.6752 38.3463 71.0667 41.5408C68.9059 45.832 65.4926 48.7109 61.0882 50.5107C55.551 52.7734 49.7969 53.6156 43.855 53.0327C41.7942 52.8306 39.7581 52.3767 37.7107 52.0381C37.594 52.0188 37.4768 52.0021 37.382 51.9876C37.2764 52.6557 37.2049 53.2979 37.0681 53.926C36.8969 54.7123 36.375 55.2046 35.5791 55.2907C34.9224 55.3618 34.2281 55.4268 33.5936 55.2922C32.2294 55.0026 31.712 53.9111 31.4757 52.6755C31.3175 51.8483 31.2023 51.0073 31.1508 50.1674C31.1205 49.6727 30.9212 49.428 30.491 49.2313C26.747 47.519 23.3477 45.2798 20.2925 42.5229C18.7573 41.1376 17.3203 39.6687 16.2944 37.8478C15.0751 35.6839 15.4177 33.7104 17.3268 32.1056C19.0235 30.6794 21.0113 29.7914 23.0846 29.0722C25.5299 28.224 28.0035 27.482 30.5825 27.1583C31.0752 27.0965 31.2645 26.8967 31.3036 26.3646C31.4991 23.7 31.7107 21.0351 32.0043 18.3799C32.1132 17.3956 32.419 16.4246 32.7139 15.4719C32.951 14.7057 33.4852 14.571 34.1487 15.0344C34.9641 15.604 35.4148 16.4437 35.7606 17.3369C36.5837 19.4625 36.8543 21.6928 36.94 23.9505C36.9706 24.7551 36.9449 25.5618 36.9449 26.3977C38.0412 26.3977 39.0059 26.3977 40.0235 26.3979ZM23.2729 33.1927C22.6549 33.3313 22.0209 33.4217 21.4223 33.6189C20.2759 33.9965 19.1141 34.36 18.0262 34.872C17.174 35.273 17.077 35.9809 17.6078 36.7648C17.8332 37.0976 18.1027 37.4067 18.3853 37.6942C21.904 41.2733 26.132 43.72 30.8209 45.4259C30.892 45.4517 30.9767 45.4402 31.0233 45.4437C31.0233 41.0227 31.0233 36.6375 31.0233 32.1302C28.4161 32.4859 25.8888 32.8307 23.2729 33.1927Z" fill="#8896AB"/>
<path d="M166.307 48.9928C163.49 50.8426 160.502 52.0046 157.018 51.7472C156.591 53.1258 156.156 54.49 155.747 55.8621C154.356 60.5295 153.519 65.3248 152.462 70.0693C152.42 70.2579 152.386 70.4488 152.335 70.635C152.151 71.311 151.549 71.5993 150.894 71.3208C148.649 70.3675 147.411 68.7412 147.394 66.239C147.378 63.9013 147.802 61.6206 148.189 59.3337C148.849 55.4354 150.174 51.7355 151.585 48.0612C151.665 47.8528 151.721 47.5628 151.639 47.3753C150.171 44.0107 150.289 40.6284 151.555 37.2575C152.966 33.5028 155.135 30.2204 157.956 27.3679C158.14 27.1823 158.359 27.0206 158.587 26.8919C159.149 26.5741 159.697 26.8132 159.741 27.4583C159.778 27.9897 159.715 28.5495 159.582 29.0674C159.103 30.9311 158.059 32.5319 157.08 34.1541C155.919 36.0784 154.985 38.0934 154.534 40.3007C154.383 41.0417 154.385 41.8138 154.316 42.5717C154.389 42.5934 154.462 42.6152 154.535 42.6369C154.672 42.4517 154.816 42.2705 154.947 42.0807C157.596 38.2425 160.551 34.6622 164.031 31.5431C164.81 30.8456 165.693 30.2359 166.606 29.7225C168.566 28.6195 170.155 29.0124 171.48 30.8307C172.482 32.2064 172.967 33.7822 173.104 35.4495C173.584 41.3098 171.111 45.7178 166.307 48.9928ZM166.979 42.7447C168.295 41.4651 169.195 39.937 169.666 38.1688C170.01 36.8757 170.126 35.5669 169.608 34.2877C169.341 33.6279 168.94 33.5293 168.457 34.0389C167.513 35.0325 166.52 36.0028 165.728 37.111C163.992 39.5404 162.364 42.0477 160.701 44.5292C160.471 44.8725 160.292 45.2501 160.03 45.718C162.788 45.6056 164.98 44.4933 166.979 42.7447Z" fill="#8896AB"/>
<path d="M104.833 37.1821C107.507 39.5286 108.24 45.7072 103.306 48.51C101.08 49.7747 98.659 50.2319 96.1393 50.1556C93.0611 50.0625 90.1804 49.2342 87.6881 47.3855C86.8275 46.7472 86.0318 45.9385 85.4277 45.0566C84.1923 43.2531 84.8097 40.9655 86.6983 39.8693C88.1306 39.0381 89.7137 38.7715 91.3305 38.8204C94.1645 38.9062 96.9306 39.3825 99.5343 40.5739C99.9947 40.7845 100.563 40.9502 100.557 41.5754C100.551 42.1564 100.067 42.4487 99.6009 42.669C97.5671 43.63 95.5136 44.0037 93.3386 43.0377C92.1238 42.4981 90.8548 42.0526 89.5718 41.7065C89.0374 41.5623 88.3855 41.7191 87.8192 41.864C87.2788 42.0022 86.9325 42.4427 86.8712 43.0179C86.8146 43.5482 87.1868 43.8703 87.5786 44.1093C88.5739 44.7165 89.6825 45.0015 90.837 45.0527C94.3124 45.207 97.6986 44.8349 100.856 43.2345C101.231 43.044 101.591 42.8177 101.943 42.5857C103.426 41.6093 103.22 40.5849 101.741 39.8447C100.734 39.3409 99.6091 38.9656 98.4969 38.8002C95.7462 38.3913 92.9718 38.1426 90.2085 37.8162C88.88 37.6592 87.5373 37.5552 86.2325 37.2793C84.1697 36.8429 83.3176 35.4445 83.6944 33.3728C84.0013 31.6857 84.9135 30.4064 86.3076 29.4427C88.2318 28.1127 90.4255 27.4927 92.6843 27.0651C95.8067 26.4739 98.9505 26.3454 102.107 26.7488C103.72 26.9549 105.296 27.3113 106.757 28.0618C107.53 28.4589 107.688 28.9134 107.308 29.7011C106.741 30.8748 105.672 31.2679 104.491 31.3614C102.207 31.5423 99.9185 31.6758 97.6298 31.7889C95.0932 31.9143 92.5551 32.0083 90.0612 32.5425C89.513 32.66 88.9688 32.8105 88.4393 32.9935C88.2676 33.0529 88.1487 33.2645 88.0057 33.4065C88.1539 33.5402 88.286 33.7633 88.4529 33.7932C89.6113 34.0012 90.7752 34.1812 91.9407 34.3473C95.182 34.8093 98.4308 35.2235 101.664 35.7349C102.811 35.9163 103.889 36.3944 104.833 37.1821Z" fill="#8896AB"/>
<path d="M134.881 31.1725C134.191 30.9456 133.528 30.7616 132.9 30.4969C132.263 30.2286 131.799 29.7446 131.534 29.0944C131.258 28.4193 131.42 27.9357 132.114 27.7056C132.828 27.4689 133.572 27.2849 134.317 27.1865C137.669 26.744 141.022 26.317 144.381 25.9323C145.961 25.7513 147.519 25.9061 148.733 27.0729C149.345 27.6613 149.885 28.3621 150.309 29.0976C150.893 30.1103 150.587 30.895 149.451 31.1394C147.961 31.4599 146.435 31.6635 144.914 31.7777C143.387 31.8923 141.847 31.8291 140.313 31.8633C140.162 31.8667 139.916 31.9741 139.878 32.0876C139.57 33.0158 139.301 33.9569 139.015 34.91C140.455 34.91 141.858 34.9038 143.262 34.9128C143.896 34.9169 144.533 34.9173 145.163 34.9809C145.917 35.0572 146.387 35.5019 146.525 36.2418C146.602 36.6533 146.634 37.0798 146.627 37.4986C146.61 38.4969 146.166 38.9446 145.164 38.9729C143.348 39.0241 141.531 39.0481 139.715 39.0979C139.134 39.1138 138.555 39.181 137.974 39.2143C137.657 39.2325 137.471 39.3643 137.369 39.6838C136.953 40.9839 136.514 42.2767 136.083 43.5722C136.116 43.6303 136.149 43.6884 136.183 43.7465C137.075 43.6263 137.969 43.5178 138.859 43.3836C140.844 43.0843 142.828 42.7802 144.809 42.4614C145.645 42.3269 146.26 42.6208 146.675 43.3379C146.858 43.6552 147.039 43.9819 147.161 44.3257C147.456 45.1606 147.278 45.9028 146.57 46.4528C143.676 48.7002 140.5 50.4194 136.805 50.762C133.62 51.0573 131.303 49.1478 130.778 45.8412C130.538 44.3323 130.789 42.8658 131.406 41.4654C131.427 41.4174 131.438 41.3639 131.465 41.3197C132.195 40.1216 132.254 38.875 131.89 37.5309C131.561 36.3164 132.096 35.5683 133.327 35.4019C133.898 35.3247 134.216 35.0486 134.403 34.5473C134.44 34.4489 134.488 34.3546 134.523 34.2559C134.863 33.3157 135.202 32.375 135.561 31.3778C135.341 31.3096 135.132 31.2448 134.881 31.1725Z" fill="#8896AB"/>
<path d="M121.708 29.8548C121.281 28.2003 120.865 26.587 120.461 24.9707C120.406 24.7518 120.396 24.5178 120.394 24.2905C120.384 23.2759 121.036 22.8219 121.909 23.3535C122.601 23.7742 123.236 24.3486 123.761 24.9685C126.235 27.8872 127.569 31.3412 128.312 35.0415C128.897 37.9497 128.985 40.8698 128.32 43.7849C128.025 45.0756 127.461 46.2366 126.608 47.2484C125.831 48.1709 124.821 48.6489 123.614 48.7103C122.865 48.7484 122.239 48.4863 121.719 47.949C120.383 46.57 119.385 44.9495 118.457 43.2921C117.221 41.0851 116.056 38.8385 114.85 36.6143C114.693 36.3237 114.476 36.0649 114.287 35.7913C114.227 35.8124 114.167 35.8334 114.106 35.8544C114.047 36.2285 113.95 36.6009 113.933 36.9769C113.815 39.5081 113.743 42.0418 113.596 44.5712C113.517 45.9354 113.422 47.3139 113.147 48.6477C112.801 50.3274 111.179 50.7338 109.924 49.5284C109.031 48.6714 108.782 47.5254 108.652 46.3654C108.296 43.1819 108.722 40.047 109.333 36.931C109.787 34.6192 110.395 32.3484 111.293 30.1645C111.452 29.7776 111.649 29.3954 111.89 29.0549C112.418 28.3103 113.152 28.1246 113.914 28.6345C114.411 28.9675 114.87 29.4244 115.207 29.9203C117.659 33.5296 120.074 37.1633 122.504 40.788C122.68 41.0506 122.852 41.3204 123.064 41.5522C123.168 41.666 123.359 41.7003 123.511 41.7706C123.557 41.6303 123.653 41.4853 123.64 41.3503C123.465 39.4612 123.376 37.5563 123.061 35.69C122.731 33.7389 122.179 31.8252 121.708 29.8548Z" fill="#8896AB"/>
<path d="M75.2197 22.8637C75.0408 23.1496 74.9073 23.4231 74.7176 23.6496C74.1642 24.3103 73.5025 24.3389 72.907 23.7207C72.2146 23.0018 71.8859 22.1228 71.9257 21.131C71.9534 20.4401 71.8326 19.8324 71.4092 19.253C69.872 17.1494 69.8381 14.9081 70.9921 12.6473C72.3121 10.0612 74.4798 8.31669 76.9686 6.93278C79.0145 5.79517 81.1965 5.10701 83.5568 5.08892C85.5132 5.07392 87.2289 5.63251 88.52 7.20655C88.6614 7.37905 88.9773 7.43431 89.2244 7.49143C91.3452 7.98159 93.3254 9.66883 93.064 12.4115C92.9494 13.6133 92.5177 14.7156 91.7865 15.6529C89.6682 18.3682 86.9984 20.3951 83.8293 21.7531C82.0138 22.531 80.1336 23.0373 78.1344 22.8093C77.2859 22.7125 76.4492 22.5123 75.5165 22.3425C75.4588 22.4439 75.3492 22.6369 75.2197 22.8637ZM79.6765 10.0196C78.6881 9.99822 77.8269 10.372 77.0029 10.8692C75.5962 11.7181 74.3447 12.7289 73.618 14.2458C73.238 15.0387 73.1867 15.8518 73.7253 16.6872C75.39 14.1069 77.4376 11.9455 79.7501 10.0639L79.745 10.0382C79.745 10.0382 79.7645 10.067 79.6765 10.0196ZM89.8733 12.8763C90.2132 11.039 88.6505 10.1336 87.3376 10.4684C86.6458 10.6448 85.9366 10.8615 85.3218 11.2115C82.8759 12.6041 80.8214 14.4692 79.0408 16.6361C78.5776 17.1998 78.1678 17.8071 77.6787 18.4686C77.9984 18.5182 78.2008 18.5654 78.4054 18.579C81.6679 18.7963 84.6632 18.022 87.3282 16.1114C88.4538 15.3044 89.4772 14.3856 89.8733 12.8763Z" fill="#8896AB"/>
<path d="M96.0879 93.83C96.0879 86.7385 96.0879 79.6997 96.0879 72.6213C96.7479 72.6213 97.3455 72.6001 97.9398 72.6359C98.0922 72.6451 98.2719 72.806 98.3748 72.9447C102.968 79.1357 107.555 85.3321 112.142 91.5277C112.181 91.5806 112.224 91.6307 112.334 91.7677C112.334 85.3452 112.334 79.0212 112.334 72.6575C113.255 72.6575 114.124 72.6575 115.023 72.6575C115.023 80.6719 115.023 88.6751 115.023 96.7467C114.395 96.7467 113.78 96.7796 113.174 96.7258C113 96.7104 112.822 96.4637 112.692 96.2889C110.291 93.0507 107.897 89.8071 105.501 86.5651C103.295 83.5798 101.088 80.5952 98.8011 77.5022C98.8011 83.9768 98.8011 90.3319 98.8011 96.7178C97.8802 96.7178 97.0225 96.7178 96.0879 96.7178C96.0879 95.7691 96.0879 94.826 96.0879 93.83Z" fill="#8896AB"/>
<path d="M27.4168 87.1732C27.4168 90.3763 27.4168 93.5266 27.4168 96.7435C26.7802 96.7435 26.1659 96.7709 25.5572 96.725C25.3969 96.7129 25.2249 96.4953 25.107 96.3361C22.0267 92.1798 18.9532 88.0185 15.8777 83.8587C14.4024 81.8633 12.9257 79.869 11.4486 77.8749C11.3776 77.7791 11.2969 77.6904 11.1503 77.5134C11.1503 83.9707 11.1503 90.3289 11.1503 96.7164C10.2415 96.7164 9.38565 96.7164 8.50146 96.7164C8.50146 88.6979 8.50146 80.6949 8.50146 72.6254C9.12172 72.6254 9.75129 72.6029 10.377 72.6421C10.5232 72.6512 10.6839 72.8489 10.7915 72.9941C14.438 77.9126 18.0787 82.8354 21.7204 87.7574C22.5683 88.9033 23.4164 90.0491 24.2652 91.1944C24.3863 91.3578 24.5116 91.5181 24.7363 91.8126C24.7363 85.3213 24.7363 78.9963 24.7363 72.6449C25.6495 72.6449 26.5049 72.6449 27.4168 72.6449C27.4168 77.4851 27.4168 82.3027 27.4168 87.1732Z" fill="#8896AB"/>
<path d="M157.627 88.5469C157.627 91.2909 157.627 93.9822 157.627 96.7114C156.727 96.7114 155.856 96.7114 154.931 96.7114C154.931 93.2729 154.931 89.851 154.931 86.4112C150.793 86.4112 146.708 86.4112 142.564 86.4112C142.564 89.8504 142.564 93.2698 142.564 96.7179C141.65 96.7179 140.794 96.7179 139.907 96.7179C139.907 88.6936 139.907 80.6794 139.907 72.6409C140.783 72.6409 141.639 72.6409 142.547 72.6409C142.547 76.4707 142.547 80.281 142.547 84.1206C146.685 84.1206 150.771 84.1206 154.91 84.1206C154.91 80.3199 154.91 76.5092 154.91 72.658C155.831 72.658 156.7 72.658 157.627 72.658C157.627 77.9434 157.627 83.2187 157.627 88.5469Z" fill="#8896AB"/>
<path d="M65.2235 83.8041C65.9253 83.8041 66.5742 83.8041 67.2408 83.8041C67.2408 84.5767 67.2408 85.3088 67.2408 86.0824C63.6568 86.0824 60.1003 86.0824 56.5086 86.0824C56.5086 88.8938 56.5086 91.6638 56.5086 94.4918C60.5971 94.4918 64.679 94.4918 68.7899 94.4918C68.7899 95.2613 68.7899 95.9732 68.7899 96.7145C63.7985 96.7145 58.8159 96.7145 53.8215 96.7145C53.8215 88.6793 53.8215 80.6767 53.8215 72.6456C58.8123 72.6456 63.7788 72.6456 68.7821 72.6456C68.7821 73.3629 68.7821 74.0756 68.7821 74.8485C64.7143 74.8485 60.6333 74.8485 56.5126 74.8485C56.5126 77.855 56.5126 80.8021 56.5126 83.8041C59.3925 83.8041 62.2816 83.8041 65.2235 83.8041Z" fill="#8896AB"/>
<path d="M171.689 81.3616C171.689 78.4269 171.689 75.545 171.689 72.618C171.901 72.618 172.055 72.6179 172.209 72.618C175.137 72.6184 178.065 72.6132 180.992 72.6206C185.012 72.6306 187.899 75.3612 188.137 79.3734C188.25 81.2874 187.913 83.0952 186.755 84.6716C185.363 86.5687 183.397 87.327 181.111 87.3516C178.891 87.3755 176.67 87.3567 174.388 87.3567C174.388 90.4842 174.388 93.5875 174.388 96.7183C173.47 96.7183 172.614 96.7183 171.689 96.7183C171.689 91.608 171.689 86.5112 171.689 81.3616ZM179.72 85.1139C180.002 85.115 180.285 85.12 180.567 85.1168C182.438 85.0956 183.93 84.3953 184.811 82.6787C185.49 81.3558 185.577 79.9467 185.229 78.5202C184.656 76.1686 182.947 74.8549 180.528 74.8586C178.676 74.8614 176.823 74.8611 174.971 74.8622C174.784 74.8623 174.598 74.8622 174.406 74.8622C174.406 78.3116 174.406 81.6997 174.406 85.1139C176.164 85.1139 177.891 85.1139 179.72 85.1139Z" fill="#8896AB"/>
<path d="M81.5108 47.6176C81.498 47.7362 81.4902 47.8062 81.4789 47.8757C81.2257 49.4428 80.7288 49.9832 79.4644 50.0672C77.7272 50.1826 76.5666 49.5791 76.2566 48.1481C75.9609 46.7824 75.8074 45.3671 75.7674 43.9685C75.6334 39.2849 75.7054 34.6045 76.5688 29.9775C76.7282 29.1231 76.9896 28.2734 77.321 27.4696C77.6196 26.7455 78.077 26.6455 78.7878 26.9852C79.5028 27.3269 79.9709 27.9187 80.1294 28.6612C80.4292 30.0663 80.7637 31.4826 80.8585 32.9092C81.1411 37.1583 81.3191 41.4145 81.5255 45.6686C81.5562 46.3003 81.5196 46.9353 81.5108 47.6176Z" fill="#8896AB"/>
<path d="M39.2616 85.0599C39.2616 81.6481 39.2616 78.2891 39.2616 74.8691C36.4386 74.8691 33.6624 74.8691 30.8611 74.8691C30.8611 74.0968 30.8611 73.3857 30.8611 72.6464C37.3564 72.6464 43.8243 72.6464 50.3374 72.6464C50.3374 73.3508 50.3374 74.0625 50.3374 74.8316C47.5687 74.8316 44.7755 74.8316 41.9402 74.8316C41.9402 82.1524 41.9402 89.4167 41.9402 96.7139C41.0426 96.7139 40.1866 96.7139 39.2616 96.7139C39.2616 92.8422 39.2616 88.9775 39.2616 85.0599Z" fill="#8896AB"/>
<path d="M166.004 79.354C166.004 85.1612 166.004 90.9156 166.004 96.7096C165.104 96.7096 164.234 96.7096 163.333 96.7096C163.333 88.6954 163.333 80.6955 163.333 72.6561C164.207 72.6561 165.076 72.6561 166.004 72.6561C166.004 74.8773 166.004 77.0892 166.004 79.354Z" fill="#8896AB"/>
<path d="M79.7628 10.0614C79.7651 10.0681 79.7449 10.0382 79.7449 10.0382C79.7449 10.0382 79.7501 10.0648 79.7611 10.0556C79.772 10.0463 79.7605 10.0547 79.7628 10.0614Z" fill="#FBFBFB"/>
</g>
<defs>
<clipPath id="clip0_2795_143">
<rect width="207" height="97" fill="white"/>
</clipPath>
</defs>
</svg>
