<svg width="48" height="48" viewBox="0 0 48 48" fill="none" xmlns="http://www.w3.org/2000/svg">
<path d="M0 16.1C0 10.4051 0 7.55764 1.12587 5.39026C2.07462 3.56382 3.56382 2.07462 5.39026 1.12587C7.55764 0 10.4051 0 16.1 0H31.9C37.5949 0 40.4424 0 42.6097 1.12587C44.4362 2.07462 45.9254 3.56382 46.8741 5.39026C48 7.55764 48 10.4051 48 16.1V31.9C48 37.5949 48 40.4424 46.8741 42.6097C45.9254 44.4362 44.4362 45.9254 42.6097 46.8741C40.4424 48 37.5949 48 31.9 48H16.1C10.4051 48 7.55764 48 5.39026 46.8741C3.56382 45.9254 2.07462 44.4362 1.12587 42.6097C0 40.4424 0 37.5949 0 31.9V16.1Z" fill="white"/>
<path d="M16.1 0.25H31.9C34.7516 0.25 36.8751 0.250201 38.557 0.389876C40.2359 0.529302 41.4524 0.806412 42.4945 1.34772C44.2753 2.27276 45.7272 3.72473 46.6523 5.5055C47.1936 6.54756 47.4707 7.76409 47.6101 9.443C47.7498 11.1249 47.75 13.2484 47.75 16.1V31.9C47.75 34.7516 47.7498 36.8751 47.6101 38.557C47.4707 40.2359 47.1936 41.4524 46.6523 42.4945C45.7272 44.2753 44.2753 45.7272 42.4945 46.6523C41.4524 47.1936 40.2359 47.4707 38.557 47.6101C36.8751 47.7498 34.7516 47.75 31.9 47.75H16.1C13.2484 47.75 11.1249 47.7498 9.443 47.6101C7.76409 47.4707 6.54756 47.1936 5.5055 46.6523C3.72473 45.7272 2.27276 44.2753 1.34772 42.4945C0.806412 41.4524 0.529302 40.2359 0.389876 38.557C0.250201 36.8751 0.25 34.7516 0.25 31.9V16.1C0.25 13.2484 0.250201 11.1249 0.389876 9.443C0.529302 7.76409 0.806412 6.54756 1.34772 5.5055C2.27276 3.72473 3.72473 2.27276 5.5055 1.34772C6.54756 0.806412 7.76409 0.529302 9.443 0.389876C11.1249 0.250201 13.2484 0.25 16.1 0.25Z" stroke="black" stroke-opacity="0.15" stroke-width="0.5"/>
<path d="M33.5769 13.2844L24.5963 20.2931L15.4103 13.2844V13.2863L15.4214 13.2958V23.1098L24.4927 30.2699L33.5769 23.3863V13.2844Z" fill="#EA4335"/>
<path d="M35.9352 11.5796L33.5768 13.2844V23.3863L40.9981 17.6885V14.2561C40.9981 14.2561 40.0972 9.35386 35.9352 11.5796Z" fill="#FBBC05"/>
<path d="M33.5768 23.3865V36.4888H39.2648C39.2648 36.4888 40.8834 36.3221 40.9999 34.4772V17.6887L33.5768 23.3865Z" fill="#34A853"/>
<path d="M15.4218 36.4999V23.1096L15.4103 23.1002L15.4218 36.4999Z" fill="#C5221F"/>
<path d="M15.4102 13.2864L13.0647 11.5911C8.90269 9.36539 8 14.2657 8 14.2657V17.6981L15.4102 23.1004V13.2864Z" fill="#C5221F"/>
<path d="M15.4103 13.2863V23.1002L15.4218 23.1097V13.2957L15.4103 13.2863Z" fill="#C5221F"/>
<path d="M8 17.6998V34.4883C8.11469 36.3352 9.73509 36.5 9.73509 36.5H15.4232L15.4102 23.1003L8 17.6998Z" fill="#4285F4"/>
</svg>
