<svg width="73" height="73" viewBox="0 0 73 73" fill="none" xmlns="http://www.w3.org/2000/svg">
<path d="M68.62 37.2604C68.62 34.8879 68.4071 32.6067 68.0117 30.4167H36.5V43.3742H54.5067C53.7158 47.5412 51.3433 51.0696 47.7846 53.4421V61.8675H58.6433C64.97 56.0275 68.62 47.45 68.62 37.2604Z" fill="#757E8C"/>
<path d="M36.5 69.9583C45.5338 69.9583 53.1075 66.9775 58.6434 61.8675L47.7846 53.4421C44.8038 55.4496 41.0017 56.6662 36.5 56.6662C27.8009 56.6662 20.4096 50.7958 17.7634 42.8875H6.63086V51.5258C12.1363 62.4454 23.4209 69.9583 36.5 69.9583Z" fill="#CED1D6"/>
<path d="M17.7634 42.8571C17.0942 40.8496 16.6988 38.7204 16.6988 36.5C16.6988 34.2796 17.0942 32.1504 17.7634 30.1429V21.5046H6.63092C4.34967 26.0062 3.04175 31.0858 3.04175 36.5C3.04175 41.9142 4.34967 46.9937 6.63092 51.4954L15.2997 44.7429L17.7634 42.8571Z" fill="#8896AB"/>
<path d="M36.5 16.3642C41.4275 16.3642 45.8075 18.0675 49.3054 21.3525L58.8867 11.7713C53.0771 6.35709 45.5338 3.04167 36.5 3.04167C23.4209 3.04167 12.1363 10.5546 6.63086 21.5046L17.7634 30.1429C20.4096 22.2346 27.8009 16.3642 36.5 16.3642Z" fill="#3A475B"/>
</svg>
