<svg width="112" height="44" viewBox="0 0 112 44" fill="none" xmlns="http://www.w3.org/2000/svg">
<path d="M9.29083 1.46761H1.3313V9.39833H9.29083V1.46761Z" fill="#BBC3CF"/>
<path d="M9.09251 42.7864V14.1963H1.52954V42.7582H9.09251V42.7864ZM59.1724 43.0686V36.0693C58.0677 36.0693 57.133 36.0128 56.4532 35.8999C55.66 35.787 55.0652 35.5048 54.6686 35.1097C54.2721 34.7146 54.0171 34.1501 53.8755 33.3881C53.7622 32.6825 53.7056 31.7511 53.7056 30.6222V20.6594H59.1724V14.1963H53.7056V3.07633H46.1426V30.7069C46.1426 33.0494 46.3409 35.025 46.7374 36.6055C47.134 38.1578 47.8138 39.4278 48.7486 40.3874C49.6833 41.347 50.9296 42.0244 52.4309 42.4477C53.9605 42.8711 55.8866 43.0686 58.181 43.0686H59.1724ZM102.454 42.7864V0.874924H94.8912V42.7864H102.454ZM38.8629 17.0186C36.7668 14.7607 33.8209 13.6318 30.0819 13.6318C28.269 13.6318 26.5978 13.9987 25.1249 14.7325C23.6236 15.4663 22.3773 16.4824 21.3576 17.7806L20.961 18.3169V17.8371V14.1963H13.5113V42.7582H21.0177V27.5459V28.5901C21.0177 28.4208 21.0177 28.2514 21.0177 28.0821C21.1026 25.4009 21.7541 23.4253 23.0005 22.1552C24.3318 20.8005 25.9463 20.1232 27.7875 20.1232C29.9686 20.1232 31.6398 20.8005 32.7445 22.0988C33.8209 23.3971 34.3874 25.2316 34.3874 27.5741V27.6588V42.7582H42.007V26.5581C42.0354 22.4939 40.959 19.2765 38.8629 17.0186ZM90.9823 28.449C90.9823 26.3887 90.614 24.4695 89.9059 22.6633C89.1694 20.8852 88.1497 19.3047 86.875 17.95C85.572 16.5953 84.0141 15.551 82.2013 14.789C80.3884 14.0269 78.3773 13.66 76.1962 13.66C74.1284 13.66 72.174 14.0552 70.3611 14.8172C68.5483 15.6074 66.962 16.6517 65.6307 17.9782C64.2994 19.3047 63.223 20.8852 62.4582 22.6915C61.6651 24.4978 61.2969 26.4452 61.2969 28.5055C61.2969 30.5658 61.6651 32.5132 62.4016 34.3194C63.138 36.1257 64.1861 37.7062 65.4891 39.0327C66.7921 40.3592 68.4066 41.4317 70.2761 42.1937C72.1456 42.984 74.2134 43.3791 76.4228 43.3791C82.8244 43.3791 86.79 40.4721 89.1694 37.7627L83.7309 33.6421C82.5978 34.9968 79.8786 36.8313 76.4795 36.8313C74.355 36.8313 72.5988 36.3515 71.2675 35.3637C69.9362 34.4041 69.0298 33.0494 68.5483 31.3842L68.4633 31.1302H90.9823V28.449ZM68.5199 25.8243C68.5199 23.7357 70.9276 20.0949 76.1112 20.0667C81.2948 20.0667 83.7309 23.7075 83.7309 25.796L68.5199 25.8243ZM111.065 39.1738C110.924 38.8352 110.725 38.5529 110.47 38.2989C110.215 38.0449 109.932 37.8473 109.592 37.7062C109.252 37.5651 108.884 37.4804 108.516 37.4804C108.119 37.4804 107.779 37.5651 107.44 37.7062C107.1 37.8473 106.816 38.0449 106.561 38.2989C106.306 38.5529 106.108 38.8352 105.967 39.1738C105.825 39.5125 105.74 39.8794 105.74 40.2463C105.74 40.6414 105.825 40.9801 105.967 41.3188C106.108 41.6575 106.306 41.9397 106.561 42.1937C106.816 42.4477 107.1 42.6453 107.44 42.7864C107.779 42.9275 108.148 43.0122 108.516 43.0122C108.912 43.0122 109.252 42.9275 109.592 42.7864C109.932 42.6453 110.215 42.4477 110.47 42.1937C110.725 41.9397 110.924 41.6575 111.065 41.3188C111.207 40.9801 111.292 40.6132 111.292 40.2463C111.292 39.8794 111.207 39.5125 111.065 39.1738ZM110.612 41.1495C110.499 41.4317 110.329 41.6857 110.13 41.8833C109.932 42.0808 109.677 42.2502 109.394 42.3631C109.111 42.4759 108.827 42.5324 108.488 42.5324C108.176 42.5324 107.864 42.4759 107.581 42.3631C107.298 42.2502 107.043 42.0808 106.845 41.8833C106.646 41.6857 106.476 41.4317 106.363 41.1495C106.25 40.8672 106.193 40.585 106.193 40.2463C106.193 39.9359 106.25 39.6254 106.363 39.3432C106.476 39.0609 106.646 38.8069 106.845 38.6094C107.043 38.4118 107.298 38.2425 107.581 38.1296C107.864 38.0167 108.148 37.9602 108.488 37.9602C108.799 37.9602 109.111 38.0167 109.394 38.1296C109.677 38.2425 109.932 38.4118 110.13 38.6094C110.329 38.8069 110.499 39.0609 110.612 39.3432C110.725 39.6254 110.782 39.9076 110.782 40.2463C110.782 40.585 110.725 40.8672 110.612 41.1495ZM109.026 40.5003C109.252 40.4721 109.422 40.3874 109.564 40.2463C109.706 40.1052 109.791 39.9076 109.791 39.6254C109.791 39.3149 109.706 39.0892 109.507 38.9198C109.337 38.7505 109.026 38.6658 108.658 38.6658H107.411V41.855H108.006V40.5568H108.431L109.224 41.855H109.847L109.026 40.5003ZM108.714 40.0205C108.629 40.0205 108.544 40.0205 108.431 40.0205H108.006V39.1174H108.431C108.516 39.1174 108.601 39.1174 108.714 39.1174C108.799 39.1174 108.884 39.1456 108.969 39.1738C109.054 39.2021 109.111 39.2585 109.139 39.3149C109.196 39.3714 109.196 39.4561 109.196 39.569C109.196 39.6818 109.167 39.7665 109.139 39.823C109.082 39.8794 109.026 39.9359 108.969 39.9641C108.884 39.9923 108.799 40.0205 108.714 40.0205Z" fill="#BBC3CF"/>
</svg>
