<svg width="64" height="64" viewBox="0 0 64 64" fill="none" xmlns="http://www.w3.org/2000/svg">
<rect width="64" height="64" rx="6" fill="#72A9BE"/>
<path d="M23.5 43.4568H27.1979C27.6801 43.4568 28.1593 43.5142 28.6267 43.6289L32.5339 44.5784C33.3817 44.785 34.2649 44.805 35.1216 44.6387L39.4417 43.7982C40.5829 43.5759 41.6328 43.0294 42.4555 42.2291L45.512 39.2558C46.3849 38.4081 46.3849 37.0326 45.512 36.1835C44.7261 35.419 43.4817 35.333 42.5926 35.9813L39.0304 38.5802C38.5202 38.9531 37.8995 39.1539 37.261 39.1539H33.8211L36.0107 39.1538C37.2448 39.1538 38.2445 38.1814 38.2445 36.9809V36.5463C38.2445 35.5495 37.5471 34.6803 36.5533 34.4393L33.1739 33.6175C32.6239 33.4841 32.0606 33.4167 31.4945 33.4167C30.1276 33.4167 27.6535 34.5483 27.6535 34.5483L23.5 36.2853M17.8333 35.6833L17.8333 43.9C17.8333 44.6934 17.8333 45.0901 17.9878 45.3932C18.1236 45.6597 18.3403 45.8764 18.6069 46.0123C18.9099 46.1667 19.3066 46.1667 20.1 46.1667H21.2333C22.0268 46.1667 22.4235 46.1667 22.7265 46.0123C22.9931 45.8765 23.2098 45.6597 23.3456 45.3932C23.5 45.0901 23.5 44.6934 23.5 43.9V35.6833C23.5 34.8899 23.5 34.4932 23.3456 34.1902C23.2098 33.9236 22.9931 33.7069 22.7265 33.5711C22.4235 33.4167 22.0268 33.4167 21.2333 33.4167H20.1C19.3066 33.4167 18.9099 33.4167 18.6069 33.5711C18.3403 33.7069 18.1236 33.9236 17.9878 34.1902C17.8333 34.4932 17.8333 34.8899 17.8333 35.6833ZM39.3545 20.089C38.509 18.3198 36.5597 17.3825 34.664 18.2872C32.7682 19.1919 31.9606 21.3373 32.7543 23.2207C33.2448 24.3847 34.6502 26.645 35.6523 28.202C36.0226 28.7773 36.2077 29.0649 36.4781 29.2332C36.71 29.3775 37.0004 29.4553 37.2734 29.4463C37.5917 29.4357 37.8958 29.2792 38.5041 28.9661C40.1504 28.1188 42.4977 26.864 43.5045 26.1012C45.1336 24.867 45.5371 22.5984 44.3175 20.8739C43.0978 19.1493 40.9713 18.9796 39.3545 20.089Z" stroke="white" stroke-width="2" stroke-linecap="round" stroke-linejoin="round"/>
</svg>
