<svg width="62" height="59" viewBox="0 0 62 59" fill="none" xmlns="http://www.w3.org/2000/svg">
<g clip-path="url(#clip0_2607_12616)">
<path d="M32.0754 0.0308583C34.4118 0.0925738 36.0674 1.23431 37.3671 3.00863C38.8835 5.09153 39.5024 7.51386 39.9821 9.98248C40.1677 10.9699 40.307 11.9728 40.4462 12.9603C40.4772 13.238 40.5855 13.67 40.1677 13.7163C39.8273 13.7471 39.6262 13.4231 39.5333 13.0837C39.0382 11.4019 38.4812 9.75105 37.6611 8.19273C37.2588 7.40586 36.8101 6.64984 36.1757 6.01726C34.7522 4.62866 33.4215 5.04524 32.4158 6.54184C31.441 7.99216 31.178 9.68933 31.0078 11.4019C30.8066 13.4077 30.6519 15.4134 30.7292 17.4346C30.8376 19.9804 31.0078 22.5107 31.1934 25.0565C31.2399 25.7199 30.9459 26.1365 30.4353 26.4914C28.037 28.1114 25.6387 29.716 23.2558 31.3515C22.6988 31.7372 22.1573 32.0149 21.5229 31.6446C20.9349 31.3052 20.8266 30.7343 20.8111 30.0709C20.7647 28.3891 20.5326 26.7228 20.5326 25.0411C20.5481 21.8627 20.7492 18.7152 21.2598 15.5677C21.8478 11.9728 22.7916 8.53217 24.5246 5.30753C25.5303 3.37892 26.8765 1.77432 28.7797 0.6943C29.739 0.154289 30.853 -0.0925727 32.0754 0.0308583Z" fill="#72AAC0"/>
<path d="M40.1987 46.518C39.5952 48.9558 38.837 51.2856 37.6456 53.4456C36.6399 55.2816 35.4021 56.9171 33.5917 58.0743C31.4255 59.4629 28.2536 59.2469 26.273 57.7194C24.2925 56.2074 23.3796 54.0628 22.6678 51.8101C22.1263 50.0975 21.8942 48.3232 21.5847 46.5489C21.5538 46.3792 21.5538 46.194 21.5847 46.0089C21.6157 45.762 21.4455 45.3609 21.8323 45.3146C22.1727 45.2837 22.4203 45.5152 22.5131 45.9009C22.9773 47.7678 23.7045 49.5421 24.602 51.2547C24.9424 51.9027 25.3601 52.5044 25.9017 53.029C27.3561 54.4485 28.6094 53.9548 29.6152 52.4582C30.559 51.0541 30.7911 49.3724 31.0542 47.7215C31.2708 46.3483 31.2398 44.9597 31.2708 43.602C31.3017 41.7351 31.2089 39.8373 31.0696 37.955C30.9613 36.5047 30.7602 35.0544 30.8685 33.5886C30.8994 33.2338 31.0077 32.9561 31.3636 32.7092C33.8702 31.0429 36.3614 29.3457 38.837 27.6331C39.3631 27.2628 39.9047 27.0159 40.5236 27.3708C41.1116 27.7102 41.1735 28.2965 41.2663 28.9446C41.4984 30.5646 41.3437 32.2001 41.5139 33.8355C41.6841 35.6253 41.3591 37.4459 41.2818 39.251C41.2044 40.7014 41.0187 42.1362 40.7866 43.5557C40.5855 44.5277 40.3998 45.4997 40.1987 46.518Z" fill="#0B70BA"/>
<path d="M49.0492 21.8319C46.3104 20.4433 43.417 19.8415 40.4462 19.4404C38.8216 19.2244 37.1969 19.2244 35.5877 19.0238C35.3247 18.9929 35.1545 18.9312 35.0771 18.6844C34.9843 18.4066 35.139 18.2215 35.3556 18.0672C35.6187 17.8975 35.8972 17.9284 36.1757 17.9284C38.3883 17.9284 40.6164 17.8204 42.829 17.9592C45.3821 18.1135 47.9196 18.3141 50.4572 18.8078C52.7781 19.2552 55.0372 19.8261 57.126 20.8753C59.2303 21.9244 60.9788 23.4056 61.6596 25.7662C62.4023 28.3274 61.8298 30.6417 60.1897 32.7246C58.1318 35.3167 55.5014 37.1527 52.6234 38.7265C50.9214 39.6522 49.1575 40.4082 47.2852 40.9791C46.1867 41.3031 45.7998 41.0717 45.8463 39.9762C45.9391 38.063 46.001 36.1498 46.001 34.2212C46.001 33.4035 45.8463 32.6012 45.7998 31.7835C45.7534 30.9503 46.1557 30.4875 46.8211 30.1789C48.0589 29.608 49.2812 29.0063 50.3025 28.1268C52.2675 26.4451 52.4687 24.5628 50.3025 22.7422C49.9621 22.4027 49.5133 22.1404 49.0492 21.8319Z" fill="#F2652F"/>
<path d="M20.7956 41.0716C16.324 41.0408 11.9761 40.5933 7.75195 39.3436C5.69405 38.7419 3.74447 37.8316 2.1817 36.3195C-0.309439 33.8509 -0.665317 30.2406 1.11407 27.3091C2.73873 24.6245 5.19892 22.8039 7.81384 21.1838C9.94911 19.8724 12.2082 18.7924 14.6374 18.0672C15.8133 17.7123 16.2311 17.9438 16.1383 19.1164C15.9526 21.1838 16.0454 23.2667 15.999 25.3342C15.9835 25.9513 16.1073 26.5531 16.1692 27.1548C16.2621 27.988 15.8752 28.528 15.148 28.852C13.9566 29.392 12.8116 30.0246 11.744 30.8269C9.50039 32.524 9.6706 34.8538 11.8213 36.4276C14.003 38.0167 16.5251 38.7265 19.14 39.2047C21.0432 39.5596 22.9464 39.8528 24.896 39.8528C25.3756 39.8528 25.8398 40.0225 26.3349 39.9916C26.6599 39.9762 26.9229 40.1613 26.9538 40.4545C26.9848 40.7476 26.7218 40.9636 26.4432 41.0408C26.1957 41.1025 25.9326 41.0871 25.6696 41.0871C24.0759 41.0716 22.4667 41.0716 20.7956 41.0716Z" fill="#D33C20"/>
</g>
<defs>
<clipPath id="clip0_2607_12616">
<rect width="62" height="59" fill="white"/>
</clipPath>
</defs>
</svg>
