<svg width="91" height="155" viewBox="0 0 91 155" fill="none" xmlns="http://www.w3.org/2000/svg">
<g clip-path="url(#clip0_2799_829)">
<path d="M10.2693 126.776H11.6143V133.508C11.6143 135.81 12.3162 136.393 13.5882 136.393C14.86 136.393 15.5618 135.81 15.5618 133.508V126.776H16.9069V133.449C16.9069 136.364 15.825 137.515 13.5882 137.515C11.3511 137.515 10.2693 136.364 10.2693 133.449V126.776Z" fill="white"/>
<path d="M22.9748 137.296V132.196C22.9748 131.41 22.697 130.768 21.6737 130.768C20.3578 130.768 20.1677 131.934 20.1677 132.939V137.296H18.9689V131.468C18.9689 130.958 18.9396 130.448 18.8956 129.938H20.1677V130.885H20.2262C20.694 130.055 21.2495 129.792 22.2 129.792C23.779 129.792 24.1736 130.739 24.1736 132.196V137.296H22.9748Z" fill="white"/>
<path d="M27.3028 137.296H26.1038V129.938H27.3028V137.296ZM26.0309 126.776H27.3759V128.058H26.0309V126.776Z" fill="white"/>
<path d="M28.3848 129.938H29.7298L31.382 136.174H31.411L33.1948 129.938H34.4521L32.1423 137.296H30.5778L28.3848 129.938Z" fill="white"/>
<path d="M39.6281 133.1C39.6281 130.958 39.0284 130.696 38.1513 130.696C37.391 130.696 36.7625 131.06 36.7478 133.1H39.6281ZM36.7478 134.003C36.7478 136.058 37.3033 136.466 38.2391 136.466C39.0578 136.466 39.4817 135.81 39.5256 135.067H40.8415C40.8269 136.699 39.818 137.442 38.2683 137.442C36.704 137.442 35.4612 136.976 35.4612 133.726C35.4612 131.57 35.7097 129.792 38.2683 129.792C40.3738 129.792 40.8998 130.943 40.8998 133.377V134.003H36.7478Z" fill="white"/>
<path d="M43.9852 131.045H44.0144C44.5116 129.923 45.1255 129.792 46.2952 129.792V131.031C46.193 131.016 46.076 131.002 45.9735 130.987C45.8712 130.972 45.7688 130.958 45.6519 130.958C44.3215 130.958 43.9852 131.963 43.9852 132.954V137.296H42.7863V129.938H43.9852V131.045Z" fill="white"/>
<path d="M49.6435 137.442C48.0499 137.442 47.0557 136.742 47.0997 135.052H48.4593C48.4593 135.475 48.4739 136.466 49.6873 136.466C50.4038 136.466 50.9594 136.101 50.9594 135.344C50.9594 134.032 47.2751 134.003 47.2751 131.803C47.2751 131.031 47.7428 129.792 49.8189 129.792C51.1348 129.792 52.2605 130.419 52.1581 131.876H50.8276C50.8424 131.104 50.433 130.696 49.6728 130.696C49.0295 130.696 48.5324 131.045 48.5324 131.687C48.5324 132.983 52.2166 132.954 52.2166 135.198C52.2166 136.815 51.1056 137.442 49.6435 137.442Z" fill="white"/>
<path d="M54.9801 137.296H53.7813V129.938H54.9801V137.296ZM53.708 126.776H55.0532V128.058H53.708V126.776Z" fill="white"/>
<path d="M57.0414 129.938V128.524L58.2404 127.986V129.938H59.8486V130.841H58.2404V135.344C58.2404 135.81 58.2404 136.407 59.3368 136.407C59.4245 136.407 59.6146 136.378 59.8778 136.349V137.267C59.483 137.296 59.0883 137.383 58.6936 137.383C57.5532 137.383 57.0414 136.917 57.0414 136.072V130.841H55.8279V129.938H57.0414Z" fill="white"/>
<path d="M63.0506 135.926H63.0798L64.8489 129.938H66.15L62.802 140.079H61.5594L62.3927 137.296L59.8926 129.938H61.2814L63.0506 135.926Z" fill="white"/>
<path d="M74.4251 133.216C74.4251 131.206 73.7964 130.769 72.8756 130.769C71.9545 130.769 71.3258 131.206 71.3258 133.216C71.3258 135.606 71.6326 136.466 72.8756 136.466C74.1183 136.466 74.4251 135.606 74.4251 133.216ZM70.0685 133.726C70.0685 131.57 70.3169 129.792 72.8756 129.792C75.434 129.792 75.6826 131.57 75.6826 133.726C75.6826 136.976 74.4398 137.442 72.8756 137.442C71.3111 137.442 70.0685 136.976 70.0685 133.726Z" fill="white"/>
<path d="M77.6567 129.938V128.51C77.6567 127.024 78.7093 126.733 79.7766 126.733C80.025 126.733 80.1714 126.747 80.3468 126.776V127.636C79.0748 127.549 78.8555 128.088 78.8555 128.685V129.938H80.3468V130.841H78.8555V137.296H77.6567V130.841H76.5162V129.938H77.6567Z" fill="white"/>
<path d="M7.9881 147.161C8.00268 146.564 7.95881 145.966 7.68096 145.631C7.40328 145.296 6.77454 145.18 6.49675 145.18C5.38557 145.18 4.94707 145.85 4.90321 145.995C4.85927 146.112 4.59618 146.374 4.59618 148.181V150.993C4.59618 153.572 5.44409 153.878 6.48216 153.878C6.89157 153.878 8.13422 153.732 8.14881 151.678H9.53778C9.59622 155 7.24239 155 6.55527 155C5.23951 155 3.2218 154.913 3.2218 150.833V147.861C3.2218 144.888 4.53773 144.043 6.61371 144.043C8.70445 144.043 9.50862 145.121 9.37707 147.161H7.9881Z" fill="white"/>
<path d="M15.3865 150.585C15.3865 148.443 14.7871 148.181 13.9097 148.181C13.1496 148.181 12.521 148.545 12.5062 150.585H15.3865ZM12.5062 151.488C12.5062 153.543 13.0618 153.951 13.9975 153.951C14.8163 153.951 15.2403 153.295 15.2841 152.552H16.5999C16.5853 154.184 15.5766 154.927 14.0267 154.927C12.4624 154.927 11.2196 154.461 11.2196 151.212C11.2196 149.055 11.4683 147.278 14.0267 147.278C16.132 147.278 16.6586 148.429 16.6586 150.862V151.488H12.5062Z" fill="white"/>
<path d="M22.6533 154.781V149.682C22.6533 148.895 22.3755 148.254 21.352 148.254C20.0362 148.254 19.8461 149.419 19.8461 150.425V154.781H18.6472V148.953C18.6472 148.443 18.618 147.933 18.5741 147.423H19.8461V148.37H19.9046C20.3725 147.54 20.9281 147.278 21.8783 147.278C23.4574 147.278 23.8522 148.225 23.8522 149.682V154.781H22.6533Z" fill="white"/>
<path d="M26.0894 147.423V146.01L27.2883 145.471V147.423H28.8965V148.327H27.2883V152.829C27.2883 153.295 27.2883 153.893 28.3848 153.893C28.4726 153.893 28.6626 153.863 28.9257 153.834V154.752C28.531 154.781 28.1364 154.869 27.7416 154.869C26.6013 154.869 26.0894 154.402 26.0894 153.557V148.327H24.876V147.423H26.0894Z" fill="white"/>
<path d="M31.2653 148.531H31.2944C31.7917 147.409 32.4056 147.278 33.5752 147.278V148.516C33.4728 148.501 33.3559 148.487 33.2537 148.472C33.1513 148.458 33.049 148.443 32.932 148.443C31.6015 148.443 31.2653 149.449 31.2653 150.439V154.781H30.0664V147.423H31.2653V148.531Z" fill="white"/>
<path d="M35.9878 152.596C35.9878 153.31 36.3387 153.951 37.1427 153.951C37.8737 153.951 38.7801 153.499 38.6631 151.124C37.5228 151.139 35.9878 151.037 35.9878 152.596ZM38.6925 153.718H38.6631C38.2978 154.563 37.7275 154.927 36.8065 154.927C35.2421 154.927 34.7888 153.922 34.7888 152.508C34.7888 150.279 36.982 150.177 38.6631 150.221C38.6925 149.245 38.7071 148.181 37.4205 148.181C36.6165 148.181 36.1925 148.72 36.2656 149.492H34.9643C35.0228 147.846 35.9 147.278 37.4643 147.278C39.365 147.278 39.8621 148.254 39.8621 149.492V153.033C39.8621 153.616 39.9206 154.213 40.0084 154.781H38.6925V153.718Z" fill="white"/>
<path d="M43.3715 154.781H42.1727V144.262H43.3715V154.781Z" fill="white"/>
<path d="M48.7225 154.781V144.262H53.9566V145.427H50.0675V148.807H53.7519V149.973H50.0675V154.781H48.7225Z" fill="white"/>
<path d="M56.3546 154.781H55.1556V144.262H56.3546V154.781Z" fill="white"/>
<path d="M62.5827 150.702C62.5827 148.691 61.954 148.254 61.0328 148.254C60.1118 148.254 59.4831 148.691 59.4831 150.702C59.4831 153.091 59.7902 153.951 61.0328 153.951C62.2756 153.951 62.5827 153.091 62.5827 150.702ZM58.2257 151.212C58.2257 149.055 58.4744 147.278 61.0328 147.278C63.5914 147.278 63.8399 149.055 63.8399 151.212C63.8399 154.461 62.5971 154.927 61.0328 154.927C59.4685 154.927 58.2257 154.461 58.2257 151.212Z" fill="white"/>
<path d="M66.9838 148.531H67.0131C67.51 147.409 68.1243 147.278 69.2938 147.278V148.516C69.1915 148.501 69.0745 148.487 68.9721 148.472C68.87 148.458 68.7674 148.443 68.6505 148.443C67.3201 148.443 66.9838 149.449 66.9838 150.439V154.781H65.785V147.423H66.9838V148.531Z" fill="white"/>
<path d="M71.7796 154.781H70.5807V147.423H71.7796V154.781ZM70.5076 144.262H71.8526V145.544H70.5076V144.262Z" fill="white"/>
<path d="M76.3703 148.254C75.0838 148.254 74.9083 149.274 74.9083 151.241C74.9083 152.348 74.9083 153.951 76.4143 153.951C77.7593 153.951 77.7593 152.29 77.7593 150.804C77.7593 149.828 77.7008 148.254 76.3703 148.254ZM77.7593 144.262H78.9581V154.781H77.7593V153.907H77.73C77.3206 154.592 76.8089 154.927 76.034 154.927C74.8498 154.927 73.6509 154.461 73.6509 151.226C73.6509 149.39 73.7095 147.278 76.0925 147.278C76.7943 147.278 77.306 147.584 77.7154 148.167H77.7593V144.262Z" fill="white"/>
<path d="M82.2628 152.596C82.2628 153.31 82.6137 153.951 83.4177 153.951C84.1488 153.951 85.0551 153.499 84.9382 151.124C83.7979 151.139 82.2628 151.037 82.2628 152.596ZM84.9675 153.718H84.9382C84.5728 154.563 84.0025 154.927 83.0816 154.927C81.5171 154.927 81.0638 153.922 81.0638 152.508C81.0638 150.279 83.257 150.177 84.9382 150.221C84.9676 149.245 84.9822 148.181 83.6955 148.181C82.8915 148.181 82.4675 148.72 82.5406 149.492H81.2393C81.2978 147.846 82.1751 147.278 83.7394 147.278C85.64 147.278 86.1371 148.254 86.1371 149.492V153.033C86.1371 153.616 86.1956 154.213 86.2835 154.781H84.9675V153.718Z" fill="white"/>
<path d="M90.0544 117.728H0V117.418H90.0544V117.728Z" fill="#74ACBF"/>
<path d="M10.3913 99.8809C2.44129 99.8809 0.953281 95.2204 1.29341 89.9246H7.71292C7.71292 92.8481 7.8404 95.3052 11.369 95.3052C13.5371 95.3052 14.5999 93.9071 14.5999 91.8311C14.5999 86.3233 1.67602 85.9845 1.67602 76.8755C1.67602 72.0879 3.97171 68.2749 11.7942 68.2749C18.0435 68.2749 21.1469 71.0712 20.7218 77.4685H14.4725C14.4725 75.1809 14.0898 72.8506 11.4964 72.8506C9.41335 72.8506 8.18053 73.9944 8.18053 76.1128C8.18053 81.9172 21.1045 81.4087 21.1045 91.0261C21.1045 98.9491 15.2801 99.8809 10.3913 99.8809Z" fill="white"/>
<path d="M38.3614 81.0275V68.7833H44.7808V99.3726H38.3614V85.7302H31.0068V99.3726H24.5872V68.7833H31.0068V81.0275H38.3614Z" fill="white"/>
<path d="M55.5716 82.2136H59.1426C61.0557 82.2136 62.3736 80.1377 62.3736 78.1039C62.3736 75.6044 61.6934 73.486 58.8024 73.486H55.5716V82.2136ZM49.152 68.7833H60.7158C66.5825 68.7833 68.8782 72.3423 68.8782 77.9348C68.8782 81.4086 67.8578 86.9164 60.333 86.9164H55.5716V99.3726H49.152V68.7833Z" fill="white"/>
<path d="M71.3873 99.3726V68.7833H88.1373V73.486H77.807V81.0275H87.3297V85.7302H77.807V94.6698H88.4775V99.3726H71.3873Z" fill="white"/>
<path d="M1.83618 104.493H2.90944V108.548H5.01526V109.38H1.83618V104.493Z" fill="#F14F2C"/>
<path d="M7.67111 107.296C7.67111 107.14 7.6575 106.531 7.07329 106.531C6.63174 106.531 6.44837 106.896 6.42803 107.296H7.67111ZM6.39406 107.925C6.39406 108.148 6.39406 108.839 7.09371 108.839C7.34501 108.839 7.59631 108.744 7.69139 108.365H8.60845C8.59484 108.528 8.56094 108.819 8.28242 109.11C8.03104 109.374 7.58276 109.509 7.0801 109.509C6.78802 109.509 6.23098 109.455 5.87097 109.083C5.55855 108.758 5.42944 108.297 5.42944 107.749C5.42944 107.194 5.5653 106.531 6.14263 106.131C6.40754 105.955 6.73364 105.847 7.10726 105.847C7.59631 105.847 8.18058 106.036 8.49301 106.673C8.72395 107.14 8.71034 107.641 8.69679 107.925H6.39406Z" fill="#F14F2C"/>
<path d="M10.1842 108.325C10.1842 108.555 10.3404 108.812 10.6734 108.812C10.8568 108.812 11.0061 108.724 11.1012 108.616C11.2779 108.399 11.2915 108.135 11.2915 107.769C10.6461 107.715 10.1842 107.918 10.1842 108.325ZM11.4205 109.381C11.3866 109.171 11.3866 109.015 11.3866 108.913C11.0061 109.462 10.551 109.462 10.3609 109.462C9.86501 109.462 9.6408 109.32 9.505 109.191C9.30115 108.988 9.20605 108.71 9.20605 108.44C9.20605 108.169 9.30116 107.668 9.93293 107.377C10.3541 107.187 10.9586 107.187 11.2915 107.187C11.2915 106.964 11.2846 106.856 11.2439 106.734C11.1556 106.483 10.8907 106.449 10.7956 106.449C10.653 106.449 10.5035 106.51 10.4152 106.639C10.3404 106.754 10.3404 106.862 10.3404 106.944H9.35553C9.36227 106.761 9.38275 106.395 9.74268 106.138C10.0552 105.915 10.456 105.86 10.7821 105.86C11.0673 105.86 11.6651 105.908 12.0047 106.3C12.2357 106.578 12.2425 106.984 12.2425 107.14L12.2492 108.514C12.2492 108.805 12.2696 109.096 12.3308 109.381H11.4205Z" fill="#F14F2C"/>
<path d="M14.64 108.798C14.9321 108.798 15.1698 108.622 15.2785 108.412C15.4279 108.128 15.4415 107.776 15.4415 107.607C15.4415 106.937 15.1495 106.571 14.6944 106.571C14.0218 106.571 13.9471 107.377 13.9471 107.722C13.9471 108.291 14.1374 108.798 14.64 108.798ZM15.4077 104.493H16.4198V108.825C16.4198 109.029 16.4333 109.252 16.4469 109.381H15.4279L15.4008 108.886C15.3329 109.008 15.2649 109.137 15.0544 109.272C14.803 109.435 14.5381 109.448 14.3887 109.448C13.4717 109.448 12.9282 108.819 12.9282 107.749C12.9282 106.619 13.5464 105.915 14.443 105.915C15.0611 105.915 15.3193 106.26 15.4077 106.382V104.493Z" fill="#F14F2C"/>
<path d="M17.2888 105.955H18.2942V109.38H17.2888V105.955ZM17.2549 104.493H18.3281V105.366H17.2549V104.493Z" fill="#F14F2C"/>
<path d="M19.1908 106.571C19.1908 106.558 19.1908 106.185 19.1704 105.948H20.1349L20.1622 106.463C20.2572 106.307 20.5289 105.867 21.2762 105.867C21.9486 105.867 22.2339 106.273 22.3222 106.51C22.397 106.72 22.4174 106.896 22.4174 107.532V109.38H21.3916V107.255C21.3916 107.113 21.3916 106.991 21.3373 106.882C21.2626 106.734 21.1063 106.591 20.8483 106.591C20.6308 106.591 20.4339 106.693 20.3252 106.855C20.264 106.943 20.2029 107.113 20.2029 107.377V109.38H19.1908V106.571Z" fill="#F14F2C"/>
<path d="M24.8557 108.629C25.562 108.629 25.562 107.803 25.562 107.654C25.562 107.268 25.4874 106.612 24.8761 106.612C24.4956 106.612 24.1833 106.903 24.1833 107.634C24.1833 107.803 24.1833 108.629 24.8557 108.629ZM26.581 105.975C26.5538 106.246 26.5334 106.476 26.5334 106.822V109.347C26.5334 110.606 25.4805 110.728 24.8218 110.728C24.3326 110.728 23.3748 110.667 23.3138 109.631H24.2783C24.2919 109.732 24.3395 110.105 24.8761 110.105C25.1749 110.105 25.4331 109.963 25.5009 109.658C25.5417 109.489 25.5417 109.367 25.5485 108.846C25.2293 109.265 24.8693 109.313 24.6247 109.313C23.6398 109.313 23.1779 108.46 23.1779 107.634C23.1779 106.767 23.6602 105.942 24.6451 105.942C25.2701 105.942 25.5009 106.28 25.603 106.429L25.6369 105.975H26.581Z" fill="#F14F2C"/>
<path d="M29.3793 104.486H30.4322V106.442H32.2866V104.486H33.353V109.38H32.3001V107.235H30.4322V109.38H29.3793V104.486Z" fill="#F14F2C"/>
<path d="M34.2696 105.955H35.2751V109.38H34.2696V105.955ZM34.2357 104.493H35.309V105.366H34.2357V104.493Z" fill="#F14F2C"/>
<path d="M36.8577 108.392C36.8713 108.609 37.0071 108.859 37.4283 108.859C37.7882 108.859 37.9581 108.656 37.9581 108.453C37.9581 108.297 37.8766 108.175 37.4827 108.067L36.8577 107.898C36.5792 107.817 35.9882 107.647 35.9882 106.95C35.9882 106.287 36.5995 105.88 37.4894 105.88C38.1959 105.88 38.7664 106.205 38.7936 106.889H37.8766C37.8493 106.51 37.5438 106.483 37.3875 106.483C37.1158 106.483 36.912 106.612 36.912 106.821C36.912 107.052 37.0819 107.099 37.3807 107.18L37.9988 107.349C38.6238 107.519 38.9159 107.837 38.9159 108.304C38.9159 108.893 38.4065 109.482 37.3401 109.482C36.8985 109.482 36.4773 109.387 36.1648 109.062C35.9406 108.825 35.9203 108.554 35.9136 108.392H36.8577Z" fill="#F14F2C"/>
<path d="M41.9793 107.64C41.9793 107.234 41.8774 106.537 41.2865 106.537C40.9603 106.537 40.4985 106.781 40.4985 107.701C40.4985 107.904 40.5053 108.771 41.2456 108.771C41.7212 108.771 41.9793 108.317 41.9793 107.64ZM40.4985 105.962L40.5257 106.449C40.838 105.901 41.4087 105.894 41.5717 105.894C42.4616 105.894 42.9982 106.557 42.9982 107.6C42.9982 108.568 42.4955 109.428 41.5038 109.428C40.8856 109.428 40.6343 109.103 40.5459 108.987V110.693H39.5203V105.962H40.4985Z" fill="#F14F2C"/>
<path d="M44.5263 108.325C44.5263 108.555 44.6825 108.812 45.0154 108.812C45.1987 108.812 45.3482 108.724 45.4433 108.616C45.62 108.399 45.6335 108.135 45.6335 107.769C44.9881 107.715 44.5263 107.918 44.5263 108.325ZM45.7626 109.381C45.7285 109.171 45.7285 109.015 45.7285 108.913C45.3482 109.462 44.8931 109.462 44.703 109.462C44.2071 109.462 43.9828 109.32 43.8471 109.191C43.6433 108.988 43.5481 108.71 43.5481 108.44C43.5481 108.169 43.6433 107.668 44.275 107.377C44.6962 107.187 45.3006 107.187 45.6335 107.187C45.6335 106.964 45.6268 106.856 45.5859 106.734C45.4977 106.483 45.2328 106.449 45.1376 106.449C44.995 106.449 44.8457 106.51 44.7573 106.639C44.6825 106.754 44.6825 106.862 44.6825 106.944H43.6976C43.7044 106.761 43.7248 106.395 44.0847 106.138C44.3972 105.915 44.7981 105.86 45.1241 105.86C45.4095 105.86 46.0071 105.908 46.3468 106.3C46.5776 106.578 46.5845 106.984 46.5845 107.14L46.5913 108.514C46.5913 108.805 46.6117 109.096 46.6728 109.381H45.7626Z" fill="#F14F2C"/>
<path d="M47.4945 106.571C47.4945 106.558 47.4945 106.185 47.4741 105.948H48.4387L48.4659 106.463C48.5609 106.307 48.8326 105.867 49.5799 105.867C50.2523 105.867 50.5376 106.273 50.6259 106.51C50.7006 106.72 50.7211 106.896 50.7211 107.532V109.38H49.6953V107.255C49.6953 107.113 49.6953 106.991 49.641 106.882C49.5662 106.734 49.41 106.591 49.152 106.591C48.9347 106.591 48.7376 106.693 48.6289 106.855C48.5678 106.943 48.5066 107.113 48.5066 107.377V109.38H47.4945V106.571Z" fill="#F14F2C"/>
<path d="M51.6311 105.955H52.6362V109.38H51.6311V105.955ZM51.597 104.493H52.6703V105.366H51.597V104.493Z" fill="#F14F2C"/>
<path d="M55.3331 107.173C55.3194 107.052 55.2788 106.544 54.8915 106.544C54.4162 106.544 54.3617 107.262 54.3617 107.634C54.3617 107.823 54.3821 108.432 54.6129 108.683C54.7081 108.785 54.81 108.798 54.8847 108.798C54.9935 108.798 55.306 108.751 55.3466 108.141H56.3384C56.3248 108.405 56.2909 108.818 55.8968 109.15C55.6523 109.36 55.3466 109.468 54.9187 109.468C54.4636 109.468 54.0628 109.367 53.7504 109.015C53.4516 108.67 53.3157 108.216 53.3157 107.668C53.3157 106.111 54.4636 105.894 54.9187 105.894C55.5572 105.894 56.3112 106.246 56.318 107.173H55.3331Z" fill="#F14F2C"/>
<path d="M57.6152 108.392C57.6287 108.609 57.7647 108.859 58.1857 108.859C58.5458 108.859 58.7155 108.656 58.7155 108.453C58.7155 108.297 58.6342 108.175 58.2402 108.067L57.6152 107.898C57.3366 107.817 56.7457 107.647 56.7457 106.95C56.7457 106.287 57.357 105.88 58.247 105.88C58.9533 105.88 59.524 106.205 59.5511 106.889H58.6342C58.6069 106.51 58.3011 106.483 58.145 106.483C57.8732 106.483 57.6695 106.612 57.6695 106.821C57.6695 107.052 57.8393 107.099 58.1381 107.18L58.7564 107.349C59.3814 107.519 59.6735 107.837 59.6735 108.304C59.6735 108.893 59.1639 109.482 58.0975 109.482C57.6559 109.482 57.2347 109.387 56.9222 109.062C56.6982 108.825 56.6779 108.554 56.671 108.392H57.6152Z" fill="#F14F2C"/>
<path d="M62.2001 105.955H63.2054V109.38H62.2001V105.955ZM62.166 104.493H63.2393V105.366H62.166V104.493Z" fill="#F14F2C"/>
<path d="M64.1019 106.571C64.1019 106.558 64.1019 106.185 64.0815 105.948H65.0462L65.0733 106.463C65.1685 106.307 65.4402 105.867 66.1875 105.867C66.8599 105.867 67.1452 106.273 67.2333 106.51C67.3082 106.72 67.3285 106.896 67.3285 107.532V109.38H66.3029V107.255C66.3029 107.113 66.3029 106.991 66.2484 106.882C66.1738 106.734 66.0176 106.591 65.7596 106.591C65.5421 106.591 65.345 106.693 65.2363 106.855C65.1753 106.943 65.114 107.113 65.114 107.377V109.38H64.1019V106.571Z" fill="#F14F2C"/>
<path d="M70.9963 107.817C70.9963 108.047 70.9826 108.744 71.886 108.744C72.4565 108.744 72.8166 108.473 72.8166 108.06C72.8166 107.627 72.511 107.553 71.886 107.404C70.7177 107.113 70.0792 106.768 70.0792 105.921C70.0792 105.116 70.6566 104.405 72.0218 104.405C72.5313 104.405 73.1358 104.52 73.5027 104.98C73.7811 105.332 73.7811 105.725 73.7811 105.887H72.769C72.7555 105.718 72.701 105.143 71.9743 105.143C71.4851 105.143 71.166 105.407 71.166 105.806C71.166 106.26 71.526 106.341 72.2325 106.517C73.0815 106.72 73.9171 106.95 73.9171 107.905C73.9171 108.785 73.1834 109.496 71.8249 109.496C69.9432 109.496 69.9297 108.291 69.9229 107.817H70.9963Z" fill="#F14F2C"/>
<path d="M75.6356 105.298H74.175V104.486H78.1556V105.298H76.6952V109.38H75.6356V105.298Z" fill="#F14F2C"/>
<path d="M78.7327 104.486H82.0204V105.285H79.7855V106.449H81.8778V107.248H79.7855V108.568H82.0951V109.38H78.7327V104.486Z" fill="#F14F2C"/>
<path d="M82.7877 104.486H84.5063L85.5457 108.047L86.6665 104.486H88.3374V109.38H87.2914V105.183L85.9532 109.38H85.0837L83.7726 105.183V109.38H82.7877V104.486Z" fill="#F14F2C"/>
<path d="M44.6195 25.8419C44.9932 25.5873 45.2021 25.1576 45.1651 24.708C44.5624 17.3892 43.8761 6.68203 47.7226 5.14415C50.3844 4.07968 52.4088 9.04442 53.5846 13.0881C53.7336 13.6001 54.3919 13.5618 54.2995 12.8458C53.5432 6.98849 52.0959 1.54818 47.5313 0.255995C39.1269 -2.12375 33.3779 12.461 35.0398 30.0923C35.13 31.049 36.2143 31.5652 37.0104 31.0232L44.6195 25.8419Z" fill="#74ACBF"/>
<path d="M45.4346 32.317C45.0609 32.5717 44.8518 33.0012 44.8888 33.4508C45.4917 40.7697 46.1778 51.4769 42.3315 53.0147C39.6695 54.0792 37.6451 49.1145 36.4693 45.0708C36.3205 44.5588 35.6621 44.5971 35.7546 45.3131C36.5107 51.1704 37.9582 56.6107 42.5227 57.9029C50.9271 60.2822 56.6762 45.6978 55.0143 28.0666C54.9241 27.1098 53.8398 26.5937 53.0436 27.1359L45.4346 32.317Z" fill="#366CBD"/>
<path d="M40.5625 39.4707C32.0394 39.2719 23.9641 36.9332 24.3671 32.7978C24.5776 30.6326 27.6952 29.0874 29.456 28.2937C29.891 28.0975 30.3055 27.7775 30.3004 27.3023C30.3004 27.2939 30.3018 27.281 30.3018 27.272C30.2925 27.0374 30.2838 26.8178 30.2757 26.6047C30.1072 23.7125 30.1371 20.9227 30.3475 18.2993C30.2917 17.7535 29.8625 17.5591 28.993 17.831C23.6747 19.4927 19.2925 22.6396 17.0726 25.0195C13.6714 28.6659 14.1099 32.2132 15.7041 34.5658C19.6893 40.4475 33.6182 40.6814 40.4964 40.358C41.0528 40.332 41.1147 39.4836 40.5625 39.4707Z" fill="#D43222"/>
<path d="M49.4916 18.6882C58.0147 18.8869 66.0898 21.2256 65.6869 25.361C65.4765 27.5262 62.3589 29.0714 60.598 29.865C60.1629 30.0613 59.7484 30.3812 59.7537 30.8566C59.7537 30.8648 59.7521 30.8777 59.7521 30.8867C59.7616 31.1214 59.7702 31.341 59.7784 31.554C59.9469 34.4464 59.9168 37.236 59.7064 39.8594C59.7622 40.4052 60.1914 40.5996 61.061 40.3279C66.3794 38.6658 70.7614 35.5192 72.9815 33.1392C76.3827 29.493 75.9442 25.9457 74.3499 23.5931C70.3646 17.7113 56.4358 17.4774 49.5576 17.8007C49.0013 17.8269 48.9394 18.6753 49.4916 18.6882Z" fill="#F14F2C"/>
<path d="M89.9685 108.437L90.1768 108.437C90.2261 108.437 90.2628 108.421 90.2866 108.389C90.3106 108.358 90.3226 108.32 90.3224 108.275C90.3224 108.256 90.3201 108.238 90.3154 108.221C90.3107 108.203 90.3027 108.187 90.2911 108.172C90.2796 108.158 90.2645 108.146 90.2459 108.137C90.2275 108.127 90.2044 108.123 90.1767 108.123L89.9682 108.123L89.9685 108.437ZM89.969 109.011H89.8069L89.8063 108.012L90.2042 108.012C90.2519 108.012 90.2938 108.019 90.3292 108.034C90.3647 108.049 90.3941 108.067 90.4171 108.091C90.4403 108.113 90.4574 108.14 90.4682 108.17C90.4789 108.2 90.4845 108.23 90.4845 108.261C90.4846 108.319 90.4644 108.369 90.4244 108.411C90.3843 108.452 90.3319 108.479 90.267 108.492V108.496C90.298 108.5 90.3241 108.505 90.3457 108.514C90.3674 108.522 90.3851 108.535 90.3991 108.554C90.4129 108.572 90.4234 108.597 90.4304 108.628C90.4374 108.658 90.4416 108.699 90.4431 108.75C90.4431 108.761 90.4444 108.778 90.4467 108.801C90.449 108.824 90.4517 108.848 90.4548 108.873C90.4579 108.899 90.4619 108.924 90.4664 108.949C90.4711 108.975 90.4764 108.995 90.4826 109.011L90.323 109.011C90.303 108.975 90.2924 108.928 90.2916 108.869C90.2908 108.81 90.2873 108.746 90.281 108.679C90.2779 108.652 90.2706 108.632 90.2591 108.616C90.2474 108.601 90.2341 108.59 90.2185 108.582C90.2031 108.574 90.1874 108.569 90.1711 108.568C90.1549 108.566 90.1415 108.566 90.1306 108.566L89.9687 108.566L89.969 109.011ZM90.1323 107.772C90.0289 107.772 89.9321 107.792 89.8419 107.83C89.7517 107.869 89.6732 107.921 89.606 107.988C89.5389 108.055 89.4862 108.134 89.4476 108.224C89.4092 108.314 89.3899 108.409 89.3901 108.511C89.3901 108.614 89.4095 108.71 89.4481 108.799C89.4868 108.888 89.5396 108.966 89.6067 109.033C89.6739 109.1 89.7526 109.153 89.843 109.191C89.9332 109.229 90.03 109.248 90.1334 109.248C90.2367 109.248 90.3331 109.229 90.4227 109.19C90.512 109.152 90.5899 109.099 90.6564 109.032C90.7225 108.965 90.775 108.887 90.8135 108.798C90.8519 108.709 90.8712 108.613 90.8712 108.51C90.871 108.408 90.8516 108.313 90.813 108.223C90.7744 108.133 90.7218 108.054 90.6554 107.988C90.5892 107.921 90.5111 107.868 90.4216 107.83C90.3322 107.791 90.2356 107.772 90.1323 107.772ZM90.1322 107.643C90.2526 107.643 90.3652 107.666 90.4702 107.711C90.5752 107.756 90.6669 107.818 90.7456 107.895C90.8243 107.973 90.8866 108.064 90.9321 108.17C90.9777 108.275 91.0006 108.388 91.0007 108.508C91.0007 108.629 90.978 108.742 90.9326 108.848C90.8872 108.953 90.8253 109.045 90.7466 109.123C90.668 109.202 90.5763 109.264 90.4714 109.309C90.3664 109.354 90.254 109.377 90.1336 109.377C90.0132 109.378 89.9003 109.355 89.7945 109.31C89.6887 109.264 89.5962 109.203 89.5165 109.124C89.437 109.046 89.3745 108.954 89.3289 108.849C89.2834 108.744 89.2605 108.63 89.2605 108.509C89.2603 108.389 89.2829 108.276 89.3285 108.171C89.3739 108.066 89.4363 107.974 89.5158 107.896C89.5951 107.818 89.6876 107.757 89.7932 107.712C89.8989 107.666 90.0119 107.643 90.1322 107.643Z" fill="white"/>
</g>
<defs>
<clipPath id="clip0_2799_829">
<rect width="91" height="155" fill="white"/>
</clipPath>
</defs>
</svg>
