<svg width="105" height="167" viewBox="0 0 105 167" fill="none" xmlns="http://www.w3.org/2000/svg">
<path d="M32.1282 74.4883C34.134 74.4883 36.1009 74.4883 38.109 74.4883C38.109 78.7944 38.109 83.0809 38.109 87.3947C40.7008 87.3947 43.2513 87.3947 45.8296 87.3947C45.8296 83.105 45.8296 78.8273 45.8296 74.5574C46.1527 74.467 51.493 74.4314 52.6347 74.5066C52.6347 85.2608 52.6347 96.017 52.6347 106.801C50.3913 106.801 48.142 106.801 45.8473 106.801C45.8473 102.028 45.8473 97.2576 45.8473 92.4695C43.2612 92.4695 40.7202 92.4695 38.134 92.4695C38.134 97.2459 38.134 102.017 38.134 106.809C35.851 106.809 33.6132 106.809 31.3503 106.809C31.3503 96.0422 31.3503 85.2863 31.3503 74.4883C31.5981 74.4883 31.8437 74.4883 32.1282 74.4883Z" fill="white"/>
<path d="M19.3821 79.4162C18.7461 78.9353 18.0502 78.8084 17.2937 78.8496C16.7899 78.877 16.3015 78.944 15.843 79.1494C14.6791 79.6711 14.1807 80.6269 14.0787 81.8502C13.9505 83.3874 14.6215 84.5459 15.7544 85.5054C16.6892 86.2971 17.7473 86.8951 18.8142 87.4808C20.3736 88.3369 21.9636 89.1406 23.4119 90.185C24.4801 90.9553 25.4449 91.8288 26.1908 92.9243C27.0956 94.253 27.5669 95.7186 27.6574 97.3237C27.7373 98.7421 27.6244 100.135 27.2391 101.501C26.533 104.004 24.9084 105.655 22.4796 106.535C21.3677 106.939 20.2123 107.148 19.0342 107.257C17.9638 107.356 16.8919 107.412 15.8192 107.374C14.3114 107.321 12.8252 107.134 11.4042 106.574C9.12331 105.676 7.72452 104.013 7.10294 101.674C6.90856 100.943 6.77576 100.198 6.75748 99.4367C6.744 98.8759 6.71369 98.3154 6.70969 97.7545C6.70749 97.4461 6.74417 97.1374 6.76405 96.817C9.03369 96.817 11.2728 96.817 13.5564 96.817C13.5564 97.1265 13.543 97.4239 13.5591 97.7197C13.5993 98.4605 13.597 99.2093 13.7963 99.93C13.9035 100.317 14.0433 100.705 14.2305 101.059C14.5357 101.637 15.0389 102.017 15.6535 102.229C16.6175 102.561 17.6022 102.621 18.5869 102.336C19.6278 102.035 20.2804 101.323 20.5846 100.303C20.8231 99.5037 20.8781 98.6859 20.6379 97.8717C20.4532 97.2457 20.1062 96.7132 19.665 96.2349C18.9113 95.4179 18.0108 94.7886 17.067 94.22C15.8236 93.4709 14.5603 92.7545 13.3173 92.0049C11.9687 91.1917 10.6853 90.2887 9.59876 89.1361C8.27925 87.7364 7.43199 86.1118 7.22818 84.1775C7.03776 82.3704 7.2022 80.6064 7.88153 78.912C8.53607 77.2795 9.68051 76.0836 11.2402 75.2751C12.6322 74.5535 14.1281 74.2097 15.6768 74.0693C16.3659 74.0068 17.0591 73.936 17.7492 73.9475C19.6783 73.9799 21.5949 74.1319 23.3708 74.9877C25.017 75.781 26.1529 77.0439 26.7576 78.7702C27.0393 79.5744 27.2251 80.4011 27.2554 81.2551C27.2826 82.0249 27.2915 82.7954 27.3063 83.5656C27.307 83.6018 27.2871 83.6384 27.2691 83.7018C25.0751 83.7018 22.8791 83.7018 20.6604 83.7018C20.6455 83.327 20.6563 82.9614 20.6109 82.6029C20.5423 82.0622 20.4617 81.52 20.3362 80.9903C20.1921 80.3819 19.8848 79.8518 19.3821 79.4162Z" fill="white"/>
<path d="M65.748 93.7085C65.1611 93.7085 64.6136 93.7085 64.0356 93.7085C64.0356 98.0935 64.0356 102.437 64.0356 106.805C61.7669 106.805 59.5294 106.805 57.2915 106.805C57.2097 106.502 57.1693 75.6296 57.2515 74.5119C57.3476 74.5043 57.4479 74.4895 57.5483 74.4895C61.6295 74.4883 65.7109 74.4721 69.792 74.498C71.1039 74.5063 72.3926 74.7228 73.6121 75.26C75.0448 75.891 76.118 76.8966 76.8527 78.2699C77.5098 79.498 77.8175 80.8245 77.9669 82.1971C78.0891 83.3187 78.0898 84.4445 78.0091 85.5643C77.8847 87.2902 77.4677 88.9357 76.4787 90.3989C75.6841 91.5744 74.6196 92.4079 73.3146 92.9421C72.1262 93.4284 70.8835 93.6483 69.6007 93.6605C68.3296 93.6727 67.0585 93.6922 65.748 93.7085ZM66.7321 88.68C67.0733 88.68 67.4145 88.678 67.7557 88.6804C68.3671 88.6848 68.9105 88.4882 69.4017 88.1333C70.297 87.4867 70.7805 86.5736 71.0256 85.5331C71.3163 84.2987 71.2002 83.0634 70.8458 81.8616C70.404 80.3635 69.215 79.5178 67.6488 79.5169C66.5596 79.5163 65.4704 79.5161 64.3812 79.5179C64.2691 79.5181 64.157 79.5328 64.0476 79.5406C64.0476 82.5963 64.0476 85.6161 64.0476 88.68C64.9285 88.68 65.791 88.68 66.7321 88.68Z" fill="white"/>
<path d="M80.6956 91.9265C80.6956 86.1025 80.6956 80.3177 80.6956 74.5107C86.5807 74.5107 92.4399 74.5107 98.3009 74.5107C98.3799 74.8002 98.4115 78.4143 98.34 79.5058C94.7424 79.5058 91.1419 79.5058 87.5175 79.5058C87.5175 82.1552 87.5175 84.7652 87.5175 87.4184C90.855 87.4184 94.1804 87.4184 97.5257 87.4184C97.5257 89.1059 97.5257 90.7505 97.5257 92.4362C94.1963 92.4362 90.8699 92.4362 87.5186 92.4362C87.5186 95.5741 87.5186 98.6713 87.5186 101.779C87.5179 101.778 87.5255 101.789 87.5352 101.798C87.5445 101.806 87.5554 101.813 87.5668 101.817C87.5788 101.822 87.5922 101.824 87.6052 101.825C87.6444 101.828 87.6837 101.83 87.7229 101.83C91.3572 101.833 94.9916 101.836 98.6259 101.838C98.6388 101.838 98.6517 101.843 98.6646 101.845C98.7454 102.123 98.7781 105.888 98.7073 106.77C98.4311 106.844 81.3255 106.87 80.6956 106.791C80.6956 101.853 80.6956 96.9096 80.6956 91.9265Z" fill="white"/>
<path d="M58.5514 32.4178C59.4848 31.7836 60.3923 31.1619 61.3061 30.5496C61.8282 30.1996 62.4357 30.2152 62.9221 30.5663C63.2401 30.7959 63.4145 31.1131 63.4466 31.4923C63.5204 32.3624 63.5854 33.2337 63.6314 34.1057C63.6741 34.9138 63.6887 35.7235 63.7135 36.5325C63.733 37.1719 63.7763 37.8121 63.761 38.4508C63.7334 39.5983 63.6821 40.7457 63.6184 41.8919C63.5148 43.7541 63.2974 45.6047 62.983 47.443C62.4618 50.4908 61.6782 53.4641 60.3821 56.2836C59.6693 57.8342 58.8058 59.2986 57.6516 60.5685C56.5976 61.7281 55.3799 62.6601 53.8366 63.0888C52.3431 63.5036 50.8846 63.3636 49.4614 62.7835C47.9895 62.1836 46.9001 61.1374 46.0393 59.8297C45.2552 58.6386 44.7435 57.3262 44.3279 55.9733C43.8478 54.4105 43.5409 52.8095 43.2988 51.1951C43.2293 50.7315 43.1523 50.2687 43.0971 49.8033C43.0792 49.6528 43.0878 49.4833 43.1403 49.3436C43.2544 49.0402 43.6096 49.0068 43.7883 49.2782C43.8652 49.3949 43.9049 49.5391 43.9468 49.6753C44.4848 51.4244 45.0586 53.1605 45.8975 54.7946C46.3592 55.6937 46.8818 56.5542 47.6365 57.2473C48.0997 57.6727 48.6139 57.9899 49.274 57.9937C49.9168 57.9973 50.4353 57.7167 50.893 57.2999C51.5297 56.72 51.9099 55.9777 52.1979 55.1841C52.6369 53.9744 52.8697 52.7175 52.9966 51.4424C53.0766 50.6386 53.1348 49.8309 53.1571 49.0236C53.1953 47.6386 53.2236 46.2522 53.2074 44.867C53.1941 43.7329 53.1254 42.5987 53.0533 41.4663C52.9705 40.1661 52.8569 38.8679 52.7567 37.5688C52.7526 37.5168 52.7499 37.4645 52.7431 37.4128C52.6512 36.7125 52.936 36.2181 53.5224 35.8303C54.9313 34.8988 56.3207 33.9378 57.7177 32.9884C57.9884 32.8044 58.2581 32.619 58.5514 32.4178Z" fill="#1170B8"/>
<path d="M62.5733 14.4907C62.6167 14.9012 62.6609 15.2774 62.6799 15.6548C62.6852 15.7616 62.6419 15.8904 62.5775 15.9771C62.4529 16.1451 62.2036 16.1497 62.0666 15.978C61.9642 15.8497 61.8885 15.6881 61.8421 15.5293C61.4014 14.0223 60.8902 12.5405 60.2371 11.1113C59.7629 10.0734 59.2283 9.06675 58.4377 8.22662C58.1977 7.97162 57.9246 7.73514 57.631 7.54526C56.7451 6.97255 55.7027 7.1249 54.8677 7.91902C54.2648 8.49236 53.8903 9.20557 53.6067 9.97409C53.1974 11.0835 52.9824 12.237 52.8294 13.4042C52.5157 15.7981 52.5756 18.2037 52.6092 20.6079C52.62 21.3783 52.6462 22.1489 52.6898 22.9181C52.757 24.1028 52.8425 25.2865 52.9259 26.4703C52.9644 27.0159 53.0284 27.56 53.058 28.106C53.0835 28.5768 52.8557 28.941 52.4785 29.2C50.9022 30.2826 49.3206 31.3574 47.74 32.4338C46.6467 33.1784 45.5436 33.9092 44.4621 34.6706C44.0577 34.9553 43.2538 34.9824 42.8121 34.5845C42.5485 34.347 42.3756 34.0687 42.3528 33.7062C42.2757 32.4829 42.1643 31.2609 42.1244 30.0364C42.0725 28.4429 42.0462 26.8471 42.0672 25.2531C42.0809 24.2119 42.1881 23.1713 42.2725 22.132C42.3348 21.3659 42.4211 20.6015 42.5086 19.8377C42.7364 17.8509 43.1162 15.8918 43.6255 13.9587C44.2135 11.7267 44.9924 9.5663 46.1088 7.53662C46.9095 6.08082 47.872 4.74966 49.139 3.65862C50.0448 2.8787 51.0639 2.30516 52.2397 2.03368C53.7111 1.69393 55.1258 1.89531 56.4971 2.48578C57.2884 2.82653 57.9895 3.3125 58.5931 3.91833C59.2608 4.58846 59.8005 5.35925 60.2441 6.19883C61.1325 7.88014 61.6604 9.68203 62.043 11.5302C62.2438 12.5001 62.3924 13.4809 62.5733 14.4907Z" fill="#72AABF"/>
<path d="M75.9752 41.791C73.9783 42.903 71.9364 43.8404 69.7696 44.4908C69.4829 44.5769 69.1927 44.6658 68.8854 44.5901C68.5417 44.5056 68.3664 44.3098 68.3627 43.9579C68.3602 43.7245 68.4034 43.4909 68.4115 43.2568C68.4492 42.1733 68.4395 41.0862 68.527 40.0069C68.6353 38.6713 68.4539 37.3448 68.4853 36.0131C68.4963 35.5455 68.4457 35.0758 68.4112 34.6079C68.3723 34.0797 68.6325 33.7368 69.0782 33.5107C69.5098 33.2918 69.9492 33.0879 70.3839 32.8748C71.4704 32.3422 72.5009 31.7222 73.3914 30.8953C73.8549 30.4649 74.2567 29.9762 74.4774 29.3776C74.865 28.3262 74.6666 27.3506 74.0276 26.4485C73.4626 25.6509 72.6941 25.0895 71.8613 24.6096C70.4437 23.7926 68.9018 23.2888 67.3301 22.8718C65.6195 22.418 63.8754 22.129 62.119 21.9342C60.7023 21.7771 59.2804 21.6516 57.8516 21.653C57.7604 21.6531 57.6674 21.65 57.5781 21.6331C57.3068 21.582 57.1754 21.4309 57.178 21.1859C57.1809 20.9106 57.3501 20.6905 57.6138 20.669C58.0959 20.6299 58.5796 20.598 59.0631 20.5884C60.2688 20.5642 61.4756 20.5211 62.6806 20.5472C64.1582 20.5791 65.635 20.6645 67.1112 20.7434C69.5065 20.8715 71.8783 21.1835 74.2246 21.6835C76.3198 22.13 78.3575 22.7468 80.2609 23.749C81.524 24.4141 82.6681 25.2353 83.5507 26.3739C84.3514 27.4068 84.8699 28.5659 85.0455 29.8671C85.298 31.7372 84.8169 33.4391 83.84 35.0225C83.1332 36.1681 82.2158 37.131 81.2239 38.0335C79.6282 39.4855 77.8626 40.6975 75.9752 41.791Z" fill="#F26635"/>
<path d="M21.6916 37.9881C20.5054 35.8981 20.3687 33.7613 21.2363 31.5574C21.7421 30.2726 22.5346 29.1748 23.4853 28.1869C25.5933 25.9966 28.0663 24.3004 30.7387 22.8757C32.3353 22.0244 33.996 21.3242 35.717 20.7668C35.9894 20.6785 36.271 20.6082 36.5538 20.5642C37.1057 20.4783 37.4303 20.7449 37.4095 21.2895C37.3762 22.1617 37.311 23.0326 37.2608 23.9041C37.2547 24.0085 37.2571 24.1135 37.257 24.2182C37.2568 25.4605 37.2417 26.7031 37.2625 27.9451C37.2752 28.6994 37.3454 29.4528 37.3854 30.2068C37.3951 30.3896 37.3994 30.5741 37.3858 30.7563C37.3621 31.0749 37.2093 31.3331 36.9444 31.5067C36.7378 31.6422 36.5148 31.7556 36.2911 31.862C35.1907 32.3848 34.0921 32.9147 33.1269 33.6671C32.7068 33.9945 32.306 34.3595 31.9532 34.7576C30.8652 35.9854 30.831 37.5423 31.8445 38.8377C32.4504 39.612 33.2317 40.177 34.0892 40.6466C35.7328 41.5467 37.5063 42.0813 39.3193 42.5039C41.1698 42.9353 43.0487 43.1931 44.9386 43.3604C45.98 43.4525 47.0276 43.4755 48.0725 43.5268C48.3856 43.5422 48.5177 43.6107 48.5772 43.8061C48.6503 44.0465 48.5729 44.3129 48.3737 44.4308C48.2886 44.4811 48.1784 44.5073 48.0783 44.5113C47.2937 44.5432 46.5088 44.5683 45.724 44.5927C45.266 44.607 44.8076 44.6315 44.3498 44.6245C43.3155 44.6087 42.2813 44.5827 41.2474 44.5483C40.4239 44.5209 39.5987 44.5021 38.7784 44.4312C37.3595 44.3085 35.9404 44.1761 34.5278 43.9977C32.316 43.7183 30.1442 43.2438 28.0371 42.5056C26.5112 41.9711 25.0607 41.2867 23.7702 40.2954C22.9423 39.6594 22.2373 38.9152 21.6916 37.9881Z" fill="#D44028"/>
<path d="M70.4009 149.454C70.6445 148.634 70.8867 147.849 71.1126 147.058C71.149 146.931 71.1468 146.772 71.1048 146.647C70.4608 144.729 69.8073 142.814 69.1561 140.898C69.0176 140.491 68.8796 140.084 68.7406 139.677C68.7047 139.571 68.666 139.467 68.5852 139.374C68.575 139.591 68.5648 139.807 68.5532 140.052C67.9881 140.052 67.4411 140.052 66.8671 140.052C66.8559 140.178 66.8397 140.278 66.8396 140.377C66.8379 141.791 66.8376 143.205 66.8396 144.619C66.8398 144.775 66.8531 144.932 66.865 145.088C66.8977 145.514 67.0956 145.781 67.5215 145.846C67.8501 145.896 68.1925 145.856 68.5497 145.856C68.5497 146.167 68.5497 146.477 68.5497 146.829C67.8201 146.973 67.0775 147.098 66.339 146.827C65.8067 146.632 65.5382 146.281 65.5275 145.451C65.513 144.326 65.5239 143.2 65.5239 142.074C65.5239 141.422 65.5239 140.769 65.5239 140.071C65.1023 140.071 64.7039 140.071 64.2858 140.071C64.2858 139.73 64.2858 139.434 64.2858 139.096C64.6727 139.096 65.0717 139.096 65.5035 139.096C65.5035 138.578 65.5035 138.1 65.5035 137.603C65.9468 137.403 66.3694 137.213 66.8395 137.001C66.8395 137.716 66.8395 138.376 66.8395 139.069C67.9286 139.069 68.9862 139.069 70.0544 139.069C70.6715 141.155 71.2805 143.213 71.8895 145.271C71.9097 145.269 71.93 145.266 71.9503 145.264C72.5599 143.203 73.1696 141.141 73.7788 139.082C74.2498 139.082 74.6944 139.082 75.2028 139.082C74.0165 142.68 72.8394 146.251 71.661 149.826C71.2076 149.826 70.7776 149.826 70.32 149.826C70.3466 149.703 70.3703 149.594 70.4009 149.454Z" fill="white"/>
<path d="M99.6807 126.251C68.2309 126.251 36.8198 126.251 5.38632 126.251C5.38003 126.111 5.37563 126.012 5.37207 125.933C5.48618 125.828 99.8797 125.812 100.382 125.902C100.386 125.995 100.39 126.094 100.397 126.251C100.156 126.251 99.9377 126.251 99.6807 126.251Z" fill="#79B2C5"/>
<path d="M23.2416 137.654C23.2416 139.566 23.249 141.438 23.238 143.311C23.2335 144.086 23.1097 144.843 22.7604 145.55C22.2864 146.509 21.4724 146.963 20.4461 147.078C19.8357 147.146 19.2221 147.14 18.6171 147.005C17.6528 146.79 16.9761 146.24 16.6064 145.315C16.3707 144.725 16.2478 144.108 16.241 143.484C16.2137 140.984 16.2159 138.483 16.2076 135.983C16.2074 135.92 16.213 135.856 16.2169 135.768C16.6848 135.768 17.1377 135.768 17.6429 135.768C17.6454 135.891 17.6506 136.029 17.6507 136.167C17.6512 138.288 17.6342 140.409 17.661 142.53C17.6694 143.189 17.6714 143.857 17.857 144.506C18.1288 145.456 18.6664 145.88 19.6467 145.876C19.8679 145.875 20.091 145.86 20.3097 145.828C20.9109 145.738 21.2952 145.376 21.5138 144.827C21.7244 144.298 21.7926 143.739 21.7945 143.177C21.8021 140.859 21.7977 138.542 21.7977 136.224C21.7977 136.082 21.7977 135.939 21.7977 135.77C22.2808 135.77 22.7424 135.77 23.2416 135.77C23.2416 136.391 23.2416 137.003 23.2416 137.654Z" fill="white"/>
<path d="M8.80524 158.632C8.80773 157.824 8.77083 157.053 8.96548 156.295C9.22587 155.281 9.76644 154.508 10.8048 154.185C11.1632 154.073 11.5451 154.017 11.9205 153.985C12.5223 153.934 13.1227 153.962 13.7075 154.148C14.4338 154.38 14.9245 154.848 15.1554 155.572C15.3311 156.123 15.3713 156.69 15.3274 157.283C14.8134 157.283 14.3221 157.283 13.792 157.283C13.792 157.153 13.7922 157.039 13.792 156.925C13.7918 156.807 13.7975 156.689 13.7897 156.571C13.7369 155.776 13.348 155.345 12.5582 155.249C12.2888 155.216 12.0017 155.216 11.7378 155.272C11.0753 155.413 10.5948 155.779 10.4517 156.481C10.3947 156.761 10.3204 157.043 10.3132 157.326C10.2805 158.606 10.2366 159.887 10.2639 161.166C10.2772 161.785 10.255 162.421 10.4635 163.025C10.5145 163.173 10.5474 163.331 10.6229 163.465C10.7241 163.645 10.8344 163.832 10.9831 163.971C11.7155 164.655 13.1673 164.409 13.6484 163.533C13.8208 163.219 13.9185 162.886 13.9505 162.53C13.9653 162.364 13.9945 162.2 14.0185 162.027C14.5081 162.027 14.9772 162.027 15.4849 162.027C15.5303 162.613 15.4445 163.173 15.2718 163.717C14.9197 164.826 14.0164 165.508 12.8478 165.549C12.3802 165.565 11.9077 165.585 11.4441 165.538C10.2875 165.422 9.52413 164.783 9.14241 163.692C8.92089 163.06 8.80946 162.405 8.80645 161.734C8.80185 160.713 8.80524 159.693 8.80524 158.632Z" fill="white"/>
<path d="M84.9881 165.461C84.113 165.277 83.6285 164.732 83.3699 163.94C83.1695 163.326 83.0909 162.695 83.0705 162.055C83.0414 161.142 83.0348 160.227 83.2278 159.327C83.3416 158.796 83.5433 158.302 83.9634 157.931C84.8438 157.153 86.308 157.197 87.1365 158.025C87.1987 158.087 87.2292 158.181 87.2745 158.26C87.3089 158.237 87.3434 158.214 87.3778 158.192C87.3778 156.879 87.3778 155.566 87.3778 154.229C87.8232 154.229 88.2346 154.229 88.6607 154.229C88.6607 157.929 88.6607 161.617 88.6607 165.335C88.2443 165.335 87.8346 165.335 87.4047 165.335C87.3932 165.089 87.382 164.851 87.3691 164.576C87.299 164.628 87.2624 164.643 87.2437 164.671C86.8871 165.193 86.3793 165.457 85.7605 165.503C85.5161 165.521 85.2673 165.481 84.9881 165.461ZM85.6272 164.382C86.4453 164.571 86.9743 164.156 87.1684 163.49C87.241 163.241 87.3158 162.984 87.3287 162.728C87.3655 161.999 87.3923 161.268 87.3807 160.539C87.3738 160.1 87.3097 159.659 87.1193 159.248C86.8703 158.711 86.4413 158.431 85.8898 158.45C85.2891 158.471 84.8776 158.754 84.6662 159.316C84.6206 159.438 84.5861 159.565 84.5615 159.692C84.3916 160.569 84.4062 161.457 84.4317 162.342C84.4409 162.664 84.5008 162.992 84.5865 163.303C84.7274 163.816 84.9965 164.237 85.6272 164.382Z" fill="white"/>
<path d="M56.7834 158.554C56.7834 157.09 56.7834 155.666 56.7834 154.223C58.6486 154.223 60.4804 154.223 62.3313 154.223C62.3313 154.628 62.3313 155.016 62.3313 155.448C61.8946 155.484 61.4526 155.461 61.0121 155.465C60.5529 155.469 60.0937 155.466 59.6345 155.466C59.1905 155.466 58.7465 155.466 58.2794 155.466C58.2794 156.649 58.2794 157.806 58.2794 158.994C59.5503 158.994 60.8054 158.994 62.0871 158.994C62.0871 159.419 62.0871 159.815 62.0871 160.241C60.8253 160.241 59.57 160.241 58.2715 160.241C58.2715 161.951 58.2715 163.632 58.2715 165.339C57.7641 165.339 57.2994 165.339 56.7834 165.339C56.7834 163.086 56.7834 160.839 56.7834 158.554Z" fill="white"/>
<path d="M96.2179 159.051C96.2442 160.547 96.2587 162.01 96.2904 163.472C96.3036 164.082 96.3536 164.691 96.3896 165.349C96.1943 165.354 95.9665 165.362 95.7386 165.365C95.504 165.368 95.2693 165.366 94.9799 165.366C94.9799 165.058 94.9799 164.771 94.9799 164.484C94.9547 164.481 94.9295 164.477 94.9042 164.474C94.8483 164.554 94.7917 164.635 94.7364 164.716C94.2871 165.375 93.6153 165.519 92.8797 165.512C92.7895 165.511 92.7 165.482 92.6094 165.474C91.9055 165.413 91.4006 165.059 91.1261 164.417C90.8642 163.804 90.8167 163.149 90.9048 162.496C91.0396 161.496 91.66 160.911 92.6142 160.69C93.1068 160.576 93.6197 160.543 94.1254 160.494C94.3848 160.469 94.6485 160.49 94.9474 160.49C95.0008 159.943 95.0183 159.41 94.7551 158.925C94.4888 158.435 94.0157 158.341 93.5036 158.395C92.9836 158.45 92.6387 158.738 92.5194 159.212C92.4753 159.387 92.457 159.569 92.4237 159.767C91.9969 159.767 91.57 159.767 91.1447 159.767C90.9451 158.923 91.4256 157.947 92.2606 157.627C93.221 157.259 94.2113 157.26 95.1706 157.642C95.7753 157.883 96.0878 158.391 96.2179 159.051ZM94.9721 161.607C94.9736 161.443 94.8553 161.463 94.7526 161.468C94.4657 161.482 94.1757 161.478 93.8931 161.521C93.573 161.57 93.2516 161.639 92.9453 161.742C92.556 161.873 92.3102 162.18 92.243 162.572C92.1912 162.874 92.1814 163.206 92.2532 163.501C92.4829 164.442 93.5775 164.756 94.2894 164.088C94.4816 163.907 94.6203 163.652 94.7322 163.408C94.9831 162.861 94.9808 162.269 94.9721 161.607Z" fill="white"/>
<path d="M44.193 144.061C44.2455 144.365 44.2734 144.639 44.3449 144.902C44.58 145.766 45.0874 146.059 46.0064 145.93C46.5421 145.854 46.8282 145.457 46.9903 144.97C47.0393 144.823 47.0625 144.667 47.0999 144.505C47.5465 144.505 47.9899 144.505 48.4781 144.505C48.5182 145.176 48.3507 145.765 47.9097 146.269C47.5283 146.705 47.0153 146.894 46.4642 146.988C45.8935 147.085 45.3244 147.056 44.7547 146.943C43.9626 146.785 43.4431 146.312 43.1601 145.583C43.0295 145.246 42.9449 144.885 42.8903 144.527C42.7024 143.294 42.7147 142.06 42.996 140.841C43.2513 139.735 43.9636 139.118 45.0876 138.962C45.6913 138.879 46.2872 138.895 46.8756 139.052C47.5751 139.238 48.0311 139.693 48.2627 140.368C48.3554 140.638 48.4457 140.918 48.471 141.2C48.5349 141.911 48.5614 142.626 48.6052 143.38C47.1115 143.38 45.6766 143.38 44.1883 143.38C44.1883 143.618 44.1883 143.822 44.193 144.061ZM44.414 140.786C44.25 141.307 44.1606 141.837 44.1988 142.399C45.2043 142.399 46.1777 142.399 47.1736 142.399C47.1901 141.787 47.1419 141.21 46.93 140.654C46.8235 140.375 46.6428 140.157 46.369 140.032C45.5938 139.678 44.8054 139.964 44.414 140.786Z" fill="white"/>
<path d="M43.6484 157.544C44.3196 157.373 44.9651 157.335 45.6224 157.43C46.8069 157.601 47.4334 158.314 47.4628 159.538C47.4889 160.623 47.4556 161.709 47.4724 162.795C47.4854 163.638 47.5351 164.481 47.5694 165.344C47.1443 165.344 46.6924 165.344 46.2146 165.344C46.2146 165.029 46.2146 164.733 46.2146 164.346C46.1097 164.476 46.0535 164.535 46.0094 164.602C45.6656 165.126 45.1986 165.42 44.5595 165.484C44.1054 165.529 43.677 165.49 43.2537 165.339C42.8938 165.212 42.6102 164.983 42.4393 164.642C42.0247 163.816 41.9527 162.95 42.207 162.066C42.3543 161.553 42.6908 161.181 43.1671 160.935C43.8239 160.596 44.5352 160.514 45.2584 160.491C45.5438 160.482 45.8296 160.49 46.1416 160.49C46.1535 160.003 46.1986 159.55 46.0415 159.106C45.9189 158.76 45.6812 158.539 45.3297 158.44C45.0475 158.361 44.7629 158.355 44.4798 158.435C43.9903 158.574 43.7154 158.922 43.689 159.431C43.6837 159.534 43.6792 159.637 43.6731 159.763C43.2077 159.763 42.7562 159.763 42.3059 159.763C42.2134 158.739 42.7007 157.858 43.6484 157.544ZM45.9757 163.354C46.1555 162.737 46.204 162.111 46.124 161.47C45.6768 161.495 45.2591 161.51 44.8434 161.546C44.4881 161.577 44.1396 161.664 43.8635 161.901C43.3709 162.324 43.3128 162.871 43.4414 163.471C43.5486 163.971 43.841 164.308 44.3343 164.401C44.8513 164.498 45.3262 164.359 45.6622 163.92C45.78 163.767 45.8584 163.583 45.9757 163.354Z" fill="white"/>
<path d="M22.7385 164.1C22.375 164.992 21.6604 165.353 20.7981 165.459C20.363 165.512 19.9135 165.497 19.4747 165.461C18.493 165.381 17.7654 164.766 17.4956 163.77C17.3673 163.296 17.2745 162.801 17.2505 162.312C17.2026 161.336 17.1744 160.353 17.4027 159.39C17.5783 158.648 17.9157 158 18.6522 157.687C19.0301 157.526 19.4522 157.427 19.8618 157.394C20.2862 157.361 20.7278 157.4 21.1475 157.481C21.9967 157.646 22.537 158.181 22.754 159.014C22.8586 159.415 22.9408 159.829 22.97 160.241C23.0068 160.76 22.9789 161.284 22.9789 161.854C21.5326 161.854 20.0729 161.854 18.5798 161.854C18.6413 162.368 18.6674 162.837 18.7589 163.293C18.9 163.995 19.3322 164.374 19.9346 164.42C20.8796 164.493 21.3014 163.958 21.4661 163.281C21.4875 163.192 21.4976 163.101 21.5222 162.957C21.7484 162.957 21.9787 162.957 22.2089 162.957C22.4303 162.957 22.6516 162.957 22.8981 162.957C22.9726 163.358 22.8631 163.715 22.7385 164.1ZM18.9631 158.991C18.6603 159.575 18.6502 160.211 18.6188 160.885C19.6237 160.879 20.621 160.903 21.6151 160.869C21.6048 160.641 21.5935 160.461 21.589 160.281C21.578 159.833 21.5196 159.39 21.2922 159C21.1856 158.817 21.0244 158.635 20.8428 158.532C20.2259 158.183 19.4254 158.374 18.9631 158.991Z" fill="white"/>
<path d="M66.844 160.21C66.9286 159.792 66.9814 159.403 67.0914 159.03C67.3286 158.227 67.8723 157.721 68.686 157.512C69.4763 157.309 70.2688 157.316 71.0449 157.563C71.7383 157.784 72.1883 158.275 72.4408 158.95C72.6347 159.468 72.7229 160.012 72.735 160.557C72.7514 161.3 72.7272 162.045 72.6831 162.788C72.6546 163.268 72.5278 163.735 72.3269 164.181C72.0114 164.882 71.4685 165.285 70.7274 165.424C70.0681 165.547 69.408 165.543 68.7456 165.404C67.9386 165.234 67.4184 164.746 67.152 163.994C67.0139 163.605 66.9216 163.192 66.8679 162.781C66.7716 162.044 66.7271 161.302 66.8339 160.559C66.8487 160.456 66.8374 160.35 66.844 160.21ZM68.8657 158.705C68.4919 158.981 68.3531 159.388 68.2655 159.815C68.1115 160.565 68.1585 161.326 68.1973 162.081C68.2219 162.558 68.3192 163.036 68.4319 163.501C68.5241 163.882 68.7563 164.202 69.1518 164.323C70.0727 164.602 70.927 164.375 71.194 163.295C71.2096 163.232 71.2355 163.171 71.2446 163.107C71.3916 162.072 71.4832 161.033 71.3192 159.992C71.277 159.725 71.1962 159.455 71.0843 159.208C70.8943 158.789 70.5602 158.538 70.089 158.478C69.6756 158.425 69.2813 158.459 68.8657 158.705Z" fill="white"/>
<path d="M79.3018 143.615C79.25 142.742 79.274 141.91 79.4361 141.086C79.7359 139.563 80.5839 139.021 81.9551 138.924C82.355 138.895 82.7693 138.929 83.1644 139.002C84.1492 139.184 84.7728 139.793 85.0131 140.754C85.1258 141.205 85.1485 141.679 85.2102 142.143C85.2307 142.297 85.2593 142.452 85.2604 142.607C85.2671 143.52 85.2352 144.43 84.9727 145.315C84.6624 146.362 83.9144 146.957 82.8249 147.007C82.4756 147.023 82.1239 147.026 81.775 147.006C80.5372 146.935 79.848 146.396 79.5336 145.194C79.403 144.694 79.3769 144.168 79.3018 143.615ZM83.6924 144.81C83.8989 143.912 83.8978 142.999 83.8594 142.088C83.8421 141.68 83.7345 141.269 83.626 140.871C83.5425 140.565 83.3439 140.317 83.0526 140.16C82.1811 139.691 81.1789 140.069 80.8516 140.999C80.7832 141.193 80.7389 141.399 80.7089 141.603C80.5811 142.473 80.6324 143.345 80.7329 144.211C80.7756 144.579 80.8996 144.945 81.0363 145.293C81.179 145.655 81.4817 145.876 81.8722 145.92C82.1405 145.95 82.4178 145.943 82.6867 145.913C83.0494 145.873 83.3074 145.656 83.4722 145.336C83.5492 145.186 83.6054 145.026 83.6924 144.81Z" fill="white"/>
<path d="M58.5004 142.372C59.0328 142.63 59.5184 142.899 59.9399 143.287C60.8497 144.126 60.6425 146.169 59.3378 146.727C58.7357 146.984 58.1161 147.095 57.468 147.018C57.1327 146.977 56.7916 146.937 56.4703 146.839C55.7127 146.609 55.279 146.068 55.1263 145.305C55.0737 145.041 55.0652 144.769 55.0342 144.479C55.5517 144.479 56.0197 144.479 56.5012 144.479C56.5367 144.695 56.5612 144.9 56.6053 145.101C56.7132 145.592 57.0355 145.878 57.5231 145.935C57.7898 145.966 58.0771 145.948 58.3373 145.882C58.8432 145.753 59.1269 145.316 59.124 144.799C59.1224 144.535 58.9991 144.333 58.8081 144.201C58.4664 143.964 58.1011 143.759 57.7354 143.56C57.277 143.311 56.7924 143.106 56.3482 142.834C55.8742 142.544 55.4593 142.17 55.3241 141.597C55.0608 140.482 55.5172 139.574 56.5187 139.166C57.3406 138.83 58.2055 138.82 59.0589 139.076C60.0102 139.362 60.5649 140.211 60.4185 141.145C59.9556 141.145 59.4897 141.145 59.0136 141.145C58.9953 141.012 58.9874 140.895 58.9625 140.783C58.8471 140.26 58.5342 139.997 57.9784 139.931C57.6118 139.887 57.2723 139.948 56.9791 140.175C56.4845 140.558 56.4704 141.224 56.9916 141.568C57.4575 141.875 57.9762 142.103 58.5004 142.372Z" fill="white"/>
<path d="M30.9327 142.683C30.9327 144.095 30.9327 145.468 30.9327 146.892C30.5027 146.909 30.0903 146.901 29.6186 146.896C29.6186 146.738 29.6186 146.601 29.6186 146.463C29.6186 144.854 29.6192 143.244 29.6176 141.635C29.6174 141.478 29.6111 141.321 29.5951 141.165C29.5145 140.381 29.0887 139.99 28.2158 139.993C27.5549 139.995 27.0901 140.329 26.8886 140.957C26.7827 141.287 26.7191 141.645 26.7148 141.991C26.6962 143.469 26.7068 144.948 26.7068 146.426C26.7068 146.569 26.7068 146.711 26.7068 146.877C26.2801 146.877 25.8797 146.877 25.4369 146.877C25.4311 146.742 25.4201 146.604 25.42 146.466C25.4187 145.04 25.4283 143.613 25.4158 142.187C25.4081 141.3 25.3671 140.414 25.3423 139.527C25.3384 139.387 25.3418 139.247 25.3418 139.09C25.805 139.09 26.2319 139.09 26.6956 139.09C26.6956 139.362 26.6956 139.629 26.6956 139.987C26.8065 139.873 26.8622 139.831 26.8993 139.776C27.3107 139.166 27.9173 138.94 28.618 138.92C28.8905 138.912 29.1678 138.934 29.4371 138.978C30.1769 139.099 30.6344 139.544 30.7899 140.268C30.8713 140.647 30.9057 141.039 30.9276 141.427C30.9504 141.831 30.9327 142.238 30.9327 142.683Z" fill="white"/>
<path d="M26.3657 164.132C26.3657 164.549 26.3657 164.928 26.3657 165.358C26.1417 165.36 25.9372 165.364 25.7326 165.365C25.5246 165.366 25.3165 165.365 25.0515 165.365C25.0515 165.201 25.0515 165.063 25.0515 164.925C25.0515 163.094 25.0551 161.262 25.0495 159.43C25.0476 158.819 25.0223 158.207 25.0066 157.549C25.433 157.526 25.8808 157.529 26.3626 157.553C26.3626 157.856 26.3626 158.136 26.3626 158.509C26.4519 158.406 26.4866 158.375 26.5093 158.338C26.8439 157.786 27.334 157.491 27.9759 157.414C28.5178 157.348 29.0447 157.359 29.5514 157.582C29.9846 157.772 30.2736 158.1 30.3956 158.552C30.4764 158.852 30.5553 159.164 30.5577 159.471C30.5723 161.368 30.565 163.265 30.564 165.162C30.564 165.213 30.553 165.265 30.5443 165.34C30.1407 165.34 29.7403 165.34 29.2949 165.34C29.2892 165.208 29.2782 165.071 29.2781 164.933C29.2769 163.245 29.279 161.557 29.276 159.87C29.2753 159.498 29.2109 159.142 28.9491 158.851C28.2803 158.11 26.9069 158.396 26.5644 159.373C26.4375 159.734 26.382 160.136 26.3744 160.521C26.3507 161.711 26.3657 162.902 26.3657 164.132Z" fill="white"/>
<path d="M98.5956 115.498C98.5956 116.137 98.5956 116.737 98.5956 117.36C98.2191 117.36 97.8714 117.36 97.4912 117.36C97.4912 116.007 97.4912 114.653 97.4912 113.299C97.4628 113.293 97.4343 113.287 97.4058 113.281C96.9316 114.623 96.5508 115.996 96.0796 117.36C95.7608 117.36 95.4512 117.36 95.1091 117.36C94.6861 116.009 94.2589 114.645 93.8318 113.282C93.8094 113.285 93.7871 113.288 93.7648 113.291C93.7648 114.642 93.7648 115.993 93.7648 117.363C93.3939 117.363 93.0607 117.363 92.708 117.363C92.708 115.646 92.708 113.949 92.708 112.225C93.3233 112.225 93.9324 112.225 94.5583 112.225C94.9064 113.41 95.2553 114.598 95.6282 115.867C96.0309 114.594 96.408 113.403 96.7859 112.208C97.3874 112.208 97.9621 112.208 98.5956 112.208C98.5956 113.298 98.5956 114.378 98.5956 115.498Z" fill="#F26838"/>
<path d="M36.8426 139.303C37.1897 140.621 37.5321 141.907 37.8725 143.193C38.066 143.924 38.2557 144.656 38.4495 145.387C38.4587 145.422 38.4913 145.45 38.5487 145.533C39.1701 143.362 39.7792 141.233 40.3923 139.091C40.8437 139.091 41.2819 139.091 41.7698 139.091C40.951 141.702 40.1408 144.286 39.3273 146.881C38.7661 146.881 38.2316 146.881 37.6366 146.881C36.8718 144.314 36.0995 141.722 35.3103 139.073C35.7861 139.073 36.2129 139.077 36.6396 139.071C36.7869 139.069 36.8002 139.176 36.8426 139.303Z" fill="white"/>
<path d="M86.1126 139.113C86.515 139.087 86.892 139.087 87.3092 139.087C87.3092 138.744 87.3092 138.447 87.3092 138.15C87.3093 137.849 87.2923 137.547 87.313 137.247C87.3574 136.606 87.6687 136.141 88.2766 135.893C88.8763 135.649 89.4966 135.67 90.1462 135.723C90.1462 136.048 90.1462 136.343 90.1462 136.687C89.993 136.687 89.8397 136.682 89.6869 136.688C88.9454 136.717 88.5971 137.079 88.5963 137.819C88.5959 138.222 88.5963 138.625 88.5963 139.072C88.8825 139.072 89.1404 139.072 89.3982 139.072C89.6441 139.072 89.8901 139.072 90.1509 139.072C90.1509 139.415 90.1509 139.721 90.1509 140.059C89.6374 140.059 89.1432 140.059 88.6076 140.059C88.6076 142.345 88.6076 144.601 88.6076 146.878C88.166 146.878 87.7658 146.878 87.3202 146.878C87.3202 144.62 87.3202 142.367 87.3202 140.07C86.8911 140.07 86.5049 140.07 86.087 140.07C86.087 139.732 86.087 139.435 86.1126 139.113Z" fill="white"/>
<path d="M33.6184 155.724C33.8117 155.64 33.9769 155.567 34.1871 155.475C34.1871 156.178 34.1871 156.838 34.1871 157.535C34.7657 157.535 35.3102 157.535 35.8731 157.535C35.8731 157.869 35.8731 158.166 35.8731 158.52C35.3354 158.543 34.7898 158.519 34.2168 158.534C34.2059 158.647 34.1882 158.746 34.1881 158.844C34.1863 160.298 34.1793 161.751 34.1898 163.204C34.1959 164.049 34.4705 164.398 35.4674 164.361C35.5976 164.357 35.7269 164.328 35.8877 164.307C35.8877 164.624 35.8877 164.941 35.8877 165.294C35.2029 165.422 34.505 165.538 33.7916 165.322C33.2489 165.158 32.9732 164.791 32.9124 164.245C32.898 164.115 32.9003 163.984 32.9002 163.853C32.8995 162.229 32.8997 160.606 32.8997 158.982C32.8997 158.853 32.8997 158.724 32.8997 158.546C32.4826 158.546 32.0852 158.546 31.6646 158.546C31.6646 158.191 31.6646 157.885 31.6646 157.538C32.0665 157.538 32.4661 157.538 32.8941 157.538C32.8941 157.018 32.8941 156.538 32.8941 156.05C33.1406 155.939 33.3655 155.837 33.6184 155.724Z" fill="white"/>
<path d="M49.854 154.644C49.854 154.49 49.854 154.373 49.854 154.229C50.2977 154.229 50.7221 154.229 51.1578 154.229C51.1578 157.935 51.1578 161.622 51.1578 165.337C50.7351 165.337 50.3232 165.337 49.854 165.337C49.854 161.785 49.854 158.233 49.854 154.644Z" fill="white"/>
<path d="M63.5548 163.032C63.5548 160.078 63.5548 157.162 63.5548 154.225C63.9939 154.225 64.4083 154.225 64.8466 154.225C64.8466 157.928 64.8466 161.621 64.8466 165.34C64.4286 165.34 64.0168 165.34 63.5548 165.34C63.5548 164.578 63.5548 163.825 63.5548 163.032Z" fill="white"/>
<path d="M37.5478 113.375C37.5478 113.673 37.5478 113.933 37.5478 114.216C38.1832 114.216 38.7901 114.216 39.4277 114.216C39.4277 113.549 39.4277 112.9 39.4277 112.224C39.8291 112.224 40.2006 112.224 40.5956 112.224C40.5956 113.936 40.5956 115.64 40.5956 117.363C40.2173 117.363 39.8581 117.363 39.4607 117.363C39.4607 116.629 39.4607 115.916 39.4607 115.178C38.8149 115.178 38.207 115.178 37.5609 115.178C37.5609 115.899 37.5609 116.613 37.5609 117.355C37.1529 117.355 36.7824 117.355 36.3881 117.355C36.3881 115.647 36.3881 113.942 36.3881 112.217C36.7638 112.217 37.126 112.217 37.5439 112.217C37.5452 112.588 37.5465 112.962 37.5478 113.375Z" fill="#F26838"/>
<path d="M37.0983 157.94C37.0983 157.799 37.0983 157.696 37.0983 157.564C37.5312 157.564 37.9429 157.564 38.4036 157.564C38.4036 157.867 38.4036 158.181 38.4036 158.496C38.4262 158.51 38.4488 158.523 38.4715 158.537C38.9501 157.498 39.8299 157.339 40.8368 157.388C40.8368 157.834 40.8368 158.247 40.8368 158.71C40.6698 158.701 40.5063 158.701 40.3458 158.68C39.7308 158.598 39.2103 158.769 38.8086 159.249C38.5747 159.528 38.49 159.872 38.441 160.222C38.4176 160.39 38.4149 160.561 38.4147 160.73C38.4127 162.129 38.4136 163.528 38.4136 164.927C38.4136 165.056 38.4136 165.184 38.4136 165.339C37.9744 165.339 37.5626 165.339 37.0983 165.339C37.0983 162.882 37.0983 160.429 37.0983 157.94Z" fill="white"/>
<path d="M82.0066 113.275C81.7265 112.909 81.3711 112.894 80.9957 112.978C80.7122 113.041 80.5143 113.276 80.4878 113.555C80.4627 113.818 80.5631 113.996 80.8847 114.11C81.2903 114.253 81.7116 114.351 82.1252 114.472C82.2503 114.508 82.3742 114.551 82.4951 114.599C82.9598 114.786 83.3143 115.083 83.3702 115.61C83.4372 116.243 83.2354 116.778 82.6811 117.129C82.2886 117.378 81.8509 117.514 81.3799 117.509C81.1056 117.507 80.8291 117.509 80.5579 117.475C79.7584 117.375 79.0697 116.869 79.1512 115.703C79.5173 115.669 79.8884 115.682 80.2712 115.697C80.2949 115.833 80.3068 115.949 80.3357 116.06C80.4369 116.449 80.6869 116.649 81.0947 116.675C81.3605 116.691 81.6183 116.666 81.8515 116.52C82.0661 116.386 82.201 116.199 82.1827 115.941C82.1649 115.691 82.0042 115.546 81.7684 115.477C81.3669 115.36 80.9636 115.248 80.5654 115.121C80.3797 115.061 80.2027 114.973 80.0243 114.893C78.9762 114.419 79.187 113.032 79.8054 112.562C79.9188 112.475 80.0419 112.394 80.1725 112.339C80.9176 112.023 81.6772 112.007 82.4244 112.31C82.9814 112.536 83.2623 113.057 83.2068 113.674C82.8586 113.674 82.5086 113.674 82.1568 113.674C82.1111 113.545 82.0677 113.423 82.0066 113.275Z" fill="#F26A3A"/>
<path d="M74.7906 157.705C74.8296 157.625 74.8669 157.546 74.9062 157.545C75.2835 157.536 75.6612 157.54 76.0602 157.54C76.0602 157.866 76.0602 158.164 76.0602 158.536C76.3009 158.256 76.4825 158.015 76.6945 157.806C76.925 157.577 77.228 157.48 77.5471 157.445C77.8549 157.412 78.1638 157.389 78.4966 157.36C78.4966 157.835 78.4966 158.259 78.4966 158.72C78.3154 158.703 78.1506 158.685 77.9853 158.673C77.87 158.665 77.7531 158.654 77.6386 158.664C76.5767 158.757 76.1098 159.441 76.0843 160.564C76.0517 162.004 76.0764 163.444 76.0764 164.885C76.0764 165.028 76.0764 165.171 76.0764 165.339C75.6528 165.339 75.2524 165.339 74.8485 165.339C74.8408 165.334 74.8278 165.328 74.8199 165.319C74.8121 165.309 74.8054 165.295 74.8053 165.284C74.7998 162.77 74.7949 160.257 74.7906 157.705Z" fill="white"/>
<path d="M52.4119 139.346C52.9726 138.93 53.5931 138.915 54.2445 138.92C54.2445 139.37 54.2445 139.794 54.2445 140.252C54.0908 140.241 53.9505 140.241 53.8131 140.22C52.8536 140.076 52.1328 140.544 51.9091 141.476C51.855 141.702 51.8292 141.939 51.828 142.171C51.8208 143.597 51.8244 145.024 51.8244 146.45C51.8244 146.58 51.8244 146.71 51.8244 146.893C51.3955 146.907 50.9864 146.902 50.5573 146.896C50.5573 144.278 50.5573 141.694 50.5573 139.092C50.9719 139.092 51.3725 139.092 51.8117 139.092C51.8117 139.398 51.8117 139.702 51.8117 140.09C52.0414 139.801 52.2156 139.583 52.4119 139.346Z" fill="white"/>
<path d="M30.4213 118.543C30.1346 118.304 29.9779 118.033 29.9969 117.648C30.3221 117.648 30.6415 117.648 30.9895 117.648C31.0464 117.74 31.0967 117.886 31.1982 117.971C31.3888 118.131 31.6273 118.165 31.8656 118.08C32.1028 117.997 32.2695 117.843 32.2931 117.573C32.3094 117.386 32.3315 117.199 32.3538 116.986C32.1016 117.106 31.9031 117.252 31.6844 117.294C30.9101 117.444 30.2889 117.085 30.0192 116.444C29.7293 115.754 29.736 115.065 30.1304 114.417C30.5793 113.68 31.491 113.5 32.2105 113.982C32.2612 114.016 32.3129 114.049 32.3911 114.099C32.4169 113.98 32.4351 113.896 32.458 113.79C32.7724 113.79 33.0916 113.79 33.4517 113.79C33.4333 114.061 33.4029 114.316 33.4013 114.57C33.3953 115.498 33.3997 116.427 33.3987 117.355C33.3977 118.159 33.0513 118.614 32.2698 118.76C31.6491 118.876 31.0228 118.901 30.4213 118.543ZM30.9671 115.128C30.9797 115.426 30.957 115.729 31.0136 116.018C31.0857 116.386 31.3237 116.556 31.6393 116.549C31.9575 116.542 32.1731 116.36 32.2813 116.015C32.3868 115.679 32.3687 115.344 32.2748 115.011C32.1854 114.695 31.9497 114.489 31.6685 114.478C31.3506 114.466 31.1568 114.641 31.0393 114.918C31.019 114.966 31.0047 115.017 30.9671 115.128Z" fill="#F26838"/>
<path d="M91.4103 112.197C91.5895 112.197 91.7303 112.197 91.886 112.197C91.886 112.497 91.886 112.754 91.886 113.048C91.1376 113.048 90.3956 113.048 89.6246 113.048C89.6246 113.465 89.6246 113.847 89.6246 114.268C90.3425 114.268 91.0452 114.268 91.7735 114.268C91.7735 114.573 91.7735 114.839 91.7735 115.142C91.0594 115.142 90.3555 115.142 89.6237 115.142C89.6237 115.605 89.6237 116.032 89.6237 116.508C90.387 116.508 91.1657 116.508 91.9622 116.508C91.9622 116.814 91.9622 117.071 91.9622 117.356C90.7909 117.356 89.6195 117.356 88.4302 117.356C88.4302 115.644 88.4302 113.947 88.4302 112.197C89.4138 112.197 90.3928 112.197 91.4103 112.197Z" fill="#F26838"/>
<path d="M21.7502 112.203C22.0879 112.198 22.388 112.198 22.7259 112.198C22.7259 113.922 22.7259 115.626 22.7259 117.357C22.3994 117.357 22.053 117.357 21.6838 117.357C21.6596 117.27 21.634 117.178 21.5981 117.049C21.2986 117.323 20.986 117.472 20.5966 117.467C19.8003 117.456 19.298 117.115 19.1087 116.345C18.9771 115.809 18.9877 115.261 19.1765 114.726C19.5651 113.624 20.8777 113.423 21.5129 113.999C21.5307 114.015 21.5595 114.019 21.6181 114.042C21.626 113.937 21.6389 113.843 21.6394 113.748C21.6416 113.33 21.636 112.912 21.6437 112.494C21.6454 112.398 21.6885 112.303 21.7502 112.203ZM20.4145 116.534C20.8242 116.855 21.2894 116.772 21.5091 116.31C21.7235 115.859 21.7393 115.378 21.5634 114.908C21.4546 114.618 21.237 114.451 20.9068 114.443C20.5832 114.436 20.3746 114.61 20.2782 114.882C20.0857 115.424 20.0428 115.972 20.4145 116.534Z" fill="#F26939"/>
<path d="M47.2712 113.722C47.5557 113.721 47.8043 113.721 48.0671 113.721C48.1178 113.843 48.165 113.956 48.2222 114.093C48.6595 113.647 49.1829 113.598 49.7253 113.747C50.4344 113.941 50.682 114.514 50.7665 115.168C50.8218 115.596 50.7671 116.025 50.6158 116.438C50.1996 117.572 48.8907 117.716 48.1938 117.067C48.1938 117.659 48.1938 118.207 48.1938 118.775C47.8077 118.775 47.4724 118.775 47.1093 118.775C47.0983 118.699 47.0753 118.614 47.0752 118.528C47.0729 117.037 47.0719 115.546 47.0764 114.055C47.0767 113.929 47.0026 113.747 47.2712 113.722ZM48.4571 116.544C48.9414 116.836 49.3106 116.728 49.5321 116.225C49.7261 115.785 49.7127 115.337 49.551 114.893C49.4569 114.634 49.2946 114.423 48.9968 114.403C48.6746 114.381 48.4396 114.548 48.3118 114.835C48.0581 115.403 48.0272 115.967 48.4571 116.544Z" fill="#F26939"/>
<path d="M32.9249 144.176C32.9249 142.464 32.9249 140.792 32.9249 139.096C33.367 139.096 33.7791 139.096 34.216 139.096C34.216 141.683 34.216 144.266 34.216 146.876C33.7996 146.876 33.3876 146.876 32.9249 146.876C32.9249 145.984 32.9249 145.099 32.9249 144.176Z" fill="white"/>
<path d="M81.1155 163.661C81.1155 164.235 81.1155 164.771 81.1155 165.335C80.6852 165.335 80.2761 165.335 79.8479 165.335C79.8479 162.741 79.8479 160.158 79.8479 157.556C80.2622 157.556 80.6626 157.556 81.1155 157.556C81.1155 159.58 81.1155 161.601 81.1155 163.661Z" fill="white"/>
<path d="M63.399 143.233C63.399 144.461 63.399 145.65 63.399 146.87C62.9701 146.87 62.5615 146.87 62.1324 146.87C62.1324 144.279 62.1324 141.696 62.1324 139.093C62.5436 139.093 62.944 139.093 63.399 139.093C63.399 140.46 63.399 141.827 63.399 143.233Z" fill="white"/>
<path d="M27.7371 113.643C27.8868 113.652 28.0058 113.65 28.1205 113.672C28.6917 113.781 29.0083 114.097 29.0411 114.678C29.0785 115.344 29.0622 116.012 29.0681 116.679C29.0701 116.899 29.0684 117.119 29.0684 117.361C28.6894 117.361 28.3418 117.361 27.9668 117.361C27.9577 117.261 27.9411 117.162 27.9408 117.063C27.9384 116.421 27.9195 115.779 27.9474 115.139C27.9629 114.784 27.7426 114.46 27.4034 114.46C27.0206 114.46 26.768 114.719 26.7627 115.149C26.7554 115.751 26.7608 116.353 26.7608 116.955C26.7608 117.083 26.7608 117.211 26.7608 117.361C26.3659 117.361 26.0064 117.361 25.6241 117.361C25.6241 116.163 25.6241 114.977 25.6241 113.74C25.9499 113.701 26.2833 113.722 26.6438 113.732C26.6646 113.864 26.684 113.987 26.7079 114.138C26.9862 113.846 27.3151 113.68 27.7371 113.643Z" fill="#F2693A"/>
<path d="M14.0906 116.282C14.2428 116.282 14.3588 116.282 14.5018 116.282C14.4756 116.809 14.247 117.167 13.801 117.359C13.2518 117.595 12.6777 117.613 12.1129 117.417C11.6982 117.273 11.4058 116.987 11.2573 116.561C11.0617 116 11.0448 115.426 11.2115 114.867C11.6167 113.51 13.1271 113.341 13.9424 113.944C14.3314 114.232 14.525 114.65 14.5662 115.12C14.5868 115.354 14.6925 115.608 14.5138 115.863C13.7696 115.863 13.0119 115.863 12.261 115.863C12.1491 116.296 12.2897 116.611 12.6344 116.739C12.9985 116.873 13.2844 116.733 13.5232 116.282C13.6902 116.282 13.8723 116.282 14.0906 116.282ZM12.733 115.154C12.9738 115.149 13.2147 115.143 13.4559 115.138C13.4148 114.617 13.2428 114.405 12.8914 114.397C12.4973 114.388 12.2987 114.603 12.2453 115.135C12.3854 115.141 12.5238 115.147 12.733 115.154Z" fill="#F26A3A"/>
<path d="M76.0531 117.384C75.7932 117.384 75.5707 117.384 75.318 117.384C75.3065 117.27 75.2881 117.171 75.2877 117.072C75.2851 116.404 75.2878 115.737 75.2858 115.069C75.2847 114.713 75.1421 114.52 74.855 114.472C74.5638 114.423 74.274 114.581 74.1719 114.871C74.1257 115.003 74.1118 115.151 74.1106 115.291C74.1046 115.971 74.1079 116.65 74.1079 117.357C73.741 117.357 73.3954 117.357 73.014 117.357C73.014 116.155 73.014 114.959 73.014 113.742C73.3426 113.742 73.6646 113.742 74.0037 113.742C74.0172 113.869 74.0293 113.984 74.0454 114.136C74.1131 114.082 74.1661 114.041 74.2183 113.998C74.6467 113.649 75.1312 113.552 75.6565 113.709C76.0683 113.832 76.3278 114.113 76.3867 114.545C76.4217 114.803 76.4403 115.064 76.4433 115.324C76.4511 115.99 76.4459 116.657 76.4459 117.357C76.3147 117.367 76.2026 117.375 76.0531 117.384Z" fill="#F26A3A"/>
<path d="M15.9426 115.204C16.4085 115.123 16.8455 115.052 17.2841 114.98C17.2808 114.598 17.1692 114.386 16.9348 114.327C16.6499 114.255 16.4716 114.382 16.2721 114.816C15.9618 114.816 15.64 114.816 15.3191 114.816C15.23 114.406 15.4169 114.028 15.8296 113.837C16.4311 113.559 17.0506 113.565 17.6612 113.802C18.1326 113.984 18.3255 114.369 18.3347 114.855C18.3467 115.483 18.3488 116.111 18.3617 116.739C18.3657 116.934 18.3912 117.128 18.4093 117.353C18.0893 117.353 17.7711 117.353 17.4395 117.353C17.422 117.274 17.4031 117.19 17.3817 117.094C17.3358 117.11 17.294 117.114 17.2678 117.136C16.9298 117.42 16.5547 117.521 16.1061 117.474C15.442 117.404 15.2366 117.064 15.1343 116.707C14.9944 116.219 15.1811 115.7 15.5766 115.413C15.6819 115.337 15.801 115.28 15.9426 115.204ZM17.2141 116.347C17.2531 116.148 17.2921 115.949 17.3362 115.723C16.9372 115.65 16.6112 115.683 16.3341 115.922C16.1407 116.089 16.1157 116.309 16.2393 116.519C16.351 116.71 16.6053 116.82 16.8142 116.721C16.9559 116.653 17.0615 116.51 17.2141 116.347Z" fill="#F26A3A"/>
<path d="M51.4849 114.646C51.5798 113.999 52.0512 113.721 52.7021 113.654C52.9964 113.624 53.3061 113.652 53.5982 113.709C54.2073 113.826 54.5409 114.246 54.5547 114.87C54.5691 115.524 54.569 116.177 54.5823 116.831C54.5858 116.999 54.6159 117.166 54.6365 117.359C54.3171 117.359 54.0078 117.359 53.6761 117.359C53.6514 117.294 53.6217 117.214 53.5826 117.11C53.5169 117.141 53.4543 117.157 53.4071 117.194C53.0794 117.447 52.7196 117.532 52.3057 117.468C51.7697 117.386 51.4619 117.18 51.3591 116.726C51.2484 116.237 51.3381 115.788 51.746 115.448C52.0842 115.166 52.495 115.093 52.9167 115.057C53.1112 115.04 53.3059 115.027 53.4987 115.012C53.4954 114.592 53.3943 114.392 53.163 114.329C52.8743 114.25 52.7 114.374 52.4695 114.838C52.2066 114.838 51.9326 114.838 51.6585 114.838C51.5508 114.838 51.4829 114.796 51.4849 114.646ZM52.9959 116.743C53.4139 116.549 53.5555 116.261 53.4855 115.678C53.2717 115.702 53.0516 115.704 52.844 115.756C52.5559 115.827 52.3523 116.095 52.3802 116.31C52.4137 116.57 52.5769 116.7 52.9959 116.743Z" fill="#F26A3A"/>
<path d="M87.6907 112.198C87.772 112.251 87.8517 112.301 87.8551 112.356C87.8694 112.589 87.8611 112.823 87.8611 113.104C87.3433 113.104 86.8508 113.104 86.322 113.104C86.322 114.546 86.322 115.941 86.322 117.384C86.0928 117.384 85.9004 117.384 85.7079 117.384C85.5278 117.384 85.3477 117.384 85.1297 117.384C85.1297 115.949 85.1297 114.554 85.1297 113.116C84.6135 113.116 84.1347 113.116 83.6332 113.116C83.6332 112.793 83.6332 112.514 83.6332 112.197C84.9838 112.197 86.3189 112.197 87.6907 112.198Z" fill="#F26939"/>
<path d="M55.6081 117.378C55.5466 117.251 55.5027 117.129 55.5019 117.007C55.4958 116.156 55.502 115.305 55.4964 114.454C55.4949 114.224 55.4662 113.995 55.4484 113.742C55.8167 113.742 56.1522 113.742 56.5 113.742C56.5151 113.874 56.5283 113.989 56.5458 114.143C56.6255 114.073 56.685 114.016 56.7495 113.966C57.2287 113.591 57.757 113.538 58.302 113.778C58.7318 113.968 58.9018 114.346 58.908 114.797C58.9159 115.373 58.9105 115.949 58.9108 116.525C58.9109 116.797 58.9108 117.069 58.9108 117.362C58.5408 117.362 58.2044 117.362 57.8356 117.362C57.8263 117.27 57.8082 117.17 57.8077 117.071C57.805 116.495 57.8067 115.919 57.806 115.343C57.8059 115.238 57.797 115.133 57.8002 115.029C57.8095 114.729 57.5246 114.462 57.2622 114.459C56.9568 114.455 56.6699 114.678 56.6201 114.983C56.5992 115.111 56.6041 115.244 56.6038 115.375C56.6024 116.027 56.6031 116.679 56.6031 117.382C56.2654 117.382 55.9555 117.382 55.6081 117.378Z" fill="#F26939"/>
<path d="M8.11318 117.384C7.84167 117.384 7.60896 117.384 7.35547 117.384C7.35547 115.643 7.35547 113.939 7.35547 112.217C7.7351 112.217 8.09416 112.217 8.4901 112.217C8.4901 113.63 8.4901 115.022 8.4901 116.458C9.23828 116.458 9.95125 116.458 10.6927 116.458C10.6927 116.78 10.6927 117.058 10.6927 117.384C9.84611 117.384 8.99905 117.384 8.11318 117.384Z" fill="#F26A3A"/>
<path d="M65.788 115.706C65.386 115.496 65.1995 115.166 65.2243 114.764C65.252 114.315 65.5046 113.984 65.9385 113.821C66.4406 113.631 66.952 113.58 67.4715 113.752C67.9647 113.915 68.187 114.216 68.1986 114.746C67.8998 114.746 67.601 114.746 67.2796 114.746C67.1435 114.417 66.89 114.298 66.5317 114.383C66.3872 114.417 66.291 114.493 66.2651 114.634C66.237 114.787 66.3326 114.884 66.4631 114.932C66.6462 115 66.8372 115.046 67.0228 115.108C67.295 115.198 67.5808 115.264 67.8334 115.393C68.4294 115.699 68.547 116.444 68.1072 116.956C67.8264 117.283 67.4596 117.431 67.0457 117.488C66.6652 117.54 66.2884 117.53 65.9258 117.389C65.4611 117.208 65.1608 116.903 65.1704 116.341C65.4938 116.341 65.8132 116.341 66.1663 116.341C66.2709 116.681 66.5254 116.847 66.8996 116.772C67.0178 116.749 67.1426 116.673 67.2271 116.586C67.3625 116.446 67.3416 116.3 67.1793 116.187C67.075 116.114 66.9489 116.066 66.8263 116.027C66.4907 115.919 66.1518 115.821 65.788 115.706Z" fill="#F36B3C"/>
<path d="M44.2976 115.844C44.1576 115.796 44.0437 115.766 43.9354 115.722C43.5582 115.568 43.3537 115.275 43.3387 114.878C43.3249 114.513 43.4431 114.179 43.7716 113.974C44.3896 113.59 45.0512 113.542 45.7216 113.809C46.1204 113.968 46.3178 114.291 46.3283 114.744C46.0125 114.744 45.7145 114.744 45.3909 114.744C45.2538 114.427 45.0067 114.296 44.6464 114.381C44.4836 114.42 44.3767 114.512 44.3706 114.667C44.3653 114.802 44.4501 114.911 44.5972 114.951C44.7859 115.002 44.9748 115.053 45.161 115.112C45.4097 115.191 45.6688 115.252 45.9006 115.366C46.5555 115.69 46.6778 116.47 46.1708 117.002C45.6995 117.497 45.094 117.541 44.465 117.499C44.4004 117.494 44.3366 117.475 44.2728 117.461C43.6637 117.329 43.3688 117.016 43.257 116.358C43.5855 116.261 43.9197 116.331 44.2419 116.319C44.4801 116.737 44.6491 116.838 45.0142 116.776C45.0892 116.763 45.1679 116.736 45.2307 116.694C45.4824 116.526 45.4815 116.291 45.2203 116.138C45.0988 116.067 44.9549 116.031 44.8182 115.989C44.6559 115.939 44.4904 115.9 44.2976 115.844Z" fill="#F36B3C"/>
<path d="M63.711 114.875C63.6539 114.612 63.5462 114.401 63.2809 114.411C63.0261 114.42 62.9039 114.629 62.8445 114.856C62.7161 115.347 62.7459 115.839 62.8633 116.328C62.8723 116.365 62.8976 116.398 62.9122 116.434C62.9808 116.605 63.1034 116.74 63.2846 116.739C63.4812 116.739 63.6186 116.605 63.6809 116.412C63.7168 116.301 63.75 116.189 63.7887 116.064C64.1324 116.064 64.469 116.064 64.8059 116.064C64.8175 116.989 64.1275 117.606 63.1944 117.505C62.194 117.397 61.6441 116.797 61.6443 115.786C61.6443 115.462 61.647 115.126 61.728 114.816C61.9089 114.125 62.4928 113.707 63.2049 113.688C63.4965 113.68 63.7765 113.711 64.0526 113.815C64.4589 113.969 64.9179 114.534 64.7713 115.072C64.4882 115.072 64.1907 115.081 63.8947 115.064C63.8314 115.061 63.7734 114.962 63.711 114.875Z" fill="#F26A3A"/>
<path d="M59.8292 115.655C59.8292 115.003 59.8292 114.39 59.8292 113.749C60.2014 113.749 60.546 113.749 60.9124 113.749C60.9124 114.949 60.9124 116.133 60.9124 117.368C60.5761 117.399 60.2311 117.385 59.8292 117.373C59.8292 116.806 59.8292 116.25 59.8292 115.655Z" fill="#F2693A"/>
<path d="M23.9449 117.384C23.8191 117.378 23.7309 117.372 23.6267 117.365C23.6267 116.157 23.6267 114.972 23.6267 113.742C23.9741 113.705 24.3177 113.714 24.6879 113.741C24.6879 114.952 24.6879 116.146 24.6879 117.384C24.4463 117.384 24.2144 117.384 23.9449 117.384Z" fill="#F2693A"/>
<path d="M42.603 117.286C42.2523 117.351 41.9078 117.38 41.5338 117.41C41.5338 116.164 41.5338 114.969 41.5338 113.747C41.8838 113.747 42.2293 113.747 42.6091 113.747C42.6091 114.927 42.6091 116.088 42.603 117.286Z" fill="#F2693A"/>
<path d="M72.0595 115.34C72.0595 116.031 72.0595 116.683 72.0595 117.359C71.7118 117.359 71.3908 117.359 71.0404 117.359C71.0404 116.167 71.0404 114.972 71.0404 113.75C71.3588 113.75 71.6791 113.75 72.0401 113.75C72.083 114.267 72.0486 114.785 72.0595 115.34Z" fill="#F26635"/>
<path d="M33.7667 135.74C33.9583 135.74 34.1131 135.74 34.2933 135.74C34.2933 136.201 34.2933 136.634 34.2933 137.089C33.8224 137.089 33.3588 137.089 32.8707 137.089C32.8707 136.651 32.8707 136.216 32.8707 135.74C33.161 135.74 33.4455 135.74 33.7667 135.74Z" fill="white"/>
<path d="M62.0342 136.552C62.0342 136.268 62.0342 136.022 62.0342 135.761C62.5253 135.761 62.9782 135.761 63.4544 135.761C63.4544 136.195 63.4544 136.622 63.4544 137.079C63.0065 137.079 62.5436 137.079 62.0342 137.079C62.0342 136.921 62.0342 136.756 62.0342 136.552Z" fill="white"/>
<path d="M81.0963 154.213C81.1548 154.435 81.1823 154.65 81.192 154.867C81.2018 155.087 81.1942 155.308 81.1942 155.55C80.7081 155.55 80.245 155.55 79.7662 155.55C79.7662 155.108 79.7662 154.682 79.7662 154.208C80.2031 154.208 80.6303 154.208 81.0963 154.213Z" fill="white"/>
<path d="M99.6631 115.951C99.9401 115.562 100.308 115.482 100.719 115.564C101.054 115.631 101.257 115.863 101.361 116.182C101.487 116.572 101.369 116.978 101.034 117.225C100.708 117.466 100.348 117.458 99.9982 117.288C99.6494 117.119 99.4663 116.736 99.529 116.342C99.549 116.217 99.606 116.097 99.6631 115.951ZM101.033 116.944C101.084 116.855 101.153 116.772 101.181 116.676C101.292 116.31 101.117 115.949 100.76 115.781C100.454 115.637 100.06 115.743 99.8561 116.025C99.6334 116.331 99.6566 116.713 99.9145 116.986C100.211 117.3 100.586 117.301 101.033 116.944Z" fill="white"/>
<path d="M42.4946 112.198C42.5756 112.251 42.655 112.301 42.6581 112.355C42.6719 112.6 42.6641 112.846 42.6641 113.116C42.2651 113.116 41.8951 113.116 41.5039 113.116C41.5039 112.823 41.5039 112.541 41.5039 112.207C41.8164 112.204 42.1371 112.2 42.4946 112.198Z" fill="#F26838"/>
<path d="M71.944 112.198C72.025 112.251 72.1044 112.3 72.1075 112.354C72.1213 112.598 72.1135 112.844 72.1135 113.115C71.7294 113.115 71.3716 113.115 70.9845 113.115C70.9845 112.83 70.9845 112.539 70.9845 112.197C71.2918 112.197 71.5996 112.197 71.944 112.198Z" fill="#F26A3A"/>
<path d="M60.4695 112.198C60.6369 112.198 60.7666 112.198 60.9266 112.198C60.9266 112.508 60.9266 112.799 60.9266 113.116C60.5848 113.116 60.2378 113.116 59.8602 113.116C59.8602 112.83 59.8602 112.539 59.8602 112.198C60.0478 112.198 60.2397 112.198 60.4695 112.198Z" fill="#F26635"/>
<path d="M23.9462 113.14C23.8203 113.134 23.732 113.129 23.6277 113.122C23.6277 112.817 23.6277 112.534 23.6277 112.224C23.988 112.224 24.3449 112.224 24.7195 112.224C24.7195 112.522 24.7195 112.805 24.7195 113.14C24.4715 113.14 24.2277 113.14 23.9462 113.14Z" fill="#F26635"/>
<path d="M101.012 116.966C100.586 117.301 100.211 117.3 99.9146 116.986C99.6567 116.713 99.6335 116.331 99.8562 116.025C100.06 115.743 100.454 115.637 100.76 115.781C101.117 115.949 101.292 116.31 101.182 116.676C101.153 116.772 101.084 116.855 101.012 116.966ZM100.826 116.834C100.821 116.649 100.727 116.478 100.834 116.274C100.927 116.098 100.8 115.961 100.58 115.944C100.429 115.933 100.275 115.942 100.119 115.942C100.119 116.321 100.119 116.65 100.119 116.982C100.275 117.004 100.302 116.934 100.305 116.827C100.308 116.73 100.324 116.634 100.334 116.542C100.695 116.533 100.556 116.851 100.686 117.024C100.748 116.973 100.798 116.933 100.826 116.834Z" fill="#EDEEF2"/>
<path d="M100.837 116.863C100.798 116.933 100.748 116.973 100.686 117.025C100.556 116.851 100.695 116.533 100.334 116.542C100.324 116.634 100.308 116.73 100.305 116.827C100.302 116.935 100.275 117.004 100.119 116.982C100.119 116.65 100.119 116.321 100.119 115.942C100.275 115.942 100.429 115.933 100.58 115.945C100.8 115.961 100.927 116.099 100.834 116.274C100.727 116.478 100.821 116.649 100.837 116.863ZM100.426 116.361C100.534 116.357 100.65 116.338 100.61 116.2C100.598 116.155 100.46 116.105 100.397 116.122C100.258 116.16 100.3 116.263 100.426 116.361Z" fill="white"/>
</svg>
