<svg width="147" height="95" viewBox="0 0 147 95" fill="none" xmlns="http://www.w3.org/2000/svg">
<g clip-path="url(#clip0_2757_776)">
<path d="M72.0754 0.0307362C74.4118 0.0924517 76.0674 1.23419 77.3671 3.00851C78.8835 5.09141 79.5024 7.51374 79.9821 9.98236C80.1677 10.9698 80.307 11.9727 80.4462 12.9601C80.4772 13.2379 80.5855 13.6699 80.1677 13.7161C79.8273 13.747 79.6262 13.423 79.5333 13.0836C79.0382 11.4018 78.4812 9.75092 77.6611 8.19261C77.2588 7.40574 76.8101 6.64972 76.1757 6.01714C74.7522 4.62854 73.4215 5.04512 72.4158 6.54172C71.441 7.99203 71.178 9.68921 71.0078 11.4018C70.8066 13.4076 70.6519 15.4133 70.7292 17.4345C70.8376 19.9803 71.0078 22.5106 71.1934 25.0564C71.2399 25.7198 70.9459 26.1364 70.4353 26.4912C68.037 28.1113 65.6387 29.7159 63.2558 31.3513C62.6988 31.7371 62.1573 32.0148 61.5229 31.6445C60.9349 31.3051 60.8266 30.7342 60.8111 30.0707C60.7647 28.389 60.5326 26.7227 60.5326 25.0409C60.5481 21.8626 60.7492 18.7151 61.2598 15.5676C61.8478 11.9727 62.7916 8.53204 64.5246 5.30741C65.5303 3.3788 66.8765 1.7742 68.7797 0.694178C69.739 0.154167 70.853 -0.0926947 72.0754 0.0307362Z" fill="#72AAC0"/>
<path d="M80.1987 46.518C79.5952 48.9558 78.837 51.2856 77.6456 53.4456C76.6399 55.2816 75.4021 56.9171 73.5917 58.0743C71.4255 59.4629 68.2536 59.2469 66.273 57.7194C64.2925 56.2074 63.3796 54.0628 62.6678 51.8101C62.1263 50.0975 61.8942 48.3232 61.5847 46.5489C61.5538 46.3792 61.5538 46.194 61.5847 46.0089C61.6157 45.762 61.4455 45.3609 61.8323 45.3146C62.1727 45.2837 62.4203 45.5152 62.5131 45.9009C62.9773 47.7678 63.7045 49.5421 64.602 51.2547C64.9424 51.9027 65.3601 52.5044 65.9017 53.029C67.3561 54.4485 68.6094 53.9548 69.6152 52.4582C70.559 51.0541 70.7911 49.3724 71.0542 47.7215C71.2708 46.3483 71.2398 44.9597 71.2708 43.602C71.3017 41.7351 71.2089 39.8373 71.0696 37.955C70.9613 36.5047 70.7602 35.0544 70.8685 33.5886C70.8994 33.2338 71.0077 32.9561 71.3636 32.7092C73.8702 31.0429 76.3614 29.3457 78.837 27.6331C79.3631 27.2628 79.9047 27.0159 80.5236 27.3708C81.1116 27.7102 81.1735 28.2965 81.2663 28.9446C81.4984 30.5646 81.3437 32.2001 81.5139 33.8355C81.6841 35.6253 81.3591 37.4459 81.2818 39.251C81.2044 40.7014 81.0187 42.1362 80.7866 43.5557C80.5855 44.5277 80.3998 45.4997 80.1987 46.518Z" fill="#0B70BA"/>
<path d="M89.0492 21.8317C86.3105 20.4431 83.4171 19.8414 80.4463 19.4402C78.8216 19.2242 77.197 19.2242 75.5878 19.0236C75.3247 18.9928 75.1545 18.9311 75.0772 18.6842C74.9843 18.4065 75.1391 18.2213 75.3557 18.0671C75.6187 17.8973 75.8972 17.9282 76.1757 17.9282C78.3884 17.9282 80.6165 17.8202 82.8291 17.9591C85.3821 18.1133 87.9197 18.3139 90.4573 18.8076C92.7782 19.2551 95.0372 19.826 97.1261 20.8751C99.2304 21.9243 100.979 23.4054 101.66 25.7661C102.402 28.3273 101.83 30.6416 100.19 32.7245C98.1318 35.3165 95.5014 37.1526 92.6235 38.7263C90.9214 39.652 89.1575 40.4081 87.2853 40.9789C86.1867 41.3029 85.7999 41.0715 85.8463 39.9761C85.9392 38.0629 86.001 36.1497 86.001 34.2211C86.001 33.4034 85.8463 32.6011 85.7999 31.7833C85.7535 30.9502 86.1558 30.4873 86.8211 30.1787C88.0589 29.6079 89.2813 29.0061 90.3025 28.1267C92.2676 26.4449 92.4687 24.5626 90.3025 22.742C89.9621 22.4026 89.5134 22.1403 89.0492 21.8317Z" fill="#F2652F"/>
<path d="M60.7956 41.0719C56.324 41.041 51.9761 40.5936 47.752 39.3439C45.6941 38.7421 43.7445 37.8318 42.1817 36.3198C39.6906 33.8512 39.3347 30.2408 41.1141 27.3093C42.7387 24.6247 45.1989 22.8041 47.8138 21.1841C49.9491 19.8726 52.2082 18.7926 54.6374 18.0674C55.8133 17.7126 56.2311 17.944 56.1383 19.1166C55.9526 21.1841 56.0454 23.267 55.999 25.3344C55.9835 25.9516 56.1073 26.5533 56.1692 27.155C56.2621 27.9882 55.8752 28.5282 55.148 28.8522C53.9566 29.3922 52.8116 30.0248 51.744 30.8271C49.5004 32.5243 49.6706 34.8541 51.8213 36.4278C54.003 38.017 56.5251 38.7267 59.14 39.205C61.0432 39.5599 62.9464 39.853 64.8959 39.853C65.3756 39.853 65.8398 40.0227 66.3349 39.9919C66.6599 39.9764 66.9229 40.1616 66.9538 40.4547C66.9848 40.7479 66.7218 40.9639 66.4432 41.041C66.1957 41.1027 65.9326 41.0873 65.6696 41.0873C64.0759 41.0719 62.4667 41.0719 60.7956 41.0719Z" fill="#D33C20"/>
</g>
<path d="M9.3 90.21C7.84 90.21 6.52 89.96 5.34 89.46C4.18 88.96 3.26 88.24 2.58 87.3C1.9 86.36 1.55 85.25 1.53 83.97H6.03C6.09 84.83 6.39 85.51 6.93 86.01C7.49 86.51 8.25 86.76 9.21 86.76C10.19 86.76 10.96 86.53 11.52 86.07C12.08 85.59 12.36 84.97 12.36 84.21C12.36 83.59 12.17 83.08 11.79 82.68C11.41 82.28 10.93 81.97 10.35 81.75C9.79 81.51 9.01 81.25 8.01 80.97C6.65 80.57 5.54 80.18 4.68 79.8C3.84 79.4 3.11 78.81 2.49 78.03C1.89 77.23 1.59 76.17 1.59 74.85C1.59 73.61 1.9 72.53 2.52 71.61C3.14 70.69 4.01 69.99 5.13 69.51C6.25 69.01 7.53 68.76 8.97 68.76C11.13 68.76 12.88 69.29 14.22 70.35C15.58 71.39 16.33 72.85 16.47 74.73H11.85C11.81 74.01 11.5 73.42 10.92 72.96C10.36 72.48 9.61 72.24 8.67 72.24C7.85 72.24 7.19 72.45 6.69 72.87C6.21 73.29 5.97 73.9 5.97 74.7C5.97 75.26 6.15 75.73 6.51 76.11C6.89 76.47 7.35 76.77 7.89 77.01C8.45 77.23 9.23 77.49 10.23 77.79C11.59 78.19 12.7 78.59 13.56 78.99C14.42 79.39 15.16 79.99 15.78 80.79C16.4 81.59 16.71 82.64 16.71 83.94C16.71 85.06 16.42 86.1 15.84 87.06C15.26 88.02 14.41 88.79 13.29 89.37C12.17 89.93 10.84 90.21 9.3 90.21ZM37.7213 69.06V90H33.5213V81.09H24.5513V90H20.3513V69.06H24.5513V77.67H33.5213V69.06H37.7213ZM57.1252 75.54C57.1252 76.66 56.8552 77.71 56.3152 78.69C55.7952 79.67 54.9652 80.46 53.8252 81.06C52.7052 81.66 51.2852 81.96 49.5652 81.96H46.0552V90H41.8552V69.06H49.5652C51.1852 69.06 52.5652 69.34 53.7052 69.9C54.8452 70.46 55.6952 71.23 56.2552 72.21C56.8352 73.19 57.1252 74.3 57.1252 75.54ZM49.3852 78.57C50.5452 78.57 51.4052 78.31 51.9652 77.79C52.5252 77.25 52.8052 76.5 52.8052 75.54C52.8052 73.5 51.6652 72.48 49.3852 72.48H46.0552V78.57H49.3852ZM64.3071 72.45V77.7H71.3571V81.03H64.3071V86.58H72.2571V90H60.1071V69.03H72.2571V72.45H64.3071ZM87.3623 69.06V82.02C87.3623 83.44 87.7323 84.53 88.4723 85.29C89.2123 86.03 90.2523 86.4 91.5923 86.4C92.9523 86.4 94.0023 86.03 94.7423 85.29C95.4823 84.53 95.8523 83.44 95.8523 82.02V69.06H100.082V81.99C100.082 83.77 99.6923 85.28 98.9123 86.52C98.1523 87.74 97.1223 88.66 95.8223 89.28C94.5423 89.9 93.1123 90.21 91.5323 90.21C89.9723 90.21 88.5523 89.9 87.2723 89.28C86.0123 88.66 85.0123 87.74 84.2723 86.52C83.5323 85.28 83.1623 83.77 83.1623 81.99V69.06H87.3623ZM103.12 79.5C103.12 77.44 103.58 75.6 104.5 73.98C105.44 72.34 106.71 71.07 108.31 70.17C109.93 69.25 111.74 68.79 113.74 68.79C116.08 68.79 118.13 69.39 119.89 70.59C121.65 71.79 122.88 73.45 123.58 75.57H118.75C118.27 74.57 117.59 73.82 116.71 73.32C115.85 72.82 114.85 72.57 113.71 72.57C112.49 72.57 111.4 72.86 110.44 73.44C109.5 74 108.76 74.8 108.22 75.84C107.7 76.88 107.44 78.1 107.44 79.5C107.44 80.88 107.7 82.1 108.22 83.16C108.76 84.2 109.5 85.01 110.44 85.59C111.4 86.15 112.49 86.43 113.71 86.43C114.85 86.43 115.85 86.18 116.71 85.68C117.59 85.16 118.27 84.4 118.75 83.4H123.58C122.88 85.54 121.65 87.21 119.89 88.41C118.15 89.59 116.1 90.18 113.74 90.18C111.74 90.18 109.93 89.73 108.31 88.83C106.71 87.91 105.44 86.64 104.5 85.02C103.58 83.4 103.12 81.56 103.12 79.5ZM140.098 69.06V72.45H131.368V77.82H138.058V81.15H131.368V90H127.168V69.06H140.098Z" fill="#8896AB"/>
<defs>
<clipPath id="clip0_2757_776">
<rect width="62" height="59" fill="white" transform="translate(40)"/>
</clipPath>
</defs>
</svg>
