<svg width="261" height="55" viewBox="0 0 261 55" fill="none" xmlns="http://www.w3.org/2000/svg">
<g clip-path="url(#clip0_2608_12645)">
<path d="M108.544 11V44H102.746V18.1042H102.668L92.3086 44H88.4431L77.8515 18.1042H77.7742V44H72.4398V11H80.7893L90.3758 35.4444H90.5305L100.658 11H108.544ZM113.337 13.5208C113.337 12.6042 113.646 11.8403 114.342 11.2292C115.038 10.618 115.811 10.3125 116.739 10.3125C117.744 10.3125 118.594 10.618 119.213 11.2292C119.831 11.8403 120.218 12.6042 120.218 13.5208C120.218 14.4375 119.908 15.2014 119.213 15.8125C118.517 16.4236 117.744 16.7292 116.739 16.7292C115.734 16.7292 114.961 16.4236 114.342 15.8125C113.724 15.125 113.337 14.3611 113.337 13.5208ZM119.599 20.3194V44H113.956V20.3194H119.599ZM136.685 39.9514C137.535 39.9514 138.463 39.7986 139.468 39.3403C140.473 38.9583 141.401 38.4236 142.251 37.8125V43.0069C141.323 43.5417 140.318 43.9236 139.159 44.1528C137.999 44.3819 136.762 44.5347 135.371 44.5347C131.814 44.5347 128.954 43.4653 126.789 41.25C124.547 39.0347 123.465 36.2083 123.465 32.8472C123.465 29.0278 124.624 25.8958 126.866 23.4514C129.108 21.0069 132.278 19.7847 136.453 19.7847C137.535 19.7847 138.618 19.9375 139.623 20.1667C140.705 20.3958 141.555 20.7778 142.174 21.0833V26.4305C141.323 25.8194 140.396 25.2847 139.545 24.9792C138.618 24.6736 137.69 24.4444 136.762 24.4444C134.52 24.4444 132.742 25.1319 131.35 26.5833C129.959 28.0347 129.34 29.9444 129.34 32.3889C129.34 34.7569 130.036 36.6667 131.35 37.9653C132.665 39.2639 134.443 39.9514 136.685 39.9514ZM158.254 19.9375C158.718 19.9375 159.105 19.9375 159.491 20.0139C159.878 20.0903 160.187 20.1667 160.419 20.243V25.8958C160.11 25.6667 159.723 25.4375 159.105 25.2847C158.486 25.1319 157.868 24.9792 157.017 24.9792C155.626 24.9792 154.466 25.5903 153.538 26.7361C152.611 27.8819 152.07 29.6389 152.07 32.0833V44H146.426V20.3194H152.07V24.0625H152.147C152.688 22.7639 153.461 21.7708 154.466 21.0069C155.549 20.3194 156.785 19.9375 158.254 19.9375ZM160.728 32.5417C160.728 28.6458 161.888 25.5139 164.053 23.2222C166.295 20.9305 169.387 19.7847 173.33 19.7847C177.041 19.7847 179.979 20.8542 182.066 23.0694C184.153 25.2847 185.236 28.2639 185.236 32.0069C185.236 35.8264 184.076 38.8819 181.911 41.1736C179.669 43.4653 176.654 44.6111 172.789 44.6111C169.078 44.6111 166.14 43.5417 163.975 41.4028C161.811 39.1875 160.728 36.2083 160.728 32.5417ZM166.604 32.3125C166.604 34.7569 167.145 36.6667 168.305 37.9653C169.464 39.2639 171.088 39.9514 173.175 39.9514C175.185 39.9514 176.809 39.3403 177.891 37.9653C178.974 36.6667 179.515 34.7569 179.515 32.1597C179.515 29.6389 178.974 27.7292 177.891 26.3542C176.809 25.0555 175.185 24.368 173.253 24.368C171.165 24.368 169.619 25.0555 168.459 26.4305C167.145 27.8819 166.604 29.7917 166.604 32.3125ZM193.663 26.5833C193.663 27.3472 193.895 28.0347 194.436 28.493C194.977 28.9514 196.059 29.4861 197.837 30.1736C200.079 31.0903 201.703 32.0833 202.553 33.1528C203.481 34.2986 203.945 35.5972 203.945 37.2014C203.945 39.4167 203.094 41.1736 201.316 42.5486C199.615 43.9236 197.219 44.5347 194.281 44.5347C193.276 44.5347 192.194 44.3819 190.957 44.1528C189.72 43.9236 188.715 43.618 187.864 43.2361V37.7361C188.869 38.4236 190.029 39.0347 191.189 39.4167C192.348 39.7986 193.431 40.0278 194.436 40.0278C195.673 40.0278 196.678 39.875 197.219 39.493C197.837 39.1111 198.147 38.5764 198.147 37.7361C198.147 36.9722 197.837 36.3611 197.219 35.75C196.6 35.2153 195.363 34.6042 193.663 33.9167C191.575 33.0764 190.106 32.0833 189.256 31.0139C188.405 29.9444 187.942 28.5694 187.942 26.8889C187.942 24.75 188.792 22.993 190.493 21.618C192.194 20.243 194.436 19.5555 197.142 19.5555C197.992 19.5555 198.92 19.6319 199.925 19.8611C200.93 20.0903 201.857 20.3194 202.553 20.5486V25.9722C201.78 25.5139 200.93 25.0555 199.925 24.6736C198.92 24.2917 197.915 24.1389 196.987 24.1389C195.905 24.1389 195.054 24.368 194.513 24.75C193.972 25.2847 193.663 25.8194 193.663 26.5833ZM206.341 32.5417C206.341 28.6458 207.501 25.5139 209.666 23.2222C211.908 20.9305 215 19.7847 218.943 19.7847C222.654 19.7847 225.592 20.8542 227.679 23.0694C229.767 25.2847 230.849 28.2639 230.849 32.0069C230.849 35.8264 229.689 38.8819 227.525 41.1736C225.283 43.4653 222.267 44.6111 218.402 44.6111C214.691 44.6111 211.753 43.5417 209.589 41.4028C207.501 39.1875 206.341 36.2083 206.341 32.5417ZM212.217 32.3125C212.217 34.7569 212.758 36.6667 213.918 37.9653C215.078 39.2639 216.701 39.9514 218.788 39.9514C220.799 39.9514 222.422 39.3403 223.504 37.9653C224.587 36.6667 225.128 34.7569 225.128 32.1597C225.128 29.6389 224.587 27.7292 223.504 26.3542C222.422 25.0555 220.799 24.368 218.866 24.368C216.778 24.368 215.232 25.0555 214.073 26.4305C212.836 27.8819 212.217 29.7917 212.217 32.3125ZM249.635 24.9028H241.208V44H235.488V24.9028H231.467V20.3194H235.488V17.0347C235.488 14.5903 236.338 12.5278 237.961 10.9236C239.585 9.31943 241.672 8.55554 244.224 8.55554C244.919 8.55554 245.538 8.63193 246.079 8.63193C246.62 8.63193 247.084 8.78471 247.471 8.93749V13.75C247.316 13.6736 246.929 13.5208 246.466 13.368C246.002 13.2153 245.461 13.1389 244.842 13.1389C243.682 13.1389 242.755 13.5208 242.136 14.2083C241.518 14.8958 241.208 16.0417 241.208 17.4167V20.243H249.635V14.8958L255.279 13.2153V20.243H261V24.8264H255.279V35.9028C255.279 37.3542 255.588 38.3472 256.052 38.9583C256.593 39.5694 257.444 39.875 258.603 39.875C258.913 39.875 259.299 39.7986 259.763 39.6458C260.227 39.493 260.613 39.3403 260.923 39.1111V43.6944C260.536 43.9236 259.995 44.0764 259.145 44.2292C258.294 44.3819 257.521 44.4583 256.671 44.4583C254.274 44.4583 252.496 43.8472 251.336 42.625C250.176 41.4028 249.558 39.493 249.558 36.9722L249.635 24.9028Z" fill="#8896AB"/>
<path d="M26.4402 0H0V26.125H26.4402V0Z" fill="#556987"/>
<path d="M55.6636 0H29.2234V26.125H55.6636V0Z" fill="#8896AB"/>
<path d="M26.4402 28.875H0V55H26.4402V28.875Z" fill="#8896AB"/>
<path d="M55.6636 28.875H29.2234V55H55.6636V28.875Z" fill="#D5DAE1"/>
</g>
<defs>
<clipPath id="clip0_2608_12645">
<rect width="261" height="55" fill="white"/>
</clipPath>
</defs>
</svg>
