<svg width="107" height="85" viewBox="0 0 107 85" fill="none" xmlns="http://www.w3.org/2000/svg">
<g opacity="0.45">
<path d="M57.7169 14.7558C58.7801 14.3097 58.8881 15.0348 58.2955 15.4875C57.6896 15.9515 56.9711 16.486 56.0938 17.0176C52.239 19.3545 48.326 22.209 44.3012 25.4072C46.0787 26.511 47.5646 28.0422 48.609 29.8544L48.9797 30.5469L54.4848 42.2259C55.054 43.3652 56.1088 43.9964 57.3327 43.9964C58.4223 43.9964 59.3723 43.4977 59.9697 42.5867L60.1768 42.2259L65.681 30.5469C67.7465 26.385 72.0577 23.5042 77.0181 23.5042C82.0357 23.5042 86.3545 26.4235 88.3852 30.6559C88.5928 31.1584 88.6256 31.6186 88.2462 32.1634C85.5005 36.1323 81.9711 40.2237 77.8609 44.3294L76.4695 45.6984L76.4714 38.5345L73.5775 44.6915C70.4046 51.4947 64.6497 55.5598 57.3308 55.5598C50.2734 55.5598 44.6692 51.7798 41.4339 45.4099L41.0842 44.6915L38.1903 38.5345L38.1931 66.6142C33.5428 69.1989 29.4758 71.101 25.9775 72.3695L25.0376 72.6998V42.4335C11.9826 55.4716 4.76705 67.0181 9.1685 72.9891C14.1463 79.7464 27.4705 76.0391 47.202 63.5908L48.2847 62.9031C49.1479 62.3508 49.9481 61.869 50.6235 61.5149C51.2828 61.1683 51.8962 61.5675 51.0452 62.3452C50.5295 62.8186 49.8176 63.369 49.0107 63.9213C46.1478 65.875 43.2452 67.7565 40.3568 69.5188L38.194 70.8174L38.195 84.4548H25.0376V77.6441C14.4106 82.2597 5.53632 83.4977 1.7933 78.1391C-3.22052 70.9563 6.12375 54.9742 24.1001 38.6913L25.0376 37.8489V36.1112C25.0376 29.138 30.6685 23.5042 37.6417 23.5042C39.2479 23.5042 40.7845 23.8095 42.201 24.358L43.5892 23.4C47.4384 20.7728 51.4632 18.3298 55.3987 15.9449C56.2366 15.4377 57.0725 15.0254 57.7169 14.7558ZM65.2649 10.3191L65.7787 10.0576C85.4161 -0.316756 100.567 -3.14773 105.443 3.83672C110.024 10.3967 104.34 23.8883 90.4506 38.5047L89.6241 39.3658V65.6805H76.4667L76.4686 51.2683C73.632 53.5413 70.6178 55.8022 67.4271 58.0311L65.023 59.7021C62.0426 61.7638 58.5613 64.1307 55.7774 65.8798L54.343 66.7631L54.0612 66.9317C53.2262 67.4398 52.441 67.8587 51.7994 68.1339C50.739 68.5885 50.6272 67.8634 51.2124 67.4051C51.8154 66.9354 52.5828 66.4122 53.4413 65.8496L54.0903 65.442C57.3449 63.4883 62.3419 59.9735 65.5805 57.5718C89.8345 39.579 103.841 15.2564 97.0021 7.83428C92.6168 3.07464 81.5627 4.16114 67.3321 10.7192L66.3103 11.1969C65.3879 11.6477 64.5689 11.9633 63.8522 12.2245C63.1534 12.479 62.5973 11.9962 63.5479 11.3397C64.007 11.0226 64.5978 10.6694 65.2649 10.3191Z" fill="#556987"/>
</g>
</svg>
