<svg width="101" height="84" viewBox="0 0 101 84" fill="none" xmlns="http://www.w3.org/2000/svg">
<g id="nasa 1">
<path id="Vector" d="M45.9541 77.7365C66.309 77.7365 82.8099 61.3279 82.8099 41.0869C82.8099 20.8459 66.309 4.43738 45.9541 4.43738C25.5992 4.43738 9.09827 20.8459 9.09827 41.0869C9.09827 61.3279 25.5992 77.7365 45.9541 77.7365Z" fill="#556987"/>
<g id="Group">
<path id="Vector_2" d="M43.7781 11.8878C44.0062 11.8878 44.1912 11.7039 44.1912 11.4769C44.1912 11.25 44.0062 11.0661 43.7781 11.0661C43.5499 11.0661 43.3649 11.25 43.3649 11.4769C43.3649 11.7039 43.5499 11.8878 43.7781 11.8878Z" fill="white"/>
<path id="Vector_3" d="M48.02 12.4356C48.2482 12.4356 48.4332 12.2517 48.4332 12.0248C48.4332 11.7978 48.2482 11.6139 48.02 11.6139C47.7918 11.6139 47.6068 11.7978 47.6068 12.0248C47.6068 12.2517 47.7918 12.4356 48.02 12.4356Z" fill="white"/>
<path id="Vector_4" d="M53.5842 19.8861C53.8124 19.8861 53.9974 19.7021 53.9974 19.4752C53.9974 19.2483 53.8124 19.0643 53.5842 19.0643C53.356 19.0643 53.171 19.2483 53.171 19.4752C53.171 19.7021 53.356 19.8861 53.5842 19.8861Z" fill="white"/>
<path id="Vector_5" d="M23.0638 58.2339C23.292 58.2339 23.477 58.05 23.477 57.823C23.477 57.5961 23.292 57.4122 23.0638 57.4122C22.8356 57.4122 22.6506 57.5961 22.6506 57.823C22.6506 58.05 22.8356 58.2339 23.0638 58.2339Z" fill="white"/>
<path id="Vector_6" d="M24.1382 61.5209C24.3664 61.5209 24.5513 61.3369 24.5513 61.11C24.5513 60.8831 24.3664 60.6991 24.1382 60.6991C23.91 60.6991 23.725 60.8831 23.725 61.11C23.725 61.3369 23.91 61.5209 24.1382 61.5209Z" fill="white"/>
<path id="Vector_7" d="M19.0146 58.6238C19.1855 58.6238 19.3241 58.486 19.3241 58.3161C19.3241 58.1462 19.1855 58.0084 19.0146 58.0084C18.8437 58.0084 18.7052 58.1462 18.7052 58.3161C18.7052 58.486 18.8437 58.6238 19.0146 58.6238Z" fill="white"/>
<path id="Vector_8" d="M35.8174 65.0817C35.9888 65.0817 36.1278 64.9436 36.1278 64.7731C36.1278 64.6027 35.9888 64.4645 35.8174 64.4645C35.646 64.4645 35.5071 64.6027 35.5071 64.7731C35.5071 64.9436 35.646 65.0817 35.8174 65.0817Z" fill="white"/>
<path id="Vector_9" d="M62.171 59.6372C62.3419 59.6372 62.4804 59.4995 62.4804 59.3296C62.4804 59.1596 62.3419 59.0219 62.171 59.0219C62.0001 59.0219 61.8616 59.1596 61.8616 59.3296C61.8616 59.4995 62.0001 59.6372 62.171 59.6372Z" fill="white"/>
<path id="Vector_10" d="M69.8296 51.366C70.001 51.366 70.14 51.2278 70.14 51.0574C70.14 50.8869 70.001 50.7488 69.8296 50.7488C69.6582 50.7488 69.5193 50.8869 69.5193 51.0574C69.5193 51.2278 69.6582 51.366 69.8296 51.366Z" fill="white"/>
<path id="Vector_11" d="M32.2916 22.186C32.4625 22.186 32.601 22.0483 32.601 21.8783C32.601 21.7084 32.4625 21.5706 32.2916 21.5706C32.1207 21.5706 31.9822 21.7084 31.9822 21.8783C31.9822 22.0483 32.1207 22.186 32.2916 22.186Z" fill="white"/>
<path id="Vector_12" d="M40.7204 16.0303C40.8913 16.0303 41.0299 15.8925 41.0299 15.7226C41.0299 15.5527 40.8913 15.4149 40.7204 15.4149C40.5495 15.4149 40.411 15.5527 40.411 15.7226C40.411 15.8925 40.5495 16.0303 40.7204 16.0303Z" fill="white"/>
<path id="Vector_13" d="M39.805 15.4277C39.9759 15.4277 40.1145 15.2899 40.1145 15.12C40.1145 14.95 39.9759 14.8123 39.805 14.8123C39.6341 14.8123 39.4956 14.95 39.4956 15.12C39.4956 15.2899 39.6341 15.4277 39.805 15.4277Z" fill="white"/>
<path id="Vector_14" d="M38.9787 14.8251C39.1496 14.8251 39.2882 14.6873 39.2882 14.5174C39.2882 14.3474 39.1496 14.2097 38.9787 14.2097C38.8078 14.2097 38.6693 14.3474 38.6693 14.5174C38.6693 14.6873 38.8078 14.8251 38.9787 14.8251Z" fill="white"/>
<path id="Vector_15" d="M33.6138 23.7756C33.7846 23.7756 33.9232 23.6379 33.9232 23.4679C33.9232 23.298 33.7846 23.1602 33.6138 23.1602C33.4429 23.1602 33.3043 23.298 33.3043 23.4679C33.3043 23.6379 33.4429 23.7756 33.6138 23.7756Z" fill="white"/>
<path id="Vector_16" d="M46.0294 7.75812C46.2003 7.75812 46.3388 7.62036 46.3388 7.45043C46.3388 7.28049 46.2003 7.14273 46.0294 7.14273C45.8585 7.14273 45.72 7.28049 45.72 7.45043C45.72 7.62036 45.8585 7.75812 46.0294 7.75812Z" fill="white"/>
<path id="Vector_17" d="M48.0687 16.6329C48.2396 16.6329 48.3781 16.4951 48.3781 16.3252C48.3781 16.1553 48.2396 16.0175 48.0687 16.0175C47.8978 16.0175 47.7593 16.1553 47.7593 16.3252C47.7593 16.4951 47.8978 16.6329 48.0687 16.6329Z" fill="white"/>
<path id="Vector_18" d="M44.8523 14.8999C45.0232 14.8999 45.1617 14.7622 45.1617 14.5922C45.1617 14.4223 45.0232 14.2845 44.8523 14.2845C44.6814 14.2845 44.5428 14.4223 44.5428 14.5922C44.5428 14.7622 44.6814 14.8999 44.8523 14.8999Z" fill="white"/>
<path id="Vector_19" d="M39.3432 17.2565C39.5141 17.2565 39.6527 17.1187 39.6527 16.9488C39.6527 16.7789 39.5141 16.6411 39.3432 16.6411C39.1723 16.6411 39.0338 16.7789 39.0338 16.9488C39.0338 17.1187 39.1723 17.2565 39.3432 17.2565Z" fill="white"/>
<path id="Vector_20" d="M63.6383 67.7661C63.8092 67.7661 63.9477 67.6283 63.9477 67.4584C63.9477 67.2885 63.8092 67.1507 63.6383 67.1507C63.4674 67.1507 63.3289 67.2885 63.3289 67.4584C63.3289 67.6283 63.4674 67.7661 63.6383 67.7661Z" fill="white"/>
<path id="Vector_21" d="M22.5404 60.2134C22.7118 60.2134 22.8508 60.0752 22.8508 59.9048C22.8508 59.7343 22.7118 59.5962 22.5404 59.5962C22.369 59.5962 22.2301 59.7343 22.2301 59.9048C22.2301 60.0752 22.369 60.2134 22.5404 60.2134Z" fill="white"/>
<path id="Vector_22" d="M44.081 64.1851C44.2524 64.1851 44.3913 64.0469 44.3913 63.8765C44.3913 63.7061 44.2524 63.5679 44.081 63.5679C43.9096 63.5679 43.7706 63.7061 43.7706 63.8765C43.7706 64.0469 43.9096 64.1851 44.081 64.1851Z" fill="white"/>
<path id="Vector_23" d="M28.9512 59.9669C29.1226 59.9669 29.2616 59.8287 29.2616 59.6582C29.2616 59.4878 29.1226 59.3496 28.9512 59.3496C28.7798 59.3496 28.6409 59.4878 28.6409 59.6582C28.6409 59.8287 28.7798 59.9669 28.9512 59.9669Z" fill="white"/>
<path id="Vector_24" d="M31.6305 64.3157C31.8019 64.3157 31.9409 64.1775 31.9409 64.0071C31.9409 63.8367 31.8019 63.6985 31.6305 63.6985C31.4591 63.6985 31.3202 63.8367 31.3202 64.0071C31.3202 64.1775 31.4591 64.3157 31.6305 64.3157Z" fill="white"/>
<path id="Vector_25" d="M51.353 61.5757C51.5239 61.5757 51.6624 61.4379 51.6624 61.268C51.6624 61.098 51.5239 60.9603 51.353 60.9603C51.1821 60.9603 51.0436 61.098 51.0436 61.268C51.0436 61.4379 51.1821 61.5757 51.353 61.5757Z" fill="white"/>
<path id="Vector_26" d="M62.2262 55.4738C62.3971 55.4738 62.5356 55.336 62.5356 55.1661C62.5356 54.9962 62.3971 54.8584 62.2262 54.8584C62.0553 54.8584 61.9167 54.9962 61.9167 55.1661C61.9167 55.336 62.0553 55.4738 62.2262 55.4738Z" fill="white"/>
<path id="Vector_27" d="M70.4696 59.2191C70.6405 59.2191 70.779 59.0813 70.779 58.9114C70.779 58.7415 70.6405 58.6037 70.4696 58.6037C70.2987 58.6037 70.1602 58.7415 70.1602 58.9114C70.1602 59.0813 70.2987 59.2191 70.4696 59.2191Z" fill="white"/>
<path id="Vector_28" d="M73.2792 61.0068C73.45 61.0068 73.5886 60.8691 73.5886 60.6991C73.5886 60.5292 73.45 60.3914 73.2792 60.3914C73.1083 60.3914 72.9697 60.5292 72.9697 60.6991C72.9697 60.8691 73.1083 61.0068 73.2792 61.0068Z" fill="white"/>
<path id="Vector_29" d="M73.7411 56.1312C73.912 56.1312 74.0505 55.9934 74.0505 55.8235C74.0505 55.6535 73.912 55.5158 73.7411 55.5158C73.5702 55.5158 73.4316 55.6535 73.4316 55.8235C73.4316 55.9934 73.5702 56.1312 73.7411 56.1312Z" fill="white"/>
<path id="Vector_30" d="M32.7525 49.2286C32.9234 49.2286 33.062 49.0908 33.062 48.9209C33.062 48.7509 32.9234 48.6132 32.7525 48.6132C32.5817 48.6132 32.4431 48.7509 32.4431 48.9209C32.4431 49.0908 32.5817 49.2286 32.7525 49.2286Z" fill="white"/>
<path id="Vector_31" d="M32.87 56.3987C33.0982 56.3987 33.2832 56.2147 33.2832 55.9878C33.2832 55.7609 33.0982 55.5769 32.87 55.5769C32.6418 55.5769 32.4568 55.7609 32.4568 55.9878C32.4568 56.2147 32.6418 56.3987 32.87 56.3987Z" fill="white"/>
<path id="Vector_32" d="M35.3491 61.6031C35.5773 61.6031 35.7623 61.4191 35.7623 61.1922C35.7623 60.9653 35.5773 60.7813 35.3491 60.7813C35.1209 60.7813 34.9359 60.9653 34.9359 61.1922C34.9359 61.4191 35.1209 61.6031 35.3491 61.6031Z" fill="white"/>
<path id="Vector_33" d="M65.0431 56.1796C65.2713 56.1796 65.4562 55.9956 65.4562 55.7687C65.4562 55.5418 65.2713 55.3578 65.0431 55.3578C64.8149 55.3578 64.6299 55.5418 64.6299 55.7687C64.6299 55.9956 64.8149 56.1796 65.0431 56.1796Z" fill="white"/>
<path id="Vector_34" d="M75.7308 55.577C75.959 55.577 76.144 55.393 76.144 55.1661C76.144 54.9392 75.959 54.7552 75.7308 54.7552C75.5026 54.7552 75.3176 54.9392 75.3176 55.1661C75.3176 55.393 75.5026 55.577 75.7308 55.577Z" fill="white"/>
<path id="Vector_35" d="M70.442 53.3309C70.6702 53.3309 70.8552 53.1469 70.8552 52.92C70.8552 52.6931 70.6702 52.5091 70.442 52.5091C70.2138 52.5091 70.0288 52.6931 70.0288 52.92C70.0288 53.1469 70.2138 53.3309 70.442 53.3309Z" fill="white"/>
<path id="Vector_36" d="M65.0431 53.55C65.2713 53.55 65.4562 53.366 65.4562 53.1391C65.4562 52.9122 65.2713 52.7282 65.0431 52.7282C64.8149 52.7282 64.6299 52.9122 64.6299 53.1391C64.6299 53.366 64.8149 53.55 65.0431 53.55Z" fill="white"/>
<path id="Vector_37" d="M53.9064 11.2195L54.9339 11.1218L53.9083 11.0643C53.8761 10.867 53.7173 10.7127 53.5171 10.6872L53.4189 9.67004L53.3601 10.6954C53.1747 10.7365 53.0323 10.8908 53.0094 11.0825L51.959 11.1775L53.0167 11.2341C53.0553 11.4103 53.1985 11.5482 53.3785 11.581L53.474 12.6292L53.53 11.5829C53.7201 11.5509 53.8706 11.4057 53.9064 11.2195Z" fill="white"/>
<path id="Vector_38" d="M36.5658 22.5942L37.5932 22.4965L36.5676 22.439C36.5364 22.2417 36.3766 22.0874 36.1764 22.0619L36.0782 21.0447L36.0204 22.0701C35.834 22.1112 35.6916 22.2655 35.6687 22.4572L34.6183 22.5522L35.676 22.6088C35.7146 22.785 35.8578 22.9229 36.0378 22.9557L36.1333 24.0039L36.1902 22.9576C36.3803 22.9265 36.5309 22.7804 36.5658 22.5942Z" fill="white"/>
<path id="Vector_39" d="M74.9778 52.668L76.0052 52.5703L74.9796 52.5128C74.9484 52.3156 74.7886 52.1613 74.5885 52.1357L74.4902 51.1186L74.4324 52.1439C74.2469 52.185 74.1046 52.3393 74.0816 52.531L73.0312 52.626L74.089 52.6826C74.1276 52.8588 74.2708 52.9967 74.4508 53.0296L74.5463 54.0777L74.6032 53.0314C74.7914 53.0003 74.942 52.8552 74.9778 52.668Z" fill="white"/>
<path id="Vector_40" d="M33.0949 68.3924L34.1224 68.2947L33.0968 68.2372C33.0646 68.04 32.9058 67.8857 32.7056 67.8601L32.6074 66.8439L32.5495 67.8683C32.3631 67.9094 32.2208 68.0637 32.1979 68.2555L31.1475 68.3504L32.2052 68.407C32.2438 68.5832 32.387 68.722 32.567 68.754L32.6625 69.8022L32.7194 68.7558C32.9085 68.7248 33.06 68.5787 33.0949 68.3924Z" fill="white"/>
<path id="Vector_41" d="M71.7138 60.7229L72.7412 60.6252L71.7156 60.5676C71.6844 60.3704 71.5246 60.2161 71.3244 60.1906L71.2262 59.1734L71.1684 60.1979C70.9829 60.239 70.8406 60.3933 70.8176 60.585L69.7672 60.68L70.825 60.7366C70.8635 60.9128 71.0068 61.0507 71.1867 61.0835L71.2822 62.1317L71.3391 61.0853C71.5274 61.0552 71.6789 60.9091 71.7138 60.7229Z" fill="white"/>
<path id="Vector_42" d="M54.6943 32.308C50.4091 33.9643 46.2296 35.4425 42.7028 36.54C35.5364 38.7715 15.9287 44.8122 4.08411 52.4269L5.07574 52.8104C12.2927 48.7565 16.9836 47.4828 21.4928 46.0722C26.3959 44.5383 42.2465 40.8496 49.4239 38.8409C51.8488 38.1625 54.6888 37.2741 57.6967 36.193C56.9971 35.2225 56.2589 34.2492 55.4821 33.2777C55.2222 32.9499 54.9587 32.6267 54.6943 32.308ZM59.9298 39.4836C58.8922 40.1803 58.0227 40.7363 57.4139 41.0869C53.8881 43.1139 36.6988 54.7826 32.7883 57.4669C28.8778 60.1513 18.0239 70.3409 14.8287 73.2991L14.7185 74.5034C25.0205 65.2999 28.2525 63.0301 32.3476 59.9322C37.4159 56.0974 47.9007 49.003 51.4641 46.7296C54.8706 44.5565 57.9428 42.5579 60.7001 40.729C60.6551 40.6542 60.6101 40.5793 60.5651 40.5035C60.3576 40.1648 60.1455 39.8251 59.9298 39.4836ZM76.0338 22.5704C71.015 25.4958 63.1048 29.0266 55.4307 32.0223C55.6143 32.246 55.797 32.4715 55.9788 32.6988C56.8364 33.7726 57.6453 34.8536 58.4065 35.9356C64.439 33.726 71.0581 30.7604 76.3101 27.1713C73.8081 29.5287 65.5362 35.6763 60.4926 39.1029C60.7525 39.5238 61.004 39.9447 61.2474 40.3638C68.8885 35.2791 74.0303 31.5365 77.0263 29.0339C81.1581 25.5826 90.5787 17.8582 94.1596 7.5043C87.8783 15.4487 80.452 19.9947 76.0338 22.5704Z" fill="#8896AB"/>
<path id="Vector_43" d="M41.2117 50.1617C40.3991 49.1446 39.2753 47.7823 38.4314 46.7259C37.303 45.3134 36.259 43.8864 35.3023 42.4611C34.9901 42.5387 34.6788 42.6163 34.3676 42.6939C35.5227 44.4862 36.8053 46.2758 38.2028 48.0252C39.2238 49.3034 40.1521 50.3324 40.6277 50.9725C40.7242 51.1021 40.9151 51.3888 41.1731 51.7705C41.4706 51.5696 41.7709 51.3669 42.0739 51.1624C41.781 50.8456 41.4918 50.5123 41.2117 50.1617ZM47.1432 55.5158C46.4756 54.8876 44.8569 53.8385 43.172 52.2644C42.8002 52.5183 42.4246 52.7757 42.0482 53.035C43.1362 54.5598 44.6182 56.4325 45.7787 56.9785C47.527 57.802 47.998 56.3211 47.1432 55.5158ZM55.9788 32.6988C46.3453 20.6412 34.5769 14.017 29.503 18.0262C25.5622 21.1397 27.1801 30.2391 32.612 39.7977C32.893 39.7019 33.1712 39.6078 33.4466 39.5147C27.9642 30.2017 26.4639 21.5469 30.1807 18.6097C34.8515 14.9191 46.1295 21.5688 55.4839 33.2768C57.4204 35.7 59.1227 38.1323 60.5642 40.5035C66.0843 49.5883 67.7784 57.8039 63.9643 61.1575C62.7972 62.1837 59.231 62.5864 54.5593 60.4955C54.4941 60.5768 54.5988 60.7968 54.6805 60.8507C58.7132 62.4631 62.576 63.0776 64.5262 61.5373C69.2126 57.834 65.6124 44.7565 55.9788 32.6988Z" fill="white"/>
<path id="Vector_44" d="M14.6625 34.1295H20.8327L26.0112 42.8674C26.0112 42.8674 26.0112 36.54 26.0112 36.0469C26.0112 35.28 25.0333 34.2802 24.689 34.1295C25.1022 34.1295 28.7107 34.1295 28.9586 34.1295C28.6969 34.198 27.8567 35.2115 27.8567 36.0469C27.8567 36.4578 27.8567 45.6339 27.8567 46.0722C27.8567 46.6885 28.752 47.5376 29.1789 47.8663H23.2291L17.9679 39.0874C17.9679 39.0874 17.9679 45.6339 17.9679 45.99C17.9679 46.6748 18.6428 47.3322 19.3452 47.8937H14.8002C15.4475 47.6198 16.0673 46.7569 16.1224 46.0722C16.1775 45.3874 16.1224 36.5537 16.1224 36.1702C16.1224 35.3348 15.3098 34.65 14.6625 34.1295Z" fill="white"/>
<path id="Vector_45" d="M71.1031 47.8663H79.3116C78.8571 47.7567 78.3475 47.2226 78.0721 46.5104C77.7966 45.7982 73.4444 34.1295 73.4444 34.1295H70.3235C69.4384 34.7632 68.4899 35.4315 67.4772 36.1355C67.4744 36.1611 67.4717 36.1866 67.4671 36.2113C67.3312 37.033 64.8888 45.8293 64.7401 46.2639C64.5335 46.8665 63.473 47.5376 63.046 47.8937H67.4671C67.0263 47.4006 66.6682 46.9213 66.7509 46.3735C66.8335 45.8256 67.0814 44.73 67.0814 44.73H71.654C71.8606 45.2778 72.0148 45.7699 72.0947 46.2365C72.1911 46.798 71.6127 47.428 71.1031 47.8663ZM67.4946 42.9769L69.0372 37.9643L71.0755 42.9769H67.4946ZM66.7995 34.6299C67.0263 34.4637 67.254 34.2966 67.4808 34.1295H66.2826C66.402 34.2391 66.5994 34.4117 66.7995 34.6299Z" fill="white"/>
<path id="Vector_46" d="M35.4042 46.3735C35.4868 45.8256 35.7348 44.73 35.7348 44.73H40.3073C40.5139 45.2778 40.6681 45.7699 40.748 46.2365C40.8444 46.798 40.266 47.428 39.7564 47.8663H46.9834C47.134 47.7659 47.2836 47.6654 47.4333 47.5659C47.1533 47.3194 46.8953 46.9496 46.7254 46.5104C46.4499 45.7982 42.0978 34.1295 42.0978 34.1295H34.9359C35.2803 34.4445 36.2719 35.2937 36.1204 36.2113C35.9854 37.033 33.5421 45.8293 33.3934 46.2639C33.1868 46.8665 32.1263 47.5376 31.6993 47.8937H36.1204C35.6797 47.4006 35.3216 46.9213 35.4042 46.3735ZM37.6905 37.9643L39.7288 42.9769H36.1479L37.6905 37.9643Z" fill="white"/>
<path id="Vector_47" d="M60.3686 40.9482C59.0207 41.8411 57.5985 42.7733 56.1 43.7466C56.7721 44.0708 57.3074 44.478 57.3588 45.0039C57.4543 45.9918 55.4582 46.4693 53.654 46.2639C53.2931 46.2228 52.9387 46.1288 52.6008 46.0028C52.2262 46.2429 51.8479 46.4848 51.4641 46.7295C51.0739 46.9788 50.6001 47.2856 50.0593 47.6398V49.0578C50.4174 48.3593 51.2006 47.7339 51.8084 47.7019C52.0701 47.6882 52.9791 48.5237 56.7253 48.3182C58.5433 48.2187 62.0553 46.2913 62.0002 44.0726C61.9672 42.7615 61.2786 41.7388 60.3686 40.9482ZM50.0584 44.3739V45.8183C50.3898 45.5983 50.7167 45.3819 51.0371 45.171C50.5331 44.8222 50.1759 44.4962 50.0584 44.3739ZM59.0878 40.0415C58.7389 39.8361 58.3854 39.6562 58.0466 39.4973C56.2836 38.6756 54.4381 38.5249 54.0525 37.4156C53.7807 36.6331 54.5483 35.9091 56.4214 35.9365C58.2945 35.9638 60.0298 37.0732 60.4981 37.4704V33.9369C60.3604 34.0738 59.7562 34.7632 59.2035 34.6491C58.143 34.4299 56.3387 34.1442 54.2728 34.156C51.9039 34.1697 49.8655 35.9903 49.7967 38.2921C49.7003 41.5106 52.2895 42.3871 53.7495 42.8938C53.9 42.9459 54.0717 43.0016 54.2581 43.0609C55.6584 42.1552 56.7657 41.4576 57.4139 41.086C57.8491 40.8368 58.4193 40.4788 59.0878 40.0415Z" fill="white"/>
</g>
</g>
</svg>
