<svg width="210" height="71" viewBox="0 0 210 71" fill="none" xmlns="http://www.w3.org/2000/svg">
<path d="M16.5876 16.6648H20.9648L28.8095 26.5422V16.6648H33.1774V33.3288H28.6748L20.9648 23.3872V33.3288H16.5876V16.6648Z" fill="#404F65"/>
<path d="M47.9695 28.4786C48.8664 27.5639 49.3277 26.3686 49.3277 24.9093C49.3277 23.5619 48.8664 22.4308 47.9474 21.5179C47.0284 20.6031 45.8676 20.1466 44.4873 20.1466C43.0867 20.1466 41.9462 20.6251 41.0273 21.538C40.1286 22.4528 39.6691 23.6261 39.6691 25.0413C39.6691 26.4548 40.1083 27.6079 41.007 28.5226C41.8817 29.4136 43.0424 29.8701 44.4652 29.8701C45.8898 29.8701 47.0487 29.4136 47.9695 28.4786ZM37.8514 31.3935C36.1001 29.6959 35.2439 27.5639 35.2439 24.9753C35.2439 22.3667 36.1444 20.2126 37.9621 18.5151C39.7355 16.8817 41.9038 16.0567 44.5095 16.0567C47.1151 16.0567 49.3277 16.9055 51.1011 18.6012C52.8745 20.2768 53.751 22.3667 53.751 24.825C53.751 27.4777 52.8523 29.6757 51.0568 31.4155C49.2834 33.091 47.093 33.9398 44.4873 33.9398C41.7912 33.9398 39.5823 33.091 37.8514 31.3935Z" fill="#404F65"/>
<path d="M61.8262 24.1704C63.3376 24.1704 64.0813 23.4737 64.0813 22.0823C64.0813 20.6909 63.3597 19.9924 61.8705 19.9924H60.5068V24.1704H61.8262ZM56.1333 16.6651H62.8117C64.478 16.6651 65.8122 17.1234 66.8844 18.0144C67.9787 18.9713 68.5507 20.2546 68.5507 21.8862C68.5507 24.1924 67.5856 25.7158 65.6591 26.4344L70.1488 33.3292H64.9135L61.3889 27.4555H60.5068V33.3292H56.1333V16.6651Z" fill="#404F65"/>
<path d="M74.2482 21.0106H70.6978V16.664H82.1722V21.0106H78.6199V33.3298H74.2482V21.0106Z" fill="#404F65"/>
<path d="M84.9326 16.6647H89.3061V22.553H95.4475V16.6647H99.8228V33.3306H95.4475V26.8996H89.3061V33.3306H84.9326V16.6647Z" fill="#404F65"/>
<path d="M108.782 24.1704C110.291 24.1704 111.037 23.4737 111.037 22.0823C111.037 20.6909 110.315 19.9924 108.824 19.9924H107.462V24.1704H108.782ZM103.089 16.6651H109.767C111.432 16.6651 112.768 17.1234 113.84 18.0144C114.934 18.9713 115.504 20.2546 115.504 21.8862C115.504 24.1924 114.541 25.7158 112.615 26.4344L117.104 33.3292H111.869L108.344 27.4555H107.462V33.3292H103.089V16.6651Z" fill="#404F65"/>
<path d="M130.458 28.4786C131.354 27.5639 131.814 26.3686 131.814 24.9093C131.814 23.5619 131.354 22.4308 130.434 21.5179C129.515 20.6031 128.354 20.1466 126.974 20.1466C125.575 20.1466 124.432 20.6251 123.513 21.538C122.618 22.4528 122.157 23.6261 122.157 25.0413C122.157 26.4548 122.594 27.6079 123.493 28.5226C124.368 29.4136 125.53 29.8701 126.953 29.8701C128.378 29.8701 129.537 29.4136 130.458 28.4786ZM120.341 31.3935C118.586 29.6959 117.732 27.5639 117.732 24.9753C117.732 22.3667 118.632 20.2126 120.45 18.5151C122.224 16.8817 124.392 16.0567 126.997 16.0567C129.605 16.0567 131.814 16.9055 133.587 18.6012C135.361 20.2768 136.239 22.3667 136.239 24.825C136.239 27.4777 135.34 29.6757 133.545 31.4155C131.771 33.091 129.579 33.9398 126.974 33.9398C124.279 33.9398 122.07 33.091 120.341 31.3935Z" fill="#404F65"/>
<path d="M144.797 24.3226C146.526 24.3226 147.381 23.582 147.381 22.0824C147.381 20.647 146.548 19.9503 144.839 19.9503H143.347V24.3226H144.797ZM138.971 16.6652H146.462C148.082 16.6652 149.396 17.1858 150.337 18.2748C151.282 19.2757 151.739 20.6231 151.739 22.2565C151.739 23.8221 151.282 25.0834 150.337 26.0403C149.418 27.0193 148.148 27.5216 146.593 27.5216H143.347V33.3292H138.971V16.6652Z" fill="#404F65"/>
<path d="M37.6976 52.4045C36.0774 50.7069 35.2451 48.5749 35.2451 46.0304C35.2451 43.528 36.0774 41.418 37.6976 39.6984C39.3824 37.9385 41.464 37.0677 43.9626 37.0677C47.3341 37.0677 49.8512 38.4592 51.5378 41.2438L48.0353 43.1596C47.9486 42.9414 47.7696 42.7013 47.5075 42.4189C46.5683 41.3758 45.3614 40.8534 43.9165 40.8534C42.4716 40.8534 41.3976 41.418 40.676 42.5271C40.0634 43.462 39.7552 44.6811 39.7552 46.2045C39.7552 47.7481 40.1279 48.9452 40.8513 49.838C41.6411 50.8169 42.8019 51.2954 44.3114 51.2954C45.1879 51.2954 45.998 51.0131 46.7214 50.4686C47.5075 49.8802 47.9486 49.1854 48.0353 48.3366H44.1822V44.8553H52.5897V45.7701C52.5897 48.5969 51.8884 50.8169 50.4638 52.4265C48.9746 54.1021 46.8285 54.9509 44.0032 54.9509C41.4418 54.9509 39.3418 54.1021 37.6976 52.4045Z" fill="#404F65"/>
<path d="M60.8836 45.1826C62.3931 45.1826 63.1386 44.4859 63.1386 43.0945C63.1386 41.7013 62.4171 41.0047 60.9261 41.0047H59.5642V45.1826H60.8836ZM55.1907 37.6773H61.869C63.5336 37.6773 64.8696 38.1357 65.9417 39.0266C67.0379 39.9835 67.6063 41.2668 67.6063 42.8984C67.6063 45.2046 66.643 46.728 64.7164 47.4466L69.2062 54.3414H63.9709L60.4463 48.4677H59.5642V54.3414H55.1907V37.6773Z" fill="#404F65"/>
<path d="M72.9324 53.4928C71.4414 52.3837 70.6755 50.8603 70.6755 48.9464V37.6758H75.0546V48.0317C75.0546 50.0335 76.0621 51.0345 78.0791 51.0345C78.9741 51.0345 79.7473 50.7943 80.2751 50.3159C80.8195 49.8172 81.1055 49.1206 81.1055 48.2498V37.6758H85.4809V48.468C85.4809 50.578 84.7556 52.2096 83.2886 53.3847C81.9544 54.4278 80.181 54.9503 77.9887 54.9503C75.9736 54.9503 74.2888 54.4718 72.9324 53.4928Z" fill="#404F65"/>
<path d="M98.4918 46.2898L104.032 37.6773H104.039H108.407V54.3431H104.039V44.5629H104.032L99.671 51.3605H97.3514L92.9686 44.5629H92.9612V54.3431H88.5767V37.6773H92.9612L98.4918 46.2898Z" fill="#404F65"/>
<path d="M121.921 46.2898L127.459 37.6773H127.466H131.836V54.3431H127.466V44.5629H127.459L123.1 51.3605H120.781L116.398 44.5629H116.381L116.379 54.3431H112.006V37.6773H116.389L121.921 46.2898Z" fill="#404F65"/>
<path d="M144.507 47.9021L142.734 42.8112L140.938 47.9021H144.507ZM140.288 37.6764H145.297L151.516 54.3422H146.784L145.645 51.2532H139.846L138.727 54.3422H134.06L140.288 37.6764Z" fill="#404F65"/>
<path d="M153.927 37.677H158.307L166.023 47.5544V37.677H170.395V54.3428H166.014L158.304 44.3994V54.3428H153.927V37.677Z" fill="#404F65"/>
<path d="M153.927 16.6647V21.015H189.055V54.3412H193.432V16.6647H153.927Z" fill="#404F65"/>
</svg>
