<svg width="125" height="92" viewBox="0 0 125 92" fill="none" xmlns="http://www.w3.org/2000/svg">
<g clip-path="url(#clip0_3002_163)">
<path d="M124.128 89.0891C124.128 90.4297 123.143 91.3295 121.977 91.3295V91.3213C120.778 91.3295 119.811 90.4297 119.811 89.0894C119.811 87.7495 120.778 86.8522 121.977 86.8522C123.143 86.8519 124.128 87.7492 124.128 89.0891ZM125 89.0891C125 87.2493 123.57 86.1814 121.977 86.1814C120.373 86.1814 118.943 87.2493 118.943 89.0891C118.943 90.9278 120.373 92 121.977 92C123.571 92 125 90.9278 125 89.0891ZM121.476 89.3351H121.799L122.549 90.6515H123.373L122.542 89.2796C122.971 89.2491 123.325 89.0447 123.325 88.467C123.325 87.7492 122.83 87.5185 121.991 87.5185H120.778V90.6515H121.475V89.3351M121.476 88.8047V88.0503H121.961C122.225 88.0503 122.584 88.0716 122.584 88.3934C122.584 88.7435 122.398 88.8047 122.087 88.8047H121.476Z" fill="#404F65"/>
<path d="M104.641 73.0621L108.411 83.3693H100.755L104.641 73.0621ZM100.605 69.0488L91.9184 91.0476H98.0521L99.426 87.1604H109.706L111.006 91.0476H117.665L108.914 69.0459L100.605 69.0488ZM83.1656 91.0557H89.3886V69.042L83.1645 69.0406L83.1656 91.0557ZM39.9647 69.0406L34.7728 86.4882L29.7993 69.042L23.0848 69.0406L30.188 91.0557H39.1531L46.3136 69.0406H39.9647ZM65.1187 73.8342H67.7933C71.6735 73.8342 74.1831 75.5755 74.1831 80.0944C74.1831 84.6143 71.6735 86.3559 67.7933 86.3559H65.1187V73.8342ZM58.948 69.0406V91.0557H69.0367C74.4117 91.0557 76.1669 90.1627 78.0647 88.1591C79.4052 86.7523 80.2723 83.6651 80.2723 80.2903C80.2723 77.1949 79.5386 74.4358 78.2593 72.7165C75.9542 69.6417 72.6338 69.0406 67.6784 69.0406H58.948ZM0 69.01V91.0557H6.27561V74.3163L11.1382 74.3177C12.7483 74.3177 13.896 74.7188 14.6713 75.5467C15.6547 76.5937 16.0562 78.2838 16.0562 81.3753V91.0557H22.1373V78.8753C22.1373 70.1821 16.594 69.01 11.1702 69.01H0ZM48.9327 69.0406L48.9352 91.0557H55.1553V69.0406H48.9327Z" fill="#404F65"/>
<path d="M16.7241 25.2062C16.7241 25.2062 24.7279 13.4023 40.7087 12.1811V7.89866C23.0079 9.31963 7.67969 24.305 7.67969 24.305C7.67969 24.305 16.3613 49.3914 40.7087 51.6883V47.1364C22.8414 44.8896 16.7241 25.2062 16.7241 25.2062ZM40.7087 38.0837V42.2524C27.205 39.846 23.4567 25.8148 23.4567 25.8148C23.4567 25.8148 29.9404 18.6353 40.7087 17.4711V22.0454C40.7005 22.0454 40.6948 22.0429 40.6881 22.0429C35.0363 21.3649 30.6211 26.6424 30.6211 26.6424C30.6211 26.6424 33.0958 35.5269 40.7087 38.0837ZM40.7087 0V7.89866C41.2283 7.85885 41.7479 7.82507 42.2704 7.8073C62.3943 7.12935 75.5064 24.305 75.5064 24.305C75.5064 24.305 60.4467 42.6093 44.7572 42.6093C43.3192 42.6093 41.9731 42.476 40.7087 42.2521V47.1364C41.7899 47.2736 42.9109 47.3543 44.0807 47.3543C58.6809 47.3543 69.2393 39.9011 79.4631 31.0799C81.1582 32.4369 88.0978 35.7381 89.5243 37.1832C79.8035 45.3183 57.1483 51.876 44.3044 51.876C43.0664 51.876 41.8774 51.801 40.7087 51.6883V58.5517H96.2029V0H40.7087ZM40.7087 17.4711V12.1811C41.223 12.1452 41.7412 12.1178 42.2704 12.1011C56.7415 11.6468 66.2354 24.5314 66.2354 24.5314C66.2354 24.5314 55.9811 38.767 44.9862 38.767C43.4039 38.767 41.9855 38.5128 40.7087 38.0837V22.0454C46.3423 22.7258 47.4758 25.2133 50.8628 30.857L58.3956 24.508C58.3956 24.508 52.8968 17.2993 43.6272 17.2993C42.6197 17.299 41.6555 17.3697 40.7087 17.4711Z" fill="#8896AB"/>
</g>
<defs>
<clipPath id="clip0_3002_163">
<rect width="125" height="92" fill="white"/>
</clipPath>
</defs>
</svg>
