<svg width="64" height="64" viewBox="0 0 64 64" fill="none" xmlns="http://www.w3.org/2000/svg">
<circle cx="32" cy="32" r="32" fill="#DCFCE7"/>
<rect width="64" height="64" rx="6" fill="#FD652F"/>
<path d="M18.4285 33.0103C18.2356 32.7048 18.1391 32.5521 18.0851 32.3165C18.0445 32.1395 18.0445 31.8604 18.0851 31.6835C18.1391 31.4479 18.2356 31.2951 18.4285 30.9896C20.0228 28.4652 24.7685 22.0833 32.0006 22.0833C39.2327 22.0833 43.9783 28.4652 45.5726 30.9896C45.7656 31.2951 45.862 31.4479 45.916 31.6835C45.9566 31.8604 45.9566 32.1395 45.916 32.3165C45.862 32.5521 45.7656 32.7048 45.5726 33.0103C43.9783 35.5348 39.2327 41.9166 32.0006 41.9166C24.7685 41.9166 20.0228 35.5348 18.4285 33.0103Z" stroke="white" stroke-width="2" stroke-linecap="round" stroke-linejoin="round"/>
<path d="M32.0006 36.25C34.3478 36.25 36.2506 34.3472 36.2506 32C36.2506 29.6528 34.3478 27.75 32.0006 27.75C29.6534 27.75 27.7506 29.6528 27.7506 32C27.7506 34.3472 29.6534 36.25 32.0006 36.25Z" stroke="white" stroke-width="2" stroke-linecap="round" stroke-linejoin="round"/>
</svg>
