<svg width="169" height="41" viewBox="0 0 169 41" fill="none" xmlns="http://www.w3.org/2000/svg">
<path d="M134.831 19.2417C134.831 20.8206 135.112 22.4409 135.56 23.869C135.563 23.8827 135.58 23.9362 135.58 23.9362C136.019 25.2945 137.287 26.2769 138.782 26.2769C140.644 26.2769 142.152 24.7578 142.152 22.8883C142.152 22.5395 142.003 21.8888 142.003 21.8888C141.745 21.0886 141.57 20.1305 141.57 19.2434V16.2321C141.57 11.656 145.257 7.9484 149.807 7.9484C154.354 7.9484 158.042 11.656 158.042 16.2321V19.242C158.042 23.8209 154.354 27.527 149.807 27.5285C148.375 27.5285 147.028 27.1612 145.855 26.5133C145.365 26.2342 144.797 26.0719 144.194 26.0719C142.331 26.0719 140.827 27.5897 140.825 29.4606C140.825 30.7463 141.534 31.8639 142.581 32.4392C144.724 33.6281 147.186 34.3072 149.807 34.3072C158.076 34.3072 164.782 27.5612 164.782 19.2434L164.783 16.2321C164.782 7.91423 158.076 1.16963 149.807 1.17111C141.536 1.17111 134.831 7.91423 134.831 16.2306L134.831 19.2417ZM30.5448 34.5774C27.7546 30.1038 22.8566 27.4912 17.7447 27.5296H16.0205H16.0261C11.5259 27.4726 7.89194 23.7879 7.89194 19.2488V16.2374C7.89194 11.66 11.5811 7.95239 16.1295 7.95239C20.6779 7.95239 24.3642 11.66 24.3642 16.2374V25.102H24.3653C24.3653 26.9744 25.873 28.4907 27.7345 28.4907C29.5961 28.4907 31.1037 26.9687 31.1037 25.0978V16.2374C31.1037 7.91674 24.3993 1.17225 16.1292 1.17225C7.85774 1.17225 1.15332 7.91674 1.15332 16.2374V19.2488C1.15332 27.5297 7.7997 34.2485 16.0203 34.3098H17.7445C20.5871 34.2677 23.3178 35.7207 24.858 38.2167H24.8603C25.7111 39.6149 27.4707 40.2243 29.0222 39.575C30.7422 38.8603 31.5576 36.8755 30.847 35.1484C30.7634 34.942 30.6601 34.754 30.544 34.5746M101.102 13.6945C99.9056 6.58258 93.7519 1.16507 86.3382 1.16507C78.0695 1.16507 71.3651 7.90956 71.3651 16.2289V30.9125C71.3651 32.7834 72.8728 34.3012 74.7329 34.3012C76.5944 34.3012 78.1035 32.7834 78.1035 30.9125V16.2289C78.1035 11.6528 81.7912 7.94373 86.3382 7.94373C90.4365 7.94373 93.8326 10.9523 94.4668 14.8919H94.469C94.7281 16.5036 96.1196 17.7338 97.7943 17.7338C99.6545 17.7338 101.164 16.216 101.164 14.3451C101.164 14.1245 101.143 13.9038 101.102 13.6945ZM119.452 19.0551C118.681 20.8121 119.439 22.8553 121.154 23.6156C122.865 24.3744 124.882 23.5712 125.652 21.813L132.6 6.01591C133.372 4.25893 132.609 2.2172 130.897 1.45553C129.186 0.693734 127.17 1.50792 126.397 3.26512C126.397 3.26512 119.455 19.048 119.452 19.0551ZM109.436 3.25806C108.666 1.50109 106.651 0.693734 104.938 1.45553C103.225 2.2172 102.463 4.25893 103.236 6.01591L114.746 32.1983C115.518 33.9537 117.551 34.7796 119.265 34.0192C120.977 33.2576 121.723 31.1973 120.95 29.4389C120.945 29.4275 109.438 3.25943 109.436 3.25806ZM65.8577 19.2445C65.8577 27.5609 59.1505 34.304 50.8804 34.304C42.6103 34.304 35.9045 27.5609 35.903 19.243L35.9053 16.2317C35.9042 7.91241 42.6097 1.16792 50.8798 1.16792C53.5002 1.16792 55.9634 1.84565 58.1066 3.03595C59.1528 3.60968 59.862 4.72879 59.862 6.01306C59.8609 7.88541 58.3543 9.40171 56.4928 9.40171C55.8883 9.40171 55.3221 9.24087 54.8323 8.96033C53.6587 8.31392 52.3124 7.94806 50.8798 7.94658C46.3342 7.94658 42.6451 11.6542 42.6451 16.2331V19.243C42.6451 23.8191 46.3342 27.5253 50.8798 27.5267C55.4297 27.5267 59.1174 23.8191 59.1174 19.243V16.2317C59.1174 15.3447 58.9404 14.3865 58.6828 13.5848C58.6828 13.5848 58.5355 12.9342 58.5355 12.5868C58.5355 10.7159 60.0432 9.19668 61.9047 9.19668C63.4011 9.19668 64.6681 10.1791 65.1069 11.5374C65.1069 11.5374 65.1239 11.5921 65.1282 11.6046C65.5741 13.0326 65.8572 14.6544 65.8572 16.2333L65.8577 19.2445Z" fill="#BBC3CF"/>
<path d="M166.387 31.8703C166.387 31.6752 166.275 31.5727 166.029 31.5727H165.57C165.54 31.5727 165.529 31.5841 165.529 31.6137V32.1362C165.529 32.1578 165.54 32.1772 165.57 32.1772H166.029C166.275 32.1772 166.387 32.0651 166.387 31.8703ZM165.141 33.2151V31.4182C165.141 31.2944 165.223 31.2232 165.335 31.2232H166.05C166.509 31.2232 166.775 31.4695 166.775 31.8696C166.775 32.1672 166.642 32.3836 166.377 32.4648L166.714 33.1325C166.734 33.1621 166.744 33.2145 166.744 33.2464C166.744 33.3478 166.673 33.4201 166.56 33.4201C166.479 33.4201 166.418 33.3791 166.377 33.2963L165.978 32.5274H165.56C165.529 32.5274 165.529 32.5388 165.529 32.5673V33.2151C165.529 33.3475 165.447 33.4301 165.335 33.4301C165.214 33.4301 165.141 33.3481 165.141 33.2151ZM167.5 32.3209C167.5 31.3869 166.816 30.6993 165.897 30.6993C164.979 30.6993 164.293 31.3869 164.293 32.3209C164.293 33.2564 164.979 33.9541 165.897 33.9541C166.816 33.9541 167.5 33.2564 167.5 32.3209ZM163.947 32.3209C163.947 31.2118 164.794 30.3604 165.897 30.3604C167.01 30.3604 167.847 31.2118 167.847 32.3209C167.847 33.44 167.01 34.293 165.897 34.293C164.794 34.293 163.947 33.44 163.947 32.3209Z" fill="#BBC3CF"/>
</svg>
