<svg width="71" height="91" viewBox="0 0 71 91" fill="none" xmlns="http://www.w3.org/2000/svg">
<g id="tesla" clip-path="url(#clip0_2608_12632)">
<g id="Group">
<path id="Vector" d="M0 67.8482C0.206881 68.6478 0.905488 69.465 1.86397 69.6698H4.76082L4.90859 69.7276V76.9712H6.71753V69.7276L6.88186 69.6698H9.78125C10.7504 69.4224 11.434 68.6478 11.6373 67.8482V67.8305H0V67.8482Z" fill="#8896AB"/>
<path id="Vector_2" d="M17.9036 76.9917H24.7854C25.7429 76.8031 26.4545 75.9672 26.654 75.158H16.035C16.2333 75.9674 16.9553 76.8031 17.9036 76.9917Z" fill="#8896AB"/>
<path id="Vector_3" d="M17.9036 73.2761H24.7854C25.7429 73.089 26.4545 72.2528 26.654 71.4426H16.035C16.2333 72.2531 16.9553 73.089 17.9036 73.2761Z" fill="#8896AB"/>
<path id="Vector_4" d="M17.9036 69.6602H24.7854C25.7429 69.4711 26.4545 68.6357 26.654 67.826H16.035C16.2333 68.6357 16.9553 69.4711 17.9036 69.6602Z" fill="#8896AB"/>
<path id="Vector_5" d="M33.5988 69.6428H39.9566C40.9151 69.3668 41.7199 68.6433 41.9161 67.8412H31.8166V73.2478H40.0827V75.1451L33.5988 75.1502C32.5827 75.4309 31.7211 76.107 31.2913 77L31.8166 76.9904H41.8588V71.4502H33.5988V69.6428Z" fill="#8896AB"/>
<path id="Vector_6" d="M55.235 76.9927C56.1377 76.6135 56.6233 75.9576 56.8093 75.1901H48.7794L48.7845 67.8386L46.9845 67.8437V76.9927H55.235Z" fill="#8896AB"/>
<path id="Vector_7" d="M62.248 69.6675H69.1322C70.0884 69.4792 70.7995 68.643 71 67.8341H60.3805C60.579 68.6432 61.3005 69.4792 62.248 69.6675Z" fill="#8896AB"/>
<path id="Vector_8" d="M60.6572 71.457V76.9892H62.4476V73.3059H68.9636V76.9892H70.7526V71.4666L60.6572 71.457Z" fill="#8896AB"/>
</g>
<g id="Group_2">
<path id="Vector_9" d="M35.5035 63.7493L44.5421 13.3767C53.1575 13.3767 55.875 14.3128 56.2673 18.134C56.2673 18.134 62.0467 15.9986 64.9617 11.6616C53.5868 6.43851 42.1576 6.20295 42.1576 6.20295L35.4885 14.2522L35.5035 14.2512L28.8344 6.20169C28.8344 6.20169 17.405 6.4375 6.03162 11.6606C8.944 15.9976 14.7257 18.1329 14.7257 18.1329C15.1204 14.3116 17.8345 13.3754 26.3921 13.3693L35.5035 63.7493Z" fill="#8896AB"/>
<path id="Vector_10" d="M35.5 3.87795C44.695 3.80827 55.2197 5.28749 65.9938 9.94078C67.4338 7.37239 67.804 6.23729 67.804 6.23729C56.0263 1.61985 44.9966 0.0396379 35.4987 0C26.0013 0.0396379 14.9721 1.6201 3.19592 6.23729C3.19592 6.23729 3.72128 7.63547 5.00486 9.94078C15.7769 5.28749 26.3034 3.80827 35.4987 3.87795H35.5Z" fill="#8896AB"/>
</g>
</g>
<defs>
<clipPath id="clip0_2608_12632">
<rect width="71" height="91" fill="white"/>
</clipPath>
</defs>
</svg>
