<svg width="239" height="75" viewBox="0 0 239 75" fill="none" xmlns="http://www.w3.org/2000/svg">
<path d="M205.655 22.2965H200.72L208.224 38.4537H212.212L227.254 6.10547H222.353L210.218 32.1741L205.655 22.2965Z" fill="#BBC3CF"/>
<path d="M170.298 54.509H180.066V36.5528C180.066 32.4457 182.433 29.5605 185.948 29.5605C189.328 29.5605 191.086 31.9365 191.086 35.3648V54.509H200.855V33.4979C200.855 26.3698 196.596 21.3461 189.7 21.3461C185.306 21.3461 182.23 23.247 179.931 26.7092H179.728V22.2965H170.264L170.298 54.509ZM151.098 21.414C140.89 21.414 134.062 28.7798 134.062 38.4876C134.062 48.1276 140.89 55.5612 151.098 55.5612C161.306 55.5612 168.134 48.1276 168.134 38.4876C168.168 28.7798 161.306 21.414 151.098 21.414ZM151.03 48.2973C146.4 48.2973 143.932 44.3938 143.932 38.4876C143.932 32.5135 146.366 28.6779 151.03 28.6779C155.661 28.6779 158.23 32.5135 158.23 38.4876C158.264 44.3938 155.695 48.2973 151.03 48.2973ZM106.209 54.509H133.656V46.7698H118.107V46.5662L132.98 29.832V22.2626H106.209V30.0357H121.251V30.2393L106.209 47.1093V54.509ZM93.6682 54.509H103.505V22.2965H93.6682V54.509ZM70.8518 54.509H80.6544V39.7096C80.6544 32.9888 84.6768 30.0017 90.795 30.8503H90.9978V22.3644C90.4908 22.1608 89.9162 22.1268 89.0035 22.1268C85.1839 22.1268 82.6149 23.8919 80.4178 27.6596H80.215V22.2965H70.8518V54.509ZM52.8691 48.3312C48.5424 48.3312 45.9058 45.5139 45.3988 41.1691H68.5194C68.587 34.2447 66.7617 28.7119 62.9421 25.2496C60.2379 22.7378 56.6887 21.3461 52.1592 21.3461C42.4918 21.3461 35.799 28.7119 35.799 38.3518C35.799 48.0597 42.1876 55.4594 52.8015 55.4594C56.8239 55.4594 60.0013 54.3732 62.6379 52.5742C65.4434 50.6394 67.4716 47.7881 68.0124 44.9708H58.6154C57.7028 47.0753 55.7422 48.3312 52.8691 48.3312ZM52.362 28.3724C55.8099 28.3724 58.176 30.9521 58.5816 34.7199H45.4664C46.2439 30.9182 48.3058 28.3724 52.362 28.3724ZM16.2614 54.509H26.5372L37.6919 22.2965H27.8555L21.6021 43.0021H21.4669L15.2135 22.2965H5.10669L16.2614 54.509ZM93.6682 10.8236H103.505V19.5811H93.6682V10.8236Z" fill="#8896AB"/>
</svg>
