<svg width="600" height="937" viewBox="0 0 600 937" fill="none" xmlns="http://www.w3.org/2000/svg">
<path d="M600 872.409H454.199C347.224 872.409 241.762 937 150 937C58.2377 937 0 872.409 0 872.409V821H600V872.409Z" fill="#F7F8F9"/>
<g clip-path="url(#clip0_2767_3748)">
<rect width="600" height="824" fill="#F7F8F9"/>
<g opacity="0.4">
<rect width="600" height="1128" transform="translate(0 -520)" fill="#F7F8F9"/>
<line x1="1464" y1="152.5" x2="-24" y2="152.5" stroke="#D5DAE1"/>
<line x1="1464" y1="176.5" x2="-24" y2="176.5" stroke="#D5DAE1"/>
<line x1="1464" y1="200.5" x2="-24" y2="200.5" stroke="#D5DAE1"/>
<line x1="1464" y1="224.5" x2="-24" y2="224.5" stroke="#D5DAE1"/>
<line x1="1464" y1="248.5" x2="-24" y2="248.5" stroke="#D5DAE1"/>
<line x1="1464" y1="272.5" x2="-24" y2="272.5" stroke="#D5DAE1"/>
<line x1="1464" y1="296.5" x2="-24" y2="296.5" stroke="#D5DAE1"/>
<line x1="1464" y1="320.5" x2="-24" y2="320.5" stroke="#D5DAE1"/>
<line x1="1464" y1="344.5" x2="-24" y2="344.5" stroke="#D5DAE1"/>
<line x1="1464" y1="368.5" x2="-24" y2="368.5" stroke="#D5DAE1"/>
<line x1="1464" y1="392.5" x2="-24" y2="392.5" stroke="#D5DAE1"/>
<line x1="1464" y1="416.5" x2="-24" y2="416.5" stroke="#D5DAE1"/>
<line x1="1464" y1="440.5" x2="-24" y2="440.5" stroke="#D5DAE1"/>
<line x1="1464" y1="464.5" x2="-24" y2="464.5" stroke="#D5DAE1"/>
<line x1="1464" y1="488.5" x2="-24" y2="488.5" stroke="#D5DAE1"/>
<line x1="1464" y1="512.5" x2="-24" y2="512.5" stroke="#D5DAE1"/>
<line x1="1464" y1="536.5" x2="-24" y2="536.5" stroke="#D5DAE1"/>
<line x1="1464" y1="560.5" x2="-24" y2="560.5" stroke="#D5DAE1"/>
<line x1="1464" y1="584.5" x2="-24" y2="584.5" stroke="#D5DAE1"/>
<line x1="1464" y1="608.5" x2="-24" y2="608.5" stroke="#D5DAE1"/>
<line x1="1464" y1="632.5" x2="-24" y2="632.5" stroke="#D5DAE1"/>
<line x1="1464" y1="656.5" x2="-24" y2="656.5" stroke="#D5DAE1"/>
<line x1="1464" y1="680.5" x2="-24" y2="680.5" stroke="#D5DAE1"/>
<line x1="1464" y1="704.5" x2="-24" y2="704.5" stroke="#D5DAE1"/>
<line x1="1464" y1="728.5" x2="-24" y2="728.5" stroke="#D5DAE1"/>
<line x1="1464" y1="752.5" x2="-24" y2="752.5" stroke="#D5DAE1"/>
<line x1="1464" y1="776.5" x2="-24" y2="776.5" stroke="#D5DAE1"/>
<line x1="1464" y1="800.5" x2="-24" y2="800.5" stroke="#D5DAE1"/>
<line x1="24.5" y1="128" x2="24.5" y2="848" stroke="#D5DAE1"/>
<line x1="24.5" y1="128" x2="24.5" y2="848" stroke="#D5DAE1"/>
<line x1="48.5" y1="128" x2="48.5" y2="848" stroke="#D5DAE1"/>
<line x1="72.5" y1="128" x2="72.5" y2="848" stroke="#D5DAE1"/>
<line x1="96.5" y1="128" x2="96.5" y2="848" stroke="#D5DAE1"/>
<line x1="120.5" y1="128" x2="120.5" y2="848" stroke="#D5DAE1"/>
<line x1="144.5" y1="128" x2="144.5" y2="848" stroke="#D5DAE1"/>
<line x1="168.5" y1="128" x2="168.5" y2="848" stroke="#D5DAE1"/>
<line x1="192.5" y1="128" x2="192.5" y2="848" stroke="#D5DAE1"/>
<line x1="216.5" y1="128" x2="216.5" y2="848" stroke="#D5DAE1"/>
<line x1="240.5" y1="128" x2="240.5" y2="848" stroke="#D5DAE1"/>
<line x1="264.5" y1="128" x2="264.5" y2="848" stroke="#D5DAE1"/>
<line x1="288.5" y1="128" x2="288.5" y2="848" stroke="#D5DAE1"/>
<line x1="312.5" y1="128" x2="312.5" y2="848" stroke="#D5DAE1"/>
<line x1="336.5" y1="128" x2="336.5" y2="848" stroke="#D5DAE1"/>
<line x1="360.5" y1="128" x2="360.5" y2="848" stroke="#D5DAE1"/>
<line x1="384.5" y1="128" x2="384.5" y2="848" stroke="#D5DAE1"/>
<line x1="408.5" y1="128" x2="408.5" y2="848" stroke="#D5DAE1"/>
<line x1="432.5" y1="128" x2="432.5" y2="848" stroke="#D5DAE1"/>
<line x1="456.5" y1="128" x2="456.5" y2="848" stroke="#D5DAE1"/>
<line x1="480.5" y1="128" x2="480.5" y2="848" stroke="#D5DAE1"/>
<line x1="504.5" y1="128" x2="504.5" y2="848" stroke="#D5DAE1"/>
<line x1="528.5" y1="128" x2="528.5" y2="848" stroke="#D5DAE1"/>
<line x1="552.5" y1="128" x2="552.5" y2="848" stroke="#D5DAE1"/>
<line x1="576.5" y1="128" x2="576.5" y2="848" stroke="#D5DAE1"/>
<line x1="0.5" y1="-568" x2="0.499969" y2="152" stroke="#D5DAE1"/>
<line x1="1464" y1="8.5" x2="-24" y2="8.5" stroke="#D5DAE1"/>
<line x1="1464" y1="32.5" x2="-24" y2="32.5" stroke="#D5DAE1"/>
<line x1="1464" y1="56.5" x2="-24" y2="56.5" stroke="#D5DAE1"/>
<line x1="1464" y1="80.5" x2="-24" y2="80.5" stroke="#D5DAE1"/>
<line x1="1464" y1="104.5" x2="-24" y2="104.5" stroke="#D5DAE1"/>
<line x1="1464" y1="128.5" x2="-24" y2="128.5" stroke="#D5DAE1"/>
<line x1="24.5" y1="-568" x2="24.5" y2="152" stroke="#D5DAE1"/>
<line x1="24.5" y1="-568" x2="24.5" y2="152" stroke="#D5DAE1"/>
<line x1="48.5" y1="-568" x2="48.5" y2="152" stroke="#D5DAE1"/>
<line x1="72.5" y1="-568" x2="72.5" y2="152" stroke="#D5DAE1"/>
<line x1="96.5" y1="-568" x2="96.5" y2="152" stroke="#D5DAE1"/>
<line x1="120.5" y1="-568" x2="120.5" y2="152" stroke="#D5DAE1"/>
<line x1="144.5" y1="-568" x2="144.5" y2="152" stroke="#D5DAE1"/>
<line x1="168.5" y1="-568" x2="168.5" y2="152" stroke="#D5DAE1"/>
<line x1="192.5" y1="-568" x2="192.5" y2="152" stroke="#D5DAE1"/>
<line x1="216.5" y1="-568" x2="216.5" y2="152" stroke="#D5DAE1"/>
<line x1="240.5" y1="-568" x2="240.5" y2="152" stroke="#D5DAE1"/>
<line x1="264.5" y1="-568" x2="264.5" y2="152" stroke="#D5DAE1"/>
<line x1="288.5" y1="-568" x2="288.5" y2="152" stroke="#D5DAE1"/>
<line x1="312.5" y1="-568" x2="312.5" y2="152" stroke="#D5DAE1"/>
<line x1="336.5" y1="-568" x2="336.5" y2="152" stroke="#D5DAE1"/>
<line x1="360.5" y1="-568" x2="360.5" y2="152" stroke="#D5DAE1"/>
<line x1="384.5" y1="-568" x2="384.5" y2="152" stroke="#D5DAE1"/>
<line x1="408.5" y1="-568" x2="408.5" y2="152" stroke="#D5DAE1"/>
<line x1="432.5" y1="-568" x2="432.5" y2="152" stroke="#D5DAE1"/>
<line x1="456.5" y1="-568" x2="456.5" y2="152" stroke="#D5DAE1"/>
<line x1="480.5" y1="-568" x2="480.5" y2="152" stroke="#D5DAE1"/>
<line x1="504.5" y1="-568" x2="504.5" y2="152" stroke="#D5DAE1"/>
<line x1="528.5" y1="-568" x2="528.5" y2="152" stroke="#D5DAE1"/>
<line x1="552.5" y1="-568" x2="552.5" y2="152" stroke="#D5DAE1"/>
<line x1="576.5" y1="-568" x2="576.5" y2="152" stroke="#D5DAE1"/>
</g>
<rect width="600" height="824" fill="url(#paint0_radial_2767_3748)"/>
</g>
<defs>
<radialGradient id="paint0_radial_2767_3748" cx="0" cy="0" r="1" gradientUnits="userSpaceOnUse" gradientTransform="translate(300 412) rotate(90) scale(412 300)">
<stop stop-color="#F7F8F9" stop-opacity="0"/>
<stop offset="1" stop-color="#F7F8F9"/>
</radialGradient>
<clipPath id="clip0_2767_3748">
<rect width="600" height="824" fill="white"/>
</clipPath>
</defs>
</svg>
