<svg width="64" height="64" viewBox="0 0 64 64" fill="none" xmlns="http://www.w3.org/2000/svg">
<rect width="64" height="64" rx="6" fill="#FFC904"/>
<path d="M36.25 27.75H36.2642M27.75 27.75H27.7642M46.1667 32C46.1667 39.824 39.824 46.1666 32 46.1666C24.176 46.1666 17.8333 39.824 17.8333 32C17.8333 24.1759 24.176 17.8333 32 17.8333C39.824 17.8333 46.1667 24.1759 46.1667 32ZM36.9583 27.75C36.9583 28.1412 36.6412 28.4583 36.25 28.4583C35.8588 28.4583 35.5417 28.1412 35.5417 27.75C35.5417 27.3588 35.8588 27.0416 36.25 27.0416C36.6412 27.0416 36.9583 27.3588 36.9583 27.75ZM28.4583 27.75C28.4583 28.1412 28.1412 28.4583 27.75 28.4583C27.3588 28.4583 27.0417 28.1412 27.0417 27.75C27.0417 27.3588 27.3588 27.0416 27.75 27.0416C28.1412 27.0416 28.4583 27.3588 28.4583 27.75ZM32 39.7916C35.5424 39.7916 38.375 37.1949 38.375 34.8333H25.625C25.625 37.1949 28.4576 39.7916 32 39.7916Z" stroke="white" stroke-width="2" stroke-linecap="round" stroke-linejoin="round"/>
</svg>
