<svg width="48" height="48" viewBox="0 0 48 48" fill="none" xmlns="http://www.w3.org/2000/svg">
<circle cx="24" cy="24" r="24" fill="#FD652F"/>
<path d="M32.1774 15.5912C30.5591 14.8479 28.8287 14.3076 27.0197 14C26.7975 14.3944 26.538 14.9248 26.359 15.3467C24.4359 15.0628 22.5306 15.0628 20.6429 15.3467C20.464 14.9248 20.1985 14.3944 19.9743 14C18.1633 14.3076 16.431 14.8499 14.8127 15.5952C11.5486 20.4379 10.6637 25.1603 11.1062 29.8156C13.2711 31.4029 15.3692 32.3671 17.4318 32.998C17.9411 32.3099 18.3953 31.5784 18.7866 30.8074C18.0414 30.5294 17.3276 30.1863 16.6532 29.788C16.8321 29.6579 17.0071 29.5218 17.1762 29.3818C21.2898 31.2708 25.7593 31.2708 29.8237 29.3818C29.9948 29.5218 30.1697 29.6579 30.3467 29.788C29.6703 30.1883 28.9546 30.5313 28.2093 30.8094C28.6006 31.5784 29.0529 32.3119 29.5641 33C31.6288 32.369 33.7288 31.4049 35.8937 29.8156C36.4129 24.4189 35.0069 19.7398 32.1774 15.5912ZM19.3471 26.9526C18.1122 26.9526 17.0995 25.8208 17.0995 24.4425C17.0995 23.0643 18.0906 21.9305 19.3471 21.9305C20.6036 21.9305 21.6162 23.0623 21.5946 24.4425C21.5965 25.8208 20.6036 26.9526 19.3471 26.9526ZM27.6529 26.9526C26.418 26.9526 25.4053 25.8208 25.4053 24.4425C25.4053 23.0643 26.3963 21.9305 27.6529 21.9305C28.9093 21.9305 29.922 23.0623 29.9004 24.4425C29.9004 25.8208 28.9093 26.9526 27.6529 26.9526Z" fill="white"/>
</svg>
