<svg width="48" height="48" viewBox="0 0 48 48" fill="none" xmlns="http://www.w3.org/2000/svg">
<circle cx="24" cy="24" r="24" fill="#FD652F"/>
<path d="M33.5783 20.82L26.3333 14.78C25.7196 14.2799 24.9052 14.001 24.0583 14.001C23.2115 14.001 22.397 14.2799 21.7833 14.78L14.5383 20.78C14.2164 21.0209 13.9575 21.3173 13.7786 21.6499C13.5996 21.9825 13.5047 22.3438 13.5 22.71V31.29C13.5123 32.0176 13.8606 32.7114 14.4685 33.2194C15.0764 33.7273 15.8944 34.008 16.7433 34H31.2567C32.1056 34.008 32.9236 33.7273 33.5315 33.2194C34.1394 32.7114 34.4877 32.0176 34.5 31.29V22.71C34.4991 22.3585 34.4172 22.0106 34.259 21.6862C34.1009 21.3619 33.8695 21.0675 33.5783 20.82V20.82ZM23.3467 16.22C23.5251 16.0802 23.7582 16.0026 24 16.0026C24.2418 16.0026 24.4749 16.0802 24.6533 16.22L31 21.5L24.6183 26.78C24.4399 26.9199 24.2068 26.9974 23.965 26.9974C23.7232 26.9974 23.4901 26.9199 23.3117 26.78L17 21.5L23.3467 16.22ZM32.1667 31.29C32.1517 31.4863 32.0485 31.67 31.8788 31.8024C31.709 31.9348 31.4861 32.0056 31.2567 32H16.7433C16.5139 32.0056 16.291 31.9348 16.1212 31.8024C15.9515 31.67 15.8483 31.4863 15.8333 31.29V23.35L20.5583 27.25L18.6217 28.85C18.4044 29.0374 18.2824 29.2908 18.2824 29.555C18.2824 29.8192 18.4044 30.0727 18.6217 30.26C18.7301 30.3575 18.8604 30.4352 19.0048 30.4885C19.1491 30.5418 19.3045 30.5695 19.4617 30.57C19.762 30.569 20.0504 30.4687 20.2667 30.29L22.3317 28.59C22.8445 28.8587 23.4339 29.0008 24.035 29.0008C24.6361 29.0008 25.2255 28.8587 25.7383 28.59L27.8033 30.29C28.0196 30.4687 28.308 30.569 28.6083 30.57C28.7655 30.5695 28.9209 30.5418 29.0652 30.4885C29.2096 30.4352 29.3399 30.3575 29.4483 30.26C29.6656 30.0727 29.7876 29.8192 29.7876 29.555C29.7876 29.2908 29.6656 29.0374 29.4483 28.85L27.5 27.25L32.1667 23.35V31.29Z" fill="#F0FDF4"/>
</svg>
