<svg width="48" height="48" viewBox="0 0 48 48" fill="none" xmlns="http://www.w3.org/2000/svg">
<circle cx="24" cy="24" r="24" fill="#FD652F"/>
<path fill-rule="evenodd" clip-rule="evenodd" d="M18.5008 11.7271H29.4989C33.2342 11.7271 36.2729 14.7658 36.2728 18.5007V29.4988C36.2728 33.2338 33.2342 36.2725 29.4989 36.2725H18.5008C14.7659 36.2725 11.7273 33.2339 11.7273 29.4988V18.5007C11.7273 14.7658 14.7659 11.7271 18.5008 11.7271ZM29.4991 34.0947C32.0333 34.0947 34.0951 32.0331 34.0951 29.4988H34.095V18.5007C34.095 15.9666 32.0332 13.9048 29.4989 13.9048H18.5008C15.9667 13.9048 13.9051 15.9666 13.9051 18.5007V29.4988C13.9051 32.0331 15.9667 34.0949 18.5008 34.0947H29.4991ZM17.5714 23.9999C17.5714 20.4551 20.4553 17.5712 24 17.5712C27.5448 17.5712 30.4286 20.4551 30.4286 23.9999C30.4286 27.5446 27.5448 30.4284 24 30.4284C20.4553 30.4284 17.5714 27.5446 17.5714 23.9999ZM19.785 23.9998C19.785 26.3239 21.676 28.2146 24 28.2146C26.3241 28.2146 28.2151 26.3239 28.2151 23.9998C28.2151 21.6755 26.3242 19.7847 24 19.7847C21.6758 19.7847 19.785 21.6755 19.785 23.9998Z" fill="white"/>
<mask id="mask0_2454_16687" style="mask-type:luminance" maskUnits="userSpaceOnUse" x="11" y="11" width="26" height="26">
<path fill-rule="evenodd" clip-rule="evenodd" d="M18.5008 11.7271H29.4989C33.2342 11.7271 36.2729 14.7658 36.2728 18.5007V29.4988C36.2728 33.2338 33.2342 36.2725 29.4989 36.2725H18.5008C14.7659 36.2725 11.7273 33.2339 11.7273 29.4988V18.5007C11.7273 14.7658 14.7659 11.7271 18.5008 11.7271ZM29.4991 34.0947C32.0333 34.0947 34.0951 32.0331 34.0951 29.4988H34.095V18.5007C34.095 15.9666 32.0332 13.9048 29.4989 13.9048H18.5008C15.9667 13.9048 13.9051 15.9666 13.9051 18.5007V29.4988C13.9051 32.0331 15.9667 34.0949 18.5008 34.0947H29.4991ZM17.5714 23.9999C17.5714 20.4551 20.4553 17.5712 24 17.5712C27.5448 17.5712 30.4286 20.4551 30.4286 23.9999C30.4286 27.5446 27.5448 30.4284 24 30.4284C20.4553 30.4284 17.5714 27.5446 17.5714 23.9999ZM19.785 23.9998C19.785 26.3239 21.676 28.2146 24 28.2146C26.3241 28.2146 28.2151 26.3239 28.2151 23.9998C28.2151 21.6755 26.3242 19.7847 24 19.7847C21.6758 19.7847 19.785 21.6755 19.785 23.9998Z" fill="white"/>
</mask>
<g mask="url(#mask0_2454_16687)">
</g>
</svg>
