<svg width="48" height="48" viewBox="0 0 48 48" fill="none" xmlns="http://www.w3.org/2000/svg">
<circle cx="24" cy="24" r="24" fill="#FD652F"/>
<path d="M18.3072 13.6591C18.3072 15.1277 17.1192 16.3182 15.6536 16.3182C14.1881 16.3182 13 15.1277 13 13.6591C13 12.1905 14.1881 11 15.6536 11C17.1192 11 18.3072 12.1905 18.3072 13.6591Z" fill="white"/>
<path d="M13.3629 18.2727H17.899V33H13.3629V18.2727Z" fill="white"/>
<path d="M25.2021 18.2727H20.666V33H25.2021C25.2021 33 25.2021 28.3636 25.2021 25.4648C25.2021 23.7248 25.7566 21.9773 27.9691 21.9773C30.4695 21.9773 30.4544 24.2543 30.4428 26.0183C30.4275 28.3241 30.4639 30.6772 30.4639 33H35V25.2273C34.9616 20.2642 33.7545 17.9773 29.7835 17.9773C27.4253 17.9773 25.9634 19.1244 25.2021 20.1622V18.2727Z" fill="white"/>
</svg>
