<svg width="48" height="48" viewBox="0 0 48 48" fill="none" xmlns="http://www.w3.org/2000/svg">
<circle cx="24" cy="24" r="24" fill="#FD652F"/>
<path fill-rule="evenodd" clip-rule="evenodd" d="M25.1634 11.191C28.3209 11.3462 31.263 12.6482 33.5102 14.8969C35.9072 17.2954 37.2266 20.4837 37.2253 23.8742C37.2224 30.871 31.5265 36.5639 24.5294 36.5639C21.8981 36.5639 19.8071 35.7554 18.4569 35.0193L11.7266 36.7839L13.5278 30.2081C12.4167 28.2837 11.8321 26.1008 11.833 23.8642C11.8358 16.8676 17.5313 11.1753 24.5292 11.1753L25.1634 11.191ZM18.7687 32.722L19.1541 32.9506C20.7743 33.9116 22.6315 34.42 24.525 34.4208H24.5293C30.3455 34.4208 35.0793 29.6892 35.0817 23.8735C35.0828 21.0553 33.9862 18.4054 31.9939 16.4118C30.0015 14.4181 27.3521 13.3195 24.5335 13.3186C18.7128 13.3186 13.9789 18.0496 13.9766 23.8649C13.9758 25.8579 14.5337 27.7988 15.59 29.478L15.8409 29.8771L14.7749 33.7692L18.7687 32.722ZM30.9255 26.8918C30.8462 26.7595 30.6347 26.6802 30.3175 26.5215C30.0003 26.3627 28.4406 25.5957 28.1498 25.4898C27.8591 25.3841 27.6475 25.3312 27.4361 25.6485C27.2247 25.9659 26.6167 26.6802 26.4316 26.8918C26.2466 27.1034 26.0615 27.1299 25.7443 26.9712C25.4271 26.8125 24.4049 26.4776 23.1932 25.3974C22.2502 24.5566 21.6135 23.5183 21.4284 23.2009C21.2434 22.8835 21.4087 22.7119 21.5675 22.5538C21.7102 22.4117 21.8848 22.1834 22.0434 21.9983C22.202 21.8132 22.2549 21.6809 22.3606 21.4693C22.4664 21.2577 22.4135 21.0726 22.3342 20.9139C22.2549 20.7551 21.6205 19.1944 21.3561 18.5595C21.0986 17.9413 20.837 18.025 20.6423 18.0152C20.4575 18.0061 20.2458 18.004 20.0344 18.004C19.8229 18.004 19.4792 18.0833 19.1884 18.4008C18.8976 18.7182 18.0781 19.4854 18.0781 21.046C18.0781 22.6067 19.2148 24.1143 19.3735 24.326C19.5321 24.5377 21.6104 27.7402 24.7927 29.1137C25.5495 29.4404 26.1404 29.6355 26.6011 29.7816C27.3611 30.0229 28.0526 29.9889 28.5992 29.9073C29.2087 29.8162 30.4761 29.1402 30.7405 28.3997C31.0048 27.6589 31.0048 27.024 30.9255 26.8918Z" fill="white"/>
</svg>
